G04*
G04 #@! TF.GenerationSoftware,Altium Limited,Altium Designer,25.8.1 (18)*
G04*
G04 Layer_Color=8388736*
%FSLAX25Y25*%
%MOIN*%
G70*
G04*
G04 #@! TF.SameCoordinates,42E29172-AB17-4D01-AB3A-1E57205C25AC*
G04*
G04*
G04 #@! TF.FilePolarity,Negative*
G04*
G01*
G75*
%ADD13R,0.05118X0.02756*%
%ADD16R,0.04528X0.04528*%
%ADD17R,0.04743X0.05363*%
%ADD19R,0.06496X0.05512*%
%ADD20R,0.02756X0.05118*%
G04:AMPARAMS|DCode=25|XSize=48.81mil|YSize=20.7mil|CornerRadius=10.35mil|HoleSize=0mil|Usage=FLASHONLY|Rotation=0.000|XOffset=0mil|YOffset=0mil|HoleType=Round|Shape=RoundedRectangle|*
%AMROUNDEDRECTD25*
21,1,0.04881,0.00000,0,0,0.0*
21,1,0.02811,0.02070,0,0,0.0*
1,1,0.02070,0.01405,0.00000*
1,1,0.02070,-0.01405,0.00000*
1,1,0.02070,-0.01405,0.00000*
1,1,0.02070,0.01405,0.00000*
%
%ADD25ROUNDEDRECTD25*%
%ADD26R,0.04881X0.02070*%
%ADD27R,0.05800X0.03800*%
%ADD28R,0.10800X0.11312*%
%ADD29R,0.06312X0.06902*%
%ADD30R,0.06312X0.03162*%
G04:AMPARAMS|DCode=31|XSize=82.8mil|YSize=133.98mil|CornerRadius=0mil|HoleSize=0mil|Usage=FLASHONLY|Rotation=270.000|XOffset=0mil|YOffset=0mil|HoleType=Round|Shape=Octagon|*
%AMOCTAGOND31*
4,1,8,0.06699,0.02070,0.06699,-0.02070,0.04629,-0.04140,-0.04629,-0.04140,-0.06699,-0.02070,-0.06699,0.02070,-0.04629,0.04140,0.04629,0.04140,0.06699,0.02070,0.0*
%
%ADD31OCTAGOND31*%

%ADD32R,0.07887X0.03162*%
%ADD33R,0.04737X0.06115*%
%ADD34R,0.04724X0.04724*%
%ADD35C,0.04724*%
%ADD36R,0.06312X0.06312*%
%ADD37C,0.06312*%
%ADD38R,0.07887X0.07887*%
%ADD39C,0.07887*%
%ADD40C,0.00800*%
D13*
X117665Y38085D02*
D03*
Y45565D02*
D03*
X88211Y77805D02*
D03*
Y70325D02*
D03*
D16*
X96665Y21059D02*
D03*
Y30311D02*
D03*
X104665Y21059D02*
D03*
Y30311D02*
D03*
D17*
X80231Y42371D02*
D03*
X86930D02*
D03*
D19*
X124165Y29722D02*
D03*
Y19486D02*
D03*
X113940Y29819D02*
D03*
Y19583D02*
D03*
D20*
X80231Y54325D02*
D03*
X87711D02*
D03*
D25*
X109254Y42899D02*
D03*
Y39159D02*
D03*
X100077D02*
D03*
X109254Y46639D02*
D03*
X100077Y42899D02*
D03*
D26*
Y46639D02*
D03*
D27*
X55665Y62339D02*
D03*
D28*
X55565Y71595D02*
D03*
D29*
X80231Y29722D02*
D03*
X87711D02*
D03*
X87711Y18136D02*
D03*
X80231D02*
D03*
D30*
X80170Y64419D02*
D03*
Y76230D02*
D03*
D31*
X69540Y70325D02*
D03*
D32*
X79383D02*
D03*
D33*
X40213Y76526D02*
D03*
X46118D02*
D03*
D34*
X62949Y23461D02*
D03*
D35*
Y33461D02*
D03*
Y43461D02*
D03*
D36*
X125165Y61825D02*
D03*
X38668Y47927D02*
D03*
D37*
X125165Y71667D02*
D03*
X38668Y38085D02*
D03*
D38*
X19165Y94325D02*
D03*
D39*
Y74325D02*
D03*
D40*
X151187Y96922D02*
D03*
X151189Y12224D02*
D03*
X55678Y96929D02*
D03*
X12238Y12194D02*
D03*
M02*
