G04*
G04 #@! TF.GenerationSoftware,Altium Limited,Altium Designer,25.8.1 (18)*
G04*
G04 Layer_Color=128*
%FSLAX25Y25*%
%MOIN*%
G70*
G04*
G04 #@! TF.SameCoordinates,A2030EB1-7BB1-480F-B386-6677E5CB5BAE*
G04*
G04*
G04 #@! TF.FilePolarity,Positive*
G04*
G01*
G75*
%ADD54C,0.00500*%
D54*
X349713Y422604D02*
X362312D01*
X356012Y416305D02*
Y428903D01*
X306274Y337869D02*
X318872D01*
X312573Y331570D02*
Y344168D01*
X445224Y337899D02*
X457822D01*
X451523Y331600D02*
Y344198D01*
X445223Y422597D02*
X457821D01*
X451522Y416298D02*
Y428896D01*
X423728Y397343D02*
X427272D01*
X425500Y395571D02*
Y399114D01*
X316941Y400000D02*
X322059D01*
X319500Y397441D02*
Y402559D01*
X337231Y363760D02*
X340774D01*
X339003Y361988D02*
Y365531D01*
X316941Y420000D02*
X322059D01*
X319500Y417441D02*
Y422559D01*
X423728Y387500D02*
X427272D01*
X425500Y385728D02*
Y389272D01*
X361905Y369137D02*
X364661D01*
X363283Y367759D02*
Y370514D01*
X361905Y359137D02*
X364661D01*
X363283Y357759D02*
Y360514D01*
X361905Y349137D02*
X364661D01*
X363283Y347759D02*
Y350515D01*
X337231Y373602D02*
X340774D01*
X339003Y371831D02*
Y375374D01*
X355400Y388015D02*
X356600D01*
X356000Y387415D02*
Y388615D01*
X387446Y380000D02*
X388646D01*
X388046Y379400D02*
Y380600D01*
X399811Y368574D02*
X401011D01*
X400411Y367974D02*
Y369174D01*
X379965Y343811D02*
X381165D01*
X380565Y343211D02*
Y344411D01*
X413674Y345258D02*
X414875D01*
X414275Y344658D02*
Y345858D01*
X387946Y396000D02*
X389146D01*
X388546Y395400D02*
Y396600D01*
X417400Y371240D02*
X418600D01*
X418000Y370640D02*
Y371840D01*
X429496Y428739D02*
X430696D01*
X430096Y428139D02*
Y429339D01*
X429496Y409054D02*
X430696D01*
X430096Y408454D02*
Y409654D01*
X409811Y428739D02*
X411011D01*
X410411Y428139D02*
Y429339D01*
X409811Y409054D02*
X411011D01*
X410411Y408454D02*
Y409654D01*
X449181Y399211D02*
X450381D01*
X449781Y398611D02*
Y399811D01*
X449181Y379526D02*
X450381D01*
X449781Y378926D02*
Y380126D01*
X390126Y428739D02*
X391326D01*
X390726Y428139D02*
Y429339D01*
X390126Y409054D02*
X391326D01*
X390726Y408454D02*
Y409654D01*
X398900Y389369D02*
X400100D01*
X399500Y388769D02*
Y389969D01*
X449181Y359841D02*
X450381D01*
X449781Y359241D02*
Y360441D01*
X430825Y350685D02*
X432025D01*
X431425Y350085D02*
Y351285D01*
X430825Y331000D02*
X432025D01*
X431425Y330400D02*
Y331600D01*
X404400Y355987D02*
X405600D01*
X405000Y355387D02*
Y356587D01*
X391455Y331000D02*
X392655D01*
X392055Y330400D02*
Y331600D01*
X411140Y331000D02*
X412340D01*
X411740Y330400D02*
Y331600D01*
X370441Y409054D02*
X371641D01*
X371041Y408454D02*
Y409654D01*
X338582Y409054D02*
X339782D01*
X339182Y408454D02*
Y409654D01*
X325488Y428739D02*
X326688D01*
X326088Y428139D02*
Y429339D01*
X305803Y428739D02*
X307003D01*
X306403Y428139D02*
Y429339D01*
X305803Y409054D02*
X307003D01*
X306403Y408454D02*
Y409654D01*
X335331Y389369D02*
X336531D01*
X335931Y388769D02*
Y389969D01*
X305803Y389369D02*
X307003D01*
X306403Y388769D02*
Y389969D01*
X371770Y331000D02*
X372970D01*
X372370Y330400D02*
Y331600D01*
X369580Y364165D02*
X370780D01*
X370180Y363565D02*
Y364765D01*
X305803Y369684D02*
X307003D01*
X306403Y369084D02*
Y370284D01*
X332400Y331000D02*
X333600D01*
X333000Y330400D02*
Y331600D01*
X352085Y331000D02*
X353285D01*
X352685Y330400D02*
Y331600D01*
X326748Y356427D02*
X327948D01*
X327348Y355827D02*
Y357027D01*
X398900Y380000D02*
X400100D01*
X399500Y379400D02*
Y380600D01*
X423876Y363707D02*
X425076D01*
X424476Y363107D02*
Y364307D01*
M02*
