G04*
G04 #@! TF.GenerationSoftware,Altium Limited,Altium Designer,25.8.1 (18)*
G04*
G04 Layer_Color=32896*
%FSLAX25Y25*%
%MOIN*%
G70*
G04*
G04 #@! TF.SameCoordinates,42E29172-AB17-4D01-AB3A-1E57205C25AC*
G04*
G04*
G04 #@! TF.FilePolarity,Positive*
G04*
G01*
G75*
%ADD12C,0.00800*%
D12*
X28537Y40042D02*
X29370Y40875D01*
X31036D01*
X31870Y40042D01*
Y36709D01*
X31036Y35876D01*
X29370D01*
X28537Y36709D01*
Y38375D01*
X30203D01*
X26871Y35876D02*
Y40875D01*
X23539Y35876D01*
Y40875D01*
X21873D02*
Y35876D01*
X19374D01*
X18541Y36709D01*
Y40042D01*
X19374Y40875D01*
X21873D01*
X22788Y67562D02*
X23621Y68395D01*
X25287D01*
X26120Y67562D01*
Y64230D01*
X25287Y63397D01*
X23621D01*
X22788Y64230D01*
Y65896D01*
X24454D01*
X21122Y63397D02*
Y68395D01*
X17790Y63397D01*
Y68395D01*
X16124D02*
Y63397D01*
X13624D01*
X12791Y64230D01*
Y67562D01*
X13624Y68395D01*
X16124D01*
X22788Y83156D02*
X26120D01*
X22788Y86489D01*
Y87322D01*
X23621Y88155D01*
X25287D01*
X26120Y87322D01*
X18623Y83156D02*
Y88155D01*
X21122Y85656D01*
X17790D01*
X16124Y88155D02*
Y84823D01*
X14458Y83156D01*
X12791Y84823D01*
Y88155D01*
X145970Y60221D02*
Y65219D01*
X143471D01*
X142638Y64386D01*
Y62720D01*
X143471Y61887D01*
X145970D01*
X140971Y65219D02*
Y60221D01*
X139305Y61887D01*
X137639Y60221D01*
Y65219D01*
X135973Y60221D02*
Y65219D01*
X134307Y63553D01*
X132641Y65219D01*
Y60221D01*
X142638Y73229D02*
X143471Y74062D01*
X145137D01*
X145970Y73229D01*
Y69897D01*
X145137Y69064D01*
X143471D01*
X142638Y69897D01*
Y71563D01*
X144304D01*
X140971Y69064D02*
Y74062D01*
X137639Y69064D01*
Y74062D01*
X135973D02*
Y69064D01*
X133474D01*
X132641Y69897D01*
Y73229D01*
X133474Y74062D01*
X135973D01*
X31518Y45563D02*
Y48895D01*
X29851Y50561D01*
X28185Y48895D01*
Y45563D01*
Y48062D01*
X31518D01*
X26519Y50561D02*
X24853D01*
X25686D01*
Y45563D01*
X26519D01*
X24853D01*
X22354D02*
Y50561D01*
X19022Y45563D01*
Y50561D01*
M02*
