G04*
G04 #@! TF.GenerationSoftware,Altium Limited,Altium Designer,25.8.1 (18)*
G04*
G04 Layer_Color=32768*
%FSLAX25Y25*%
%MOIN*%
G70*
G04*
G04 #@! TF.SameCoordinates,A2030EB1-7BB1-480F-B386-6677E5CB5BAE*
G04*
G04*
G04 #@! TF.FilePolarity,Positive*
G04*
G01*
G75*
%ADD11C,0.00787*%
%ADD52C,0.00394*%
%ADD53C,0.00197*%
D11*
X385396Y405252D02*
X391695D01*
X385396Y394228D02*
Y405252D01*
Y394228D02*
X391695D01*
Y405252D01*
X417916Y342109D02*
Y358644D01*
X410633Y342109D02*
X417916D01*
X410633D02*
Y358644D01*
X417916D01*
X353106Y339491D02*
Y378782D01*
Y339491D02*
X373421D01*
Y378782D01*
X353106D02*
X373421D01*
X396987Y375267D02*
X413013D01*
Y361881D02*
Y375267D01*
X396987Y361881D02*
X413013D01*
X396987D02*
Y375267D01*
X414850Y361988D02*
Y373012D01*
X421150D01*
Y361988D02*
Y373012D01*
X414850Y361988D02*
X421150D01*
X401949Y344077D02*
X408051D01*
Y358644D01*
X401949D02*
X408051D01*
X401949Y344077D02*
Y358644D01*
X378794Y376850D02*
Y383150D01*
Y376850D02*
X389817D01*
Y383150D01*
X378794D02*
X389817D01*
X377210Y364381D02*
Y371712D01*
Y364381D02*
X390620D01*
Y371712D01*
X377210D02*
X390620D01*
X420858Y358547D02*
X428142D01*
X420858Y342011D02*
Y358547D01*
Y342011D02*
X428142D01*
Y358547D01*
X393949Y358644D02*
X400051D01*
X393949Y344077D02*
Y358644D01*
Y344077D02*
X400051D01*
Y358644D01*
D52*
X373025Y394032D02*
Y397969D01*
X371056Y396000D02*
X374993D01*
X354031Y392015D02*
X357968D01*
X356000Y390046D02*
Y393983D01*
X341531Y402201D02*
X345468D01*
X343500Y400232D02*
Y404169D01*
X382337Y343811D02*
X386274D01*
X384306Y341842D02*
Y345779D01*
X425500Y390453D02*
Y394390D01*
X423532Y392421D02*
X427469D01*
X319500Y408032D02*
Y411969D01*
X317532Y410000D02*
X321469D01*
X339003Y366713D02*
Y370650D01*
X337035Y368681D02*
X340971D01*
X382337Y355397D02*
X386274D01*
X384306Y353429D02*
Y357366D01*
D53*
X362592Y406039D02*
X384245D01*
X362592Y385961D02*
X384245D01*
X362592D02*
Y406039D01*
X384245Y385961D02*
Y406039D01*
X361394Y386121D02*
Y402920D01*
X350606Y386121D02*
X361394D01*
X350606D02*
Y402920D01*
X361394D01*
X338185Y398854D02*
Y405547D01*
X348815Y398854D02*
Y405547D01*
X338185D02*
X348815D01*
X338185Y398854D02*
X348815D01*
X375841Y338692D02*
Y348929D01*
X392770Y338692D02*
Y348929D01*
X375841D02*
X392770D01*
X375841Y338692D02*
X392770D01*
X416051Y377461D02*
X462114D01*
X416051D02*
Y407382D01*
X462114D01*
Y377461D02*
Y407382D01*
X303161Y389607D02*
X335839D01*
X335838D02*
Y432637D01*
X303161Y389607D02*
Y432637D01*
X335838D01*
X302389Y383642D02*
X348452D01*
X348452Y353720D02*
Y383642D01*
X302389Y353720D02*
X348452D01*
X302389D02*
Y383642D01*
X375841Y350279D02*
Y360515D01*
X392770Y350279D02*
Y360515D01*
X375841D02*
X392770D01*
X375841Y350279D02*
X392770D01*
M02*
