G04*
G04 #@! TF.GenerationSoftware,Altium Limited,Altium Designer,25.8.1 (18)*
G04*
G04 Layer_Physical_Order=2*
G04 Layer_Color=16711680*
%FSLAX25Y25*%
%MOIN*%
G70*
G04*
G04 #@! TF.SameCoordinates,42E29172-AB17-4D01-AB3A-1E57205C25AC*
G04*
G04*
G04 #@! TF.FilePolarity,Positive*
G04*
G01*
G75*
%ADD34R,0.04724X0.04724*%
%ADD35C,0.04724*%
%ADD44C,0.02000*%
%ADD45R,0.05512X0.05512*%
%ADD46C,0.05512*%
%ADD47R,0.07087X0.07087*%
%ADD48C,0.07087*%
%ADD49C,0.02400*%
G36*
X133188Y106297D02*
X132964Y105909D01*
X131946Y103453D01*
X131258Y100886D01*
X130912Y98251D01*
Y95593D01*
X131258Y92958D01*
X131946Y90391D01*
X132964Y87935D01*
X134292Y85633D01*
X135910Y83525D01*
X137790Y81645D01*
X139899Y80027D01*
X142200Y78698D01*
X144656Y77681D01*
X147223Y76993D01*
X149858Y76646D01*
X152516D01*
X155151Y76993D01*
X157719Y77681D01*
X160174Y78698D01*
X160551Y78916D01*
X161417Y78416D01*
Y30731D01*
X160551Y30231D01*
X160175Y30448D01*
X157720Y31465D01*
X155153Y32153D01*
X152517Y32500D01*
X149860D01*
X147224Y32153D01*
X144657Y31465D01*
X142202Y30448D01*
X139900Y29119D01*
X137791Y27501D01*
X135912Y25621D01*
X134294Y23513D01*
X132965Y21211D01*
X131948Y18755D01*
X131260Y16188D01*
X130913Y13553D01*
Y10895D01*
X131260Y8260D01*
X131948Y5692D01*
X132965Y3237D01*
X133198Y2833D01*
X132698Y1967D01*
X30746D01*
X30246Y2833D01*
X30462Y3207D01*
X31479Y5662D01*
X32167Y8230D01*
X32514Y10865D01*
Y13522D01*
X32167Y16158D01*
X31479Y18725D01*
X30462Y21181D01*
X29133Y23482D01*
X27515Y25591D01*
X25636Y27470D01*
X23527Y29088D01*
X21225Y30417D01*
X18770Y31434D01*
X16202Y32122D01*
X13567Y32469D01*
X10909D01*
X8274Y32122D01*
X5707Y31434D01*
X3251Y30417D01*
X2835Y30177D01*
X1969Y30677D01*
Y107163D01*
X37174D01*
X37674Y106297D01*
X37454Y105916D01*
X36437Y103460D01*
X35749Y100893D01*
X35402Y98258D01*
Y95600D01*
X35749Y92965D01*
X36437Y90398D01*
X37454Y87942D01*
X38783Y85640D01*
X40401Y83532D01*
X42280Y81652D01*
X44389Y80034D01*
X46691Y78705D01*
X49146Y77688D01*
X51714Y77000D01*
X54349Y76653D01*
X57007D01*
X59642Y77000D01*
X62209Y77688D01*
X64665Y78705D01*
X66966Y80034D01*
X69075Y81652D01*
X70954Y83532D01*
X72572Y85640D01*
X73901Y87942D01*
X74918Y90398D01*
X75606Y92965D01*
X75953Y95600D01*
Y98258D01*
X75606Y100893D01*
X74918Y103460D01*
X73901Y105916D01*
X73681Y106297D01*
X74181Y107163D01*
X132688D01*
X133188Y106297D01*
D02*
G37*
%LPC*%
G36*
X25662Y100821D02*
X12669D01*
Y87829D01*
X25662D01*
Y100821D01*
D02*
G37*
G36*
X19763Y78868D02*
X18567D01*
X17412Y78558D01*
X16376Y77960D01*
X16306Y77891D01*
X17115Y77083D01*
X16407Y76376D01*
X15599Y77184D01*
X15530Y77114D01*
X14932Y76078D01*
X14622Y74923D01*
Y73727D01*
X14932Y72571D01*
X15530Y71535D01*
X15599Y71466D01*
X16407Y72274D01*
X17115Y71567D01*
X16306Y70759D01*
X16376Y70689D01*
X17412Y70091D01*
X18567Y69782D01*
X19763D01*
X20919Y70091D01*
X21955Y70689D01*
X22024Y70759D01*
X21216Y71567D01*
X21923Y72274D01*
X22731Y71466D01*
X22801Y71535D01*
X23399Y72571D01*
X23709Y73727D01*
Y74923D01*
X23399Y76078D01*
X22801Y77114D01*
X22731Y77184D01*
X21923Y76376D01*
X21216Y77083D01*
X22024Y77891D01*
X21955Y77960D01*
X20919Y78558D01*
X19763Y78868D01*
D02*
G37*
G36*
X125660Y75423D02*
X124671D01*
X123716Y75167D01*
X122864Y74676D01*
X123679Y73861D01*
X122971Y73154D01*
X122157Y73969D01*
X121666Y73117D01*
X121409Y72162D01*
Y71173D01*
X121666Y70218D01*
X122157Y69366D01*
X122971Y70181D01*
X123679Y69473D01*
X122864Y68659D01*
X123082Y68533D01*
X122814Y67533D01*
X119457D01*
Y56116D01*
X130874D01*
Y67533D01*
X127517D01*
X127249Y68533D01*
X127467Y68659D01*
X126652Y69473D01*
X127359Y70181D01*
X128174Y69366D01*
X128665Y70218D01*
X128921Y71173D01*
Y72162D01*
X128665Y73117D01*
X128174Y73969D01*
X127359Y73154D01*
X126652Y73861D01*
X127467Y74676D01*
X126615Y75167D01*
X125660Y75423D01*
D02*
G37*
G36*
X88711Y72499D02*
Y70825D01*
X90385D01*
X90076Y71571D01*
X89457Y72190D01*
X88711Y72499D01*
D02*
G37*
G36*
X87711D02*
X86965Y72190D01*
X86346Y71571D01*
X86037Y70825D01*
X87711D01*
Y72499D01*
D02*
G37*
G36*
X90385Y69825D02*
X88711D01*
Y68151D01*
X89457Y68460D01*
X90076Y69079D01*
X90385Y69825D01*
D02*
G37*
G36*
X87711D02*
X86037D01*
X86346Y69079D01*
X86965Y68460D01*
X87711Y68151D01*
Y69825D01*
D02*
G37*
G36*
X56165Y64513D02*
Y62839D01*
X57840D01*
X57530Y63586D01*
X56912Y64204D01*
X56165Y64513D01*
D02*
G37*
G36*
X55165D02*
X54419Y64204D01*
X53800Y63586D01*
X53491Y62839D01*
X55165D01*
Y64513D01*
D02*
G37*
G36*
X57840Y61839D02*
X56165D01*
Y60165D01*
X56912Y60474D01*
X57530Y61093D01*
X57840Y61839D01*
D02*
G37*
G36*
X55165D02*
X53491D01*
X53800Y61093D01*
X54419Y60474D01*
X55165Y60165D01*
Y61839D01*
D02*
G37*
G36*
X88211Y56499D02*
Y54825D01*
X89885D01*
X89576Y55571D01*
X88957Y56190D01*
X88211Y56499D01*
D02*
G37*
G36*
X87211D02*
X86465Y56190D01*
X85846Y55571D01*
X85537Y54825D01*
X87211D01*
Y56499D01*
D02*
G37*
G36*
X89885Y53825D02*
X88211D01*
Y52151D01*
X88957Y52460D01*
X89576Y53079D01*
X89885Y53825D01*
D02*
G37*
G36*
X87211D02*
X85537D01*
X85846Y53079D01*
X86465Y52460D01*
X87211Y52151D01*
Y53825D01*
D02*
G37*
G36*
X118165Y47739D02*
Y46065D01*
X119840D01*
X119530Y46811D01*
X118912Y47430D01*
X118165Y47739D01*
D02*
G37*
G36*
X117165D02*
X116419Y47430D01*
X115800Y46811D01*
X115491Y46065D01*
X117165D01*
Y47739D01*
D02*
G37*
G36*
X119840Y45065D02*
X118165D01*
Y43391D01*
X118912Y43700D01*
X119530Y44319D01*
X119840Y45065D01*
D02*
G37*
G36*
X117165D02*
X115491D01*
X115800Y44319D01*
X116419Y43700D01*
X117165Y43391D01*
Y45065D01*
D02*
G37*
G36*
X44377Y53636D02*
X32960D01*
Y42219D01*
X36317D01*
X36585Y41219D01*
X36367Y41093D01*
X37181Y40279D01*
X36474Y39571D01*
X35660Y40386D01*
X35168Y39534D01*
X34912Y38579D01*
Y37590D01*
X35168Y36635D01*
X35660Y35783D01*
X36474Y36598D01*
X37181Y35891D01*
X36367Y35076D01*
X37219Y34585D01*
X38174Y34329D01*
X39163D01*
X40118Y34585D01*
X40969Y35076D01*
X40155Y35891D01*
X40862Y36598D01*
X41677Y35783D01*
X42168Y36635D01*
X42424Y37590D01*
Y38579D01*
X42168Y39534D01*
X41677Y40386D01*
X40862Y39571D01*
X40155Y40279D01*
X40969Y41093D01*
X40752Y41219D01*
X41020Y42219D01*
X44377D01*
Y53636D01*
D02*
G37*
G36*
X99712Y58478D02*
X98619D01*
X97562Y58195D01*
X96615Y57648D01*
X95842Y56875D01*
X95296Y55928D01*
X95013Y54872D01*
Y53778D01*
X95179Y53159D01*
Y50981D01*
X93066Y48869D01*
X92432Y48043D01*
X92034Y47081D01*
X91898Y46049D01*
Y41163D01*
X92034Y40131D01*
X92432Y39169D01*
X93066Y38344D01*
X96196Y35213D01*
X97022Y34579D01*
X97983Y34181D01*
X99015Y34045D01*
X122975D01*
X123594Y33879D01*
X124688D01*
X125744Y34162D01*
X126691Y34709D01*
X127464Y35482D01*
X128011Y36429D01*
X128294Y37485D01*
Y38579D01*
X128011Y39635D01*
X127464Y40582D01*
X126691Y41355D01*
X125744Y41902D01*
X124688Y42185D01*
X123594D01*
X122975Y42019D01*
X102573D01*
X102319Y42399D01*
X100287D01*
X100077Y42609D01*
Y43399D01*
X102251D01*
X101942Y44145D01*
X101323Y44764D01*
X101143Y45669D01*
X101985Y46511D01*
X102618Y47337D01*
X103016Y48298D01*
X103152Y49330D01*
Y53159D01*
X103318Y53778D01*
Y54872D01*
X103035Y55928D01*
X102488Y56875D01*
X101715Y57648D01*
X100768Y58195D01*
X99712Y58478D01*
D02*
G37*
G36*
X105165Y32486D02*
Y30811D01*
X106840D01*
X106530Y31558D01*
X105912Y32177D01*
X105165Y32486D01*
D02*
G37*
G36*
X104165D02*
X103419Y32177D01*
X102800Y31558D01*
X102491Y30811D01*
X104165D01*
Y32486D01*
D02*
G37*
G36*
X106840Y29811D02*
X105165D01*
Y28137D01*
X105912Y28446D01*
X106530Y29065D01*
X106840Y29811D01*
D02*
G37*
G36*
X104165D02*
X102491D01*
X102800Y29065D01*
X103419Y28446D01*
X104165Y28137D01*
Y29811D01*
D02*
G37*
G36*
X114440Y21757D02*
Y20083D01*
X116114D01*
X115805Y20829D01*
X115186Y21448D01*
X114440Y21757D01*
D02*
G37*
G36*
X113440D02*
X112694Y21448D01*
X112075Y20829D01*
X111766Y20083D01*
X113440D01*
Y21757D01*
D02*
G37*
G36*
X80731Y20310D02*
Y18636D01*
X82405D01*
X82096Y19382D01*
X81477Y20001D01*
X80731Y20310D01*
D02*
G37*
G36*
X79731D02*
X78985Y20001D01*
X78366Y19382D01*
X78057Y18636D01*
X79731D01*
Y20310D01*
D02*
G37*
G36*
X63648Y48776D02*
X62249D01*
X60897Y48414D01*
X59685Y47714D01*
X58696Y46725D01*
X57996Y45513D01*
X57634Y44161D01*
Y42762D01*
X57996Y41410D01*
X58696Y40198D01*
X59685Y39208D01*
X59979Y39039D01*
Y37884D01*
X59685Y37714D01*
X58696Y36725D01*
X57996Y35513D01*
X57634Y34161D01*
Y32762D01*
X57996Y31410D01*
X58696Y30198D01*
X59117Y29776D01*
X58703Y28776D01*
X57634D01*
Y18146D01*
X68264D01*
Y28776D01*
X67194D01*
X66780Y29776D01*
X67202Y30198D01*
X67901Y31410D01*
X68264Y32762D01*
Y34161D01*
X67901Y35513D01*
X67202Y36725D01*
X66212Y37714D01*
X65918Y37884D01*
Y39039D01*
X66212Y39208D01*
X67202Y40198D01*
X67901Y41410D01*
X68264Y42762D01*
Y44161D01*
X67901Y45513D01*
X67202Y46725D01*
X66212Y47714D01*
X65000Y48414D01*
X63648Y48776D01*
D02*
G37*
G36*
X116114Y19083D02*
X114440D01*
Y17409D01*
X115186Y17718D01*
X115805Y18337D01*
X116114Y19083D01*
D02*
G37*
G36*
X113440D02*
X111766D01*
X112075Y18337D01*
X112694Y17718D01*
X113440Y17409D01*
Y19083D01*
D02*
G37*
G36*
X82405Y17636D02*
X80731D01*
Y15961D01*
X81477Y16271D01*
X82096Y16889D01*
X82405Y17636D01*
D02*
G37*
G36*
X79731D02*
X78057D01*
X78366Y16889D01*
X78985Y16271D01*
X79731Y15961D01*
Y17636D01*
D02*
G37*
%LPD*%
D34*
X62949Y23461D02*
D03*
D35*
Y33461D02*
D03*
Y43461D02*
D03*
D44*
X99015Y38032D02*
X124141D01*
X95885Y41163D02*
X99015Y38032D01*
X95885Y41163D02*
Y46049D01*
X99165Y49330D01*
Y54325D01*
D45*
X125165Y61825D02*
D03*
X38668Y47927D02*
D03*
D46*
X125165Y71667D02*
D03*
X38668Y38085D02*
D03*
D47*
X19165Y94325D02*
D03*
D48*
Y74325D02*
D03*
D49*
X80231Y18136D02*
D03*
X72035Y5325D02*
D03*
X124141Y38032D02*
D03*
X117665Y45565D02*
D03*
X124115Y52179D02*
D03*
X113940Y19583D02*
D03*
X149446Y53851D02*
D03*
Y73536D02*
D03*
Y35431D02*
D03*
X132965Y26670D02*
D03*
X110076Y103063D02*
D03*
Y83378D02*
D03*
X129761D02*
D03*
Y103063D02*
D03*
X90391D02*
D03*
Y83378D02*
D03*
X6069Y103063D02*
D03*
Y44008D02*
D03*
Y63693D02*
D03*
X25754Y103063D02*
D03*
X6069Y83378D02*
D03*
X99165Y63693D02*
D03*
X88211Y70325D02*
D03*
X75484Y85640D02*
D03*
X55665Y62339D02*
D03*
X87711Y54325D02*
D03*
X100077Y42899D02*
D03*
X99165Y54325D02*
D03*
X69845Y38490D02*
D03*
X31518Y62597D02*
D03*
X34049Y5325D02*
D03*
X129373D02*
D03*
X104665Y30311D02*
D03*
X91720Y5325D02*
D03*
X111405D02*
D03*
X37454Y84322D02*
D03*
X52350Y5325D02*
D03*
X27014Y30752D02*
D03*
M02*
