G04*
G04 #@! TF.GenerationSoftware,Altium Limited,Altium Designer,25.8.1 (18)*
G04*
G04 Layer_Color=16711935*
%FSLAX25Y25*%
%MOIN*%
G70*
G04*
G04 #@! TF.SameCoordinates,42E29172-AB17-4D01-AB3A-1E57205C25AC*
G04*
G04*
G04 #@! TF.FilePolarity,Positive*
G04*
G01*
G75*
%ADD11C,0.00787*%
G36*
X74313Y35641D02*
X73483D01*
Y33419D01*
X73150D01*
Y35641D01*
X72320D01*
Y35939D01*
X74313D01*
Y35641D01*
D02*
G37*
G36*
X68515Y35936D02*
X68577Y35933D01*
X68640Y35928D01*
X68700Y35923D01*
X68730Y35920D01*
X68755Y35914D01*
X68758D01*
X68763Y35912D01*
X68774D01*
X68785Y35909D01*
X68801Y35903D01*
X68821Y35901D01*
X68864Y35887D01*
X68913Y35871D01*
X68965Y35849D01*
X69017Y35824D01*
X69066Y35794D01*
X69069D01*
X69072Y35792D01*
X69088Y35778D01*
X69110Y35759D01*
X69140Y35731D01*
X69170Y35699D01*
X69205Y35655D01*
X69238Y35609D01*
X69268Y35551D01*
Y35548D01*
X69271Y35543D01*
X69276Y35535D01*
X69282Y35524D01*
X69287Y35510D01*
X69293Y35491D01*
X69309Y35450D01*
X69323Y35398D01*
X69336Y35341D01*
X69345Y35276D01*
X69347Y35207D01*
Y35204D01*
Y35194D01*
Y35177D01*
X69345Y35153D01*
X69342Y35125D01*
X69336Y35095D01*
X69331Y35060D01*
X69323Y35019D01*
X69312Y34978D01*
X69298Y34934D01*
X69282Y34891D01*
X69260Y34844D01*
X69238Y34798D01*
X69211Y34751D01*
X69178Y34708D01*
X69143Y34664D01*
X69140Y34661D01*
X69132Y34656D01*
X69121Y34645D01*
X69102Y34628D01*
X69080Y34612D01*
X69050Y34593D01*
X69014Y34574D01*
X68973Y34555D01*
X68924Y34533D01*
X68872Y34514D01*
X68810Y34495D01*
X68744Y34478D01*
X68668Y34465D01*
X68586Y34454D01*
X68498Y34446D01*
X68400Y34443D01*
X67756D01*
Y33419D01*
X67423D01*
Y35939D01*
X68460D01*
X68515Y35936D01*
D02*
G37*
G36*
X64130D02*
X64160D01*
X64196Y35933D01*
X64237Y35931D01*
X64319Y35923D01*
X64403Y35909D01*
X64485Y35893D01*
X64521Y35882D01*
X64556Y35871D01*
X64559D01*
X64564Y35868D01*
X64573Y35862D01*
X64586Y35857D01*
X64619Y35841D01*
X64657Y35816D01*
X64704Y35783D01*
X64750Y35740D01*
X64797Y35691D01*
X64837Y35630D01*
Y35628D01*
X64843Y35622D01*
X64848Y35614D01*
X64854Y35600D01*
X64862Y35584D01*
X64870Y35565D01*
X64881Y35543D01*
X64892Y35519D01*
X64911Y35461D01*
X64928Y35398D01*
X64938Y35327D01*
X64944Y35251D01*
Y35248D01*
Y35240D01*
Y35224D01*
X64941Y35207D01*
X64938Y35183D01*
X64936Y35155D01*
X64930Y35125D01*
X64922Y35093D01*
X64900Y35022D01*
X64886Y34983D01*
X64870Y34945D01*
X64851Y34907D01*
X64827Y34869D01*
X64799Y34833D01*
X64769Y34798D01*
X64766Y34795D01*
X64761Y34790D01*
X64750Y34781D01*
X64736Y34768D01*
X64717Y34754D01*
X64696Y34738D01*
X64668Y34719D01*
X64635Y34699D01*
X64600Y34680D01*
X64562Y34661D01*
X64518Y34642D01*
X64469Y34623D01*
X64417Y34607D01*
X64360Y34590D01*
X64297Y34577D01*
X64231Y34566D01*
X64234D01*
X64237Y34563D01*
X64253Y34555D01*
X64278Y34541D01*
X64308Y34525D01*
X64341Y34506D01*
X64373Y34486D01*
X64406Y34462D01*
X64433Y34440D01*
X64436Y34437D01*
X64439Y34435D01*
X64447Y34427D01*
X64458Y34416D01*
X64472Y34402D01*
X64488Y34385D01*
X64524Y34347D01*
X64564Y34298D01*
X64611Y34241D01*
X64660Y34175D01*
X64709Y34104D01*
X65146Y33419D01*
X64728D01*
X64395Y33943D01*
X64392Y33946D01*
X64390Y33954D01*
X64381Y33965D01*
X64371Y33981D01*
X64360Y34001D01*
X64343Y34022D01*
X64310Y34072D01*
X64272Y34129D01*
X64234Y34186D01*
X64193Y34241D01*
X64155Y34290D01*
Y34293D01*
X64149Y34295D01*
X64139Y34309D01*
X64122Y34331D01*
X64098Y34356D01*
X64073Y34383D01*
X64043Y34410D01*
X64013Y34437D01*
X63986Y34457D01*
X63983Y34459D01*
X63972Y34465D01*
X63958Y34473D01*
X63939Y34484D01*
X63915Y34495D01*
X63890Y34506D01*
X63863Y34517D01*
X63833Y34525D01*
X63830D01*
X63822Y34528D01*
X63808Y34530D01*
X63789Y34533D01*
X63762D01*
X63729Y34536D01*
X63691Y34538D01*
X63262D01*
Y33419D01*
X62929D01*
Y35939D01*
X64100D01*
X64130Y35936D01*
D02*
G37*
G36*
X70934Y35980D02*
X70966Y35977D01*
X71002Y35974D01*
X71040Y35969D01*
X71084Y35961D01*
X71133Y35952D01*
X71182Y35942D01*
X71234Y35928D01*
X71288Y35912D01*
X71343Y35893D01*
X71398Y35871D01*
X71450Y35846D01*
X71504Y35816D01*
X71507Y35813D01*
X71518Y35808D01*
X71531Y35800D01*
X71551Y35786D01*
X71575Y35770D01*
X71600Y35748D01*
X71630Y35723D01*
X71662Y35696D01*
X71698Y35663D01*
X71733Y35628D01*
X71769Y35589D01*
X71804Y35548D01*
X71837Y35505D01*
X71873Y35456D01*
X71903Y35404D01*
X71933Y35349D01*
X71935Y35346D01*
X71938Y35336D01*
X71946Y35319D01*
X71955Y35297D01*
X71968Y35270D01*
X71979Y35235D01*
X71993Y35196D01*
X72006Y35153D01*
X72020Y35106D01*
X72034Y35054D01*
X72047Y34997D01*
X72058Y34940D01*
X72066Y34877D01*
X72075Y34811D01*
X72077Y34746D01*
X72080Y34675D01*
Y34669D01*
Y34659D01*
Y34637D01*
X72077Y34609D01*
X72075Y34577D01*
X72072Y34538D01*
X72066Y34495D01*
X72061Y34446D01*
X72053Y34394D01*
X72042Y34339D01*
X72031Y34282D01*
X72015Y34225D01*
X71996Y34164D01*
X71976Y34107D01*
X71952Y34047D01*
X71925Y33990D01*
X71922Y33987D01*
X71916Y33976D01*
X71908Y33960D01*
X71897Y33941D01*
X71881Y33916D01*
X71862Y33886D01*
X71837Y33853D01*
X71813Y33818D01*
X71782Y33782D01*
X71750Y33744D01*
X71711Y33706D01*
X71673Y33667D01*
X71632Y33632D01*
X71586Y33597D01*
X71537Y33561D01*
X71485Y33531D01*
X71482Y33528D01*
X71471Y33526D01*
X71458Y33517D01*
X71436Y33507D01*
X71408Y33496D01*
X71378Y33482D01*
X71343Y33468D01*
X71302Y33455D01*
X71258Y33441D01*
X71212Y33427D01*
X71160Y33414D01*
X71108Y33403D01*
X70994Y33384D01*
X70934Y33381D01*
X70873Y33378D01*
X70838D01*
X70813Y33381D01*
X70783Y33384D01*
X70745Y33386D01*
X70707Y33392D01*
X70661Y33400D01*
X70614Y33408D01*
X70562Y33419D01*
X70510Y33433D01*
X70456Y33449D01*
X70401Y33468D01*
X70347Y33493D01*
X70292Y33517D01*
X70237Y33547D01*
X70235Y33550D01*
X70226Y33556D01*
X70210Y33566D01*
X70191Y33580D01*
X70169Y33597D01*
X70142Y33618D01*
X70112Y33643D01*
X70079Y33670D01*
X70043Y33703D01*
X70011Y33738D01*
X69975Y33777D01*
X69940Y33818D01*
X69904Y33864D01*
X69871Y33911D01*
X69841Y33962D01*
X69811Y34017D01*
X69809Y34020D01*
X69806Y34031D01*
X69798Y34047D01*
X69790Y34069D01*
X69779Y34096D01*
X69768Y34129D01*
X69754Y34164D01*
X69740Y34208D01*
X69727Y34252D01*
X69713Y34301D01*
X69702Y34353D01*
X69691Y34407D01*
X69675Y34522D01*
X69672Y34585D01*
X69670Y34645D01*
Y34648D01*
Y34653D01*
Y34661D01*
Y34672D01*
X69672Y34688D01*
Y34705D01*
X69675Y34749D01*
X69680Y34800D01*
X69689Y34863D01*
X69697Y34929D01*
X69710Y35002D01*
X69730Y35082D01*
X69751Y35161D01*
X69779Y35243D01*
X69811Y35325D01*
X69850Y35407D01*
X69893Y35483D01*
X69945Y35559D01*
X70005Y35628D01*
X70008Y35630D01*
X70022Y35644D01*
X70041Y35660D01*
X70065Y35682D01*
X70101Y35710D01*
X70139Y35740D01*
X70186Y35772D01*
X70240Y35805D01*
X70300Y35838D01*
X70366Y35871D01*
X70437Y35901D01*
X70516Y35928D01*
X70598Y35950D01*
X70685Y35966D01*
X70778Y35980D01*
X70876Y35983D01*
X70909D01*
X70934Y35980D01*
D02*
G37*
G36*
X67191Y32720D02*
X65140D01*
Y32944D01*
X67191D01*
Y32720D01*
D02*
G37*
G36*
X116967Y53998D02*
X114998D01*
X115004Y53992D01*
X115017Y53979D01*
X115036Y53954D01*
X115064Y53919D01*
X115096Y53878D01*
X115132Y53826D01*
X115170Y53769D01*
X115211Y53703D01*
Y53700D01*
X115217Y53695D01*
X115222Y53687D01*
X115228Y53673D01*
X115238Y53657D01*
X115247Y53637D01*
X115271Y53594D01*
X115296Y53545D01*
X115323Y53490D01*
X115348Y53433D01*
X115369Y53378D01*
X115072D01*
X115069Y53381D01*
X115067Y53389D01*
X115058Y53403D01*
X115050Y53422D01*
X115039Y53444D01*
X115023Y53471D01*
X115006Y53501D01*
X114990Y53531D01*
X114946Y53602D01*
X114894Y53679D01*
X114840Y53758D01*
X114777Y53831D01*
X114774Y53834D01*
X114769Y53839D01*
X114761Y53851D01*
X114747Y53864D01*
X114731Y53878D01*
X114714Y53897D01*
X114668Y53938D01*
X114619Y53984D01*
X114561Y54031D01*
X114501Y54072D01*
X114439Y54107D01*
Y54306D01*
X116967D01*
Y53998D01*
D02*
G37*
G36*
Y51295D02*
X114447D01*
Y51628D01*
X116669D01*
Y52870D01*
X116967D01*
Y51295D01*
D02*
G37*
G36*
X115233Y50883D02*
X115260Y50880D01*
X115290Y50875D01*
X115326Y50869D01*
X115367Y50861D01*
X115408Y50850D01*
X115451Y50836D01*
X115495Y50820D01*
X115542Y50798D01*
X115588Y50776D01*
X115634Y50749D01*
X115678Y50716D01*
X115722Y50681D01*
X115724Y50678D01*
X115730Y50670D01*
X115741Y50659D01*
X115757Y50640D01*
X115774Y50618D01*
X115793Y50588D01*
X115812Y50553D01*
X115831Y50512D01*
X115853Y50463D01*
X115872Y50411D01*
X115891Y50348D01*
X115907Y50282D01*
X115921Y50206D01*
X115932Y50124D01*
X115940Y50037D01*
X115943Y49938D01*
Y49294D01*
X116967D01*
Y48961D01*
X114447D01*
Y49998D01*
X114450Y50053D01*
X114452Y50116D01*
X114458Y50179D01*
X114463Y50239D01*
X114466Y50269D01*
X114471Y50293D01*
Y50296D01*
X114474Y50301D01*
Y50312D01*
X114477Y50323D01*
X114482Y50340D01*
X114485Y50359D01*
X114499Y50402D01*
X114515Y50452D01*
X114537Y50503D01*
X114561Y50555D01*
X114592Y50604D01*
Y50607D01*
X114594Y50610D01*
X114608Y50626D01*
X114627Y50648D01*
X114654Y50678D01*
X114687Y50708D01*
X114731Y50744D01*
X114777Y50776D01*
X114834Y50806D01*
X114837D01*
X114843Y50809D01*
X114851Y50815D01*
X114862Y50820D01*
X114875Y50826D01*
X114894Y50831D01*
X114935Y50847D01*
X114987Y50861D01*
X115045Y50875D01*
X115110Y50883D01*
X115178Y50886D01*
X115181D01*
X115192D01*
X115208D01*
X115233Y50883D01*
D02*
G37*
G36*
X115768Y48500D02*
X115798D01*
X115831Y48497D01*
X115866Y48494D01*
X115946Y48486D01*
X116030Y48472D01*
X116118Y48456D01*
X116205Y48434D01*
X116208D01*
X116216Y48431D01*
X116227Y48426D01*
X116240Y48423D01*
X116260Y48415D01*
X116281Y48407D01*
X116333Y48388D01*
X116391Y48363D01*
X116453Y48333D01*
X116513Y48300D01*
X116571Y48262D01*
X116574D01*
X116576Y48257D01*
X116584Y48251D01*
X116595Y48243D01*
X116620Y48224D01*
X116653Y48194D01*
X116691Y48161D01*
X116729Y48123D01*
X116765Y48079D01*
X116800Y48033D01*
Y48030D01*
X116803Y48027D01*
X116814Y48011D01*
X116827Y47984D01*
X116847Y47948D01*
X116866Y47905D01*
X116887Y47853D01*
X116906Y47793D01*
X116926Y47730D01*
Y47727D01*
X116928Y47722D01*
Y47713D01*
X116931Y47700D01*
X116934Y47683D01*
X116939Y47662D01*
X116942Y47640D01*
X116945Y47615D01*
X116953Y47555D01*
X116961Y47487D01*
X116964Y47410D01*
X116967Y47328D01*
Y46419D01*
X114447D01*
Y47359D01*
X114450Y47386D01*
Y47419D01*
X114452Y47451D01*
X114455Y47525D01*
X114463Y47599D01*
X114471Y47673D01*
X114479Y47705D01*
X114485Y47735D01*
Y47738D01*
X114488Y47746D01*
X114490Y47757D01*
X114496Y47771D01*
X114501Y47790D01*
X114507Y47812D01*
X114526Y47864D01*
X114550Y47921D01*
X114581Y47981D01*
X114619Y48044D01*
X114665Y48104D01*
X114668Y48107D01*
X114673Y48112D01*
X114682Y48123D01*
X114695Y48137D01*
X114712Y48153D01*
X114733Y48172D01*
X114755Y48194D01*
X114783Y48216D01*
X114813Y48240D01*
X114845Y48265D01*
X114881Y48289D01*
X114919Y48314D01*
X115004Y48360D01*
X115096Y48401D01*
X115099D01*
X115107Y48407D01*
X115124Y48410D01*
X115143Y48418D01*
X115167Y48426D01*
X115198Y48434D01*
X115230Y48442D01*
X115269Y48453D01*
X115312Y48461D01*
X115359Y48470D01*
X115408Y48478D01*
X115460Y48486D01*
X115514Y48494D01*
X115571Y48497D01*
X115694Y48502D01*
X115697D01*
X115708D01*
X115722D01*
X115744D01*
X115768Y48500D01*
D02*
G37*
G36*
X117666Y44137D02*
X117442D01*
Y46187D01*
X117666D01*
Y44137D01*
D02*
G37*
G36*
X116186Y44047D02*
X116205Y44042D01*
X116235Y44031D01*
X116268Y44020D01*
X116309Y44003D01*
X116352Y43987D01*
X116399Y43965D01*
X116451Y43941D01*
X116500Y43913D01*
X116554Y43883D01*
X116606Y43848D01*
X116655Y43810D01*
X116704Y43769D01*
X116751Y43722D01*
X116795Y43673D01*
X116797Y43670D01*
X116803Y43659D01*
X116814Y43646D01*
X116827Y43624D01*
X116844Y43599D01*
X116863Y43567D01*
X116882Y43531D01*
X116901Y43487D01*
X116920Y43441D01*
X116939Y43392D01*
X116958Y43337D01*
X116975Y43277D01*
X116988Y43214D01*
X116999Y43149D01*
X117005Y43081D01*
X117008Y43007D01*
Y42969D01*
X117005Y42939D01*
X117002Y42906D01*
X116999Y42865D01*
X116994Y42821D01*
X116986Y42772D01*
X116978Y42720D01*
X116967Y42666D01*
X116953Y42611D01*
X116939Y42556D01*
X116920Y42499D01*
X116898Y42445D01*
X116874Y42393D01*
X116844Y42344D01*
X116841Y42341D01*
X116835Y42333D01*
X116827Y42319D01*
X116814Y42303D01*
X116795Y42281D01*
X116776Y42256D01*
X116751Y42229D01*
X116721Y42199D01*
X116688Y42169D01*
X116653Y42136D01*
X116614Y42106D01*
X116571Y42073D01*
X116524Y42041D01*
X116475Y42010D01*
X116421Y41983D01*
X116363Y41956D01*
X116360Y41953D01*
X116350Y41950D01*
X116331Y41945D01*
X116309Y41937D01*
X116279Y41926D01*
X116246Y41915D01*
X116205Y41904D01*
X116161Y41890D01*
X116112Y41879D01*
X116060Y41866D01*
X116006Y41855D01*
X115946Y41847D01*
X115820Y41830D01*
X115754Y41827D01*
X115689Y41825D01*
X115683D01*
X115673D01*
X115651D01*
X115623Y41827D01*
X115588Y41830D01*
X115547Y41833D01*
X115503Y41838D01*
X115454Y41844D01*
X115402Y41852D01*
X115348Y41860D01*
X115230Y41888D01*
X115173Y41907D01*
X115116Y41926D01*
X115056Y41948D01*
X115001Y41975D01*
X114998Y41978D01*
X114987Y41983D01*
X114974Y41991D01*
X114952Y42002D01*
X114927Y42019D01*
X114900Y42038D01*
X114870Y42060D01*
X114834Y42084D01*
X114802Y42114D01*
X114763Y42144D01*
X114728Y42180D01*
X114690Y42218D01*
X114654Y42259D01*
X114619Y42303D01*
X114586Y42352D01*
X114556Y42401D01*
X114553Y42404D01*
X114550Y42415D01*
X114542Y42428D01*
X114531Y42450D01*
X114521Y42474D01*
X114507Y42507D01*
X114493Y42543D01*
X114479Y42581D01*
X114466Y42625D01*
X114452Y42674D01*
X114439Y42723D01*
X114428Y42778D01*
X114409Y42889D01*
X114406Y42950D01*
X114403Y43012D01*
Y43048D01*
X114406Y43075D01*
X114409Y43108D01*
X114414Y43146D01*
X114419Y43187D01*
X114428Y43233D01*
X114439Y43283D01*
X114450Y43334D01*
X114466Y43386D01*
X114485Y43441D01*
X114507Y43496D01*
X114534Y43547D01*
X114561Y43599D01*
X114597Y43648D01*
X114600Y43651D01*
X114605Y43659D01*
X114616Y43673D01*
X114632Y43689D01*
X114652Y43711D01*
X114676Y43736D01*
X114703Y43760D01*
X114736Y43790D01*
X114772Y43820D01*
X114813Y43850D01*
X114856Y43881D01*
X114905Y43908D01*
X114957Y43938D01*
X115015Y43962D01*
X115075Y43987D01*
X115138Y44009D01*
X115214Y43681D01*
X115211D01*
X115203Y43676D01*
X115187Y43673D01*
X115167Y43665D01*
X115146Y43657D01*
X115121Y43643D01*
X115061Y43616D01*
X114996Y43580D01*
X114927Y43534D01*
X114865Y43485D01*
X114837Y43455D01*
X114813Y43425D01*
X114810Y43422D01*
X114807Y43416D01*
X114802Y43408D01*
X114794Y43395D01*
X114783Y43378D01*
X114772Y43359D01*
X114761Y43337D01*
X114750Y43310D01*
X114739Y43280D01*
X114728Y43250D01*
X114706Y43179D01*
X114692Y43097D01*
X114687Y43053D01*
Y42980D01*
X114690Y42958D01*
X114692Y42933D01*
X114695Y42903D01*
X114698Y42870D01*
X114703Y42838D01*
X114723Y42759D01*
X114747Y42677D01*
X114763Y42636D01*
X114783Y42595D01*
X114804Y42556D01*
X114829Y42518D01*
X114832Y42516D01*
X114834Y42510D01*
X114843Y42499D01*
X114854Y42485D01*
X114867Y42472D01*
X114886Y42453D01*
X114905Y42434D01*
X114927Y42412D01*
X114955Y42390D01*
X114982Y42365D01*
X115045Y42322D01*
X115118Y42281D01*
X115203Y42245D01*
X115206D01*
X115214Y42243D01*
X115228Y42237D01*
X115244Y42234D01*
X115266Y42229D01*
X115290Y42221D01*
X115320Y42215D01*
X115350Y42207D01*
X115386Y42199D01*
X115424Y42193D01*
X115506Y42180D01*
X115593Y42171D01*
X115686Y42169D01*
X115689D01*
X115700D01*
X115716D01*
X115741Y42171D01*
X115768D01*
X115801Y42174D01*
X115836Y42177D01*
X115877Y42180D01*
X115921Y42185D01*
X115965Y42191D01*
X116060Y42207D01*
X116156Y42232D01*
X116249Y42262D01*
X116251D01*
X116260Y42267D01*
X116270Y42272D01*
X116287Y42278D01*
X116309Y42289D01*
X116331Y42303D01*
X116382Y42333D01*
X116442Y42373D01*
X116500Y42423D01*
X116557Y42483D01*
X116582Y42516D01*
X116606Y42551D01*
Y42554D01*
X116612Y42559D01*
X116617Y42570D01*
X116625Y42586D01*
X116633Y42606D01*
X116644Y42627D01*
X116653Y42652D01*
X116664Y42679D01*
X116685Y42742D01*
X116704Y42816D01*
X116718Y42895D01*
X116721Y42936D01*
X116724Y42980D01*
Y43007D01*
X116721Y43026D01*
X116718Y43051D01*
X116715Y43078D01*
X116710Y43111D01*
X116704Y43143D01*
X116685Y43220D01*
X116672Y43258D01*
X116655Y43299D01*
X116636Y43340D01*
X116614Y43378D01*
X116590Y43416D01*
X116562Y43455D01*
X116560Y43457D01*
X116554Y43463D01*
X116546Y43474D01*
X116533Y43487D01*
X116516Y43501D01*
X116494Y43520D01*
X116470Y43539D01*
X116442Y43561D01*
X116410Y43583D01*
X116374Y43605D01*
X116336Y43627D01*
X116292Y43648D01*
X116246Y43668D01*
X116194Y43687D01*
X116139Y43706D01*
X116082Y43719D01*
X116167Y44052D01*
X116172D01*
X116186Y44047D01*
D02*
G37*
G36*
X99884Y24514D02*
X99881Y24484D01*
Y24454D01*
X99879Y24419D01*
X99876Y24378D01*
X99868Y24296D01*
X99854Y24211D01*
X99838Y24129D01*
X99827Y24094D01*
X99816Y24058D01*
Y24056D01*
X99813Y24050D01*
X99808Y24042D01*
X99802Y24028D01*
X99786Y23996D01*
X99761Y23957D01*
X99728Y23911D01*
X99685Y23865D01*
X99636Y23818D01*
X99576Y23777D01*
X99573D01*
X99567Y23772D01*
X99559Y23766D01*
X99546Y23761D01*
X99529Y23753D01*
X99510Y23744D01*
X99488Y23733D01*
X99464Y23723D01*
X99406Y23703D01*
X99344Y23687D01*
X99273Y23676D01*
X99196Y23671D01*
X99193D01*
X99185D01*
X99169D01*
X99152Y23673D01*
X99128Y23676D01*
X99101Y23679D01*
X99071Y23684D01*
X99038Y23693D01*
X98967Y23714D01*
X98928Y23728D01*
X98890Y23744D01*
X98852Y23764D01*
X98814Y23788D01*
X98778Y23815D01*
X98743Y23845D01*
X98740Y23848D01*
X98735Y23854D01*
X98726Y23865D01*
X98713Y23878D01*
X98699Y23897D01*
X98683Y23919D01*
X98664Y23946D01*
X98645Y23979D01*
X98625Y24015D01*
X98606Y24053D01*
X98587Y24097D01*
X98568Y24146D01*
X98552Y24198D01*
X98535Y24255D01*
X98522Y24318D01*
X98511Y24383D01*
Y24381D01*
X98508Y24378D01*
X98500Y24361D01*
X98486Y24337D01*
X98470Y24307D01*
X98451Y24274D01*
X98432Y24241D01*
X98407Y24208D01*
X98385Y24181D01*
X98383Y24179D01*
X98380Y24176D01*
X98372Y24168D01*
X98361Y24157D01*
X98347Y24143D01*
X98331Y24127D01*
X98292Y24091D01*
X98243Y24050D01*
X98186Y24004D01*
X98120Y23955D01*
X98049Y23905D01*
X97364Y23469D01*
Y23886D01*
X97888Y24219D01*
X97891Y24222D01*
X97899Y24225D01*
X97910Y24233D01*
X97927Y24244D01*
X97946Y24255D01*
X97968Y24271D01*
X98017Y24304D01*
X98074Y24342D01*
X98131Y24381D01*
X98186Y24421D01*
X98235Y24460D01*
X98238D01*
X98241Y24465D01*
X98254Y24476D01*
X98276Y24492D01*
X98301Y24517D01*
X98328Y24542D01*
X98355Y24572D01*
X98383Y24602D01*
X98402Y24629D01*
X98404Y24632D01*
X98410Y24643D01*
X98418Y24656D01*
X98429Y24675D01*
X98440Y24700D01*
X98451Y24724D01*
X98462Y24752D01*
X98470Y24782D01*
Y24784D01*
X98473Y24793D01*
X98475Y24806D01*
X98478Y24825D01*
Y24853D01*
X98481Y24885D01*
X98484Y24924D01*
Y25352D01*
X97364D01*
Y25685D01*
X99884D01*
Y24514D01*
D02*
G37*
G36*
X96889Y21424D02*
X96665D01*
Y23474D01*
X96889D01*
Y21424D01*
D02*
G37*
G36*
X98202Y20987D02*
X98200D01*
X98194D01*
X98183Y20984D01*
X98170Y20982D01*
X98153Y20979D01*
X98137Y20976D01*
X98090Y20965D01*
X98041Y20952D01*
X97989Y20935D01*
X97938Y20913D01*
X97888Y20886D01*
X97883Y20883D01*
X97869Y20870D01*
X97847Y20851D01*
X97820Y20823D01*
X97787Y20788D01*
X97757Y20744D01*
X97725Y20692D01*
X97695Y20632D01*
Y20629D01*
X97692Y20624D01*
X97689Y20616D01*
X97684Y20602D01*
X97678Y20586D01*
X97670Y20567D01*
X97664Y20545D01*
X97659Y20520D01*
X97645Y20463D01*
X97632Y20395D01*
X97624Y20324D01*
X97621Y20245D01*
Y20212D01*
X97624Y20195D01*
Y20176D01*
X97629Y20133D01*
X97635Y20081D01*
X97643Y20023D01*
X97656Y19966D01*
X97676Y19911D01*
Y19909D01*
X97678Y19906D01*
X97681Y19898D01*
X97686Y19887D01*
X97700Y19862D01*
X97716Y19830D01*
X97738Y19794D01*
X97765Y19756D01*
X97796Y19723D01*
X97831Y19693D01*
X97837Y19690D01*
X97847Y19682D01*
X97869Y19669D01*
X97897Y19655D01*
X97929Y19644D01*
X97965Y19630D01*
X98006Y19622D01*
X98047Y19619D01*
X98049D01*
X98052D01*
X98066D01*
X98090Y19622D01*
X98118Y19627D01*
X98150Y19636D01*
X98186Y19649D01*
X98221Y19666D01*
X98254Y19690D01*
X98257Y19693D01*
X98268Y19704D01*
X98284Y19720D01*
X98306Y19745D01*
X98328Y19775D01*
X98352Y19816D01*
X98377Y19862D01*
X98402Y19917D01*
X98404Y19922D01*
X98407Y19928D01*
X98410Y19939D01*
X98413Y19950D01*
X98418Y19966D01*
X98426Y19988D01*
X98432Y20010D01*
X98440Y20040D01*
X98451Y20070D01*
X98459Y20108D01*
X98470Y20149D01*
X98484Y20195D01*
X98494Y20245D01*
X98511Y20302D01*
X98524Y20365D01*
Y20367D01*
X98527Y20378D01*
X98533Y20397D01*
X98538Y20419D01*
X98546Y20449D01*
X98554Y20482D01*
X98565Y20515D01*
X98576Y20553D01*
X98601Y20635D01*
X98628Y20714D01*
X98642Y20752D01*
X98655Y20788D01*
X98669Y20821D01*
X98683Y20848D01*
Y20851D01*
X98688Y20856D01*
X98694Y20864D01*
X98699Y20878D01*
X98718Y20911D01*
X98746Y20949D01*
X98781Y20995D01*
X98819Y21039D01*
X98866Y21083D01*
X98915Y21118D01*
X98918D01*
X98920Y21121D01*
X98928Y21126D01*
X98939Y21132D01*
X98970Y21145D01*
X99008Y21162D01*
X99054Y21178D01*
X99109Y21192D01*
X99169Y21203D01*
X99232Y21205D01*
X99234D01*
X99240D01*
X99251D01*
X99264Y21203D01*
X99281D01*
X99300Y21200D01*
X99349Y21192D01*
X99404Y21178D01*
X99461Y21162D01*
X99524Y21135D01*
X99586Y21099D01*
X99589D01*
X99595Y21094D01*
X99603Y21088D01*
X99614Y21080D01*
X99644Y21053D01*
X99682Y21017D01*
X99723Y20973D01*
X99764Y20919D01*
X99805Y20856D01*
X99840Y20782D01*
Y20780D01*
X99843Y20774D01*
X99849Y20761D01*
X99854Y20747D01*
X99859Y20728D01*
X99868Y20703D01*
X99876Y20676D01*
X99884Y20646D01*
X99892Y20613D01*
X99900Y20578D01*
X99914Y20501D01*
X99925Y20414D01*
X99928Y20321D01*
Y20275D01*
X99925Y20250D01*
X99922Y20220D01*
X99919Y20190D01*
X99917Y20154D01*
X99906Y20078D01*
X99889Y19993D01*
X99865Y19909D01*
X99835Y19827D01*
Y19824D01*
X99829Y19819D01*
X99827Y19805D01*
X99818Y19791D01*
X99808Y19775D01*
X99797Y19753D01*
X99769Y19707D01*
X99731Y19652D01*
X99685Y19598D01*
X99633Y19546D01*
X99570Y19499D01*
X99567Y19497D01*
X99562Y19494D01*
X99554Y19488D01*
X99540Y19480D01*
X99524Y19472D01*
X99505Y19461D01*
X99480Y19453D01*
X99455Y19439D01*
X99398Y19417D01*
X99330Y19398D01*
X99256Y19382D01*
X99174Y19374D01*
X99150Y19693D01*
X99152D01*
X99161Y19696D01*
X99172D01*
X99188Y19699D01*
X99210Y19704D01*
X99232Y19710D01*
X99283Y19726D01*
X99341Y19748D01*
X99401Y19780D01*
X99458Y19819D01*
X99483Y19843D01*
X99507Y19871D01*
X99510Y19873D01*
X99513Y19876D01*
X99518Y19887D01*
X99526Y19898D01*
X99535Y19914D01*
X99546Y19933D01*
X99556Y19955D01*
X99570Y19980D01*
X99581Y20010D01*
X99592Y20042D01*
X99603Y20078D01*
X99611Y20116D01*
X99619Y20160D01*
X99625Y20206D01*
X99630Y20255D01*
Y20335D01*
X99627Y20357D01*
Y20381D01*
X99625Y20408D01*
X99622Y20441D01*
X99616Y20474D01*
X99603Y20548D01*
X99584Y20618D01*
X99556Y20687D01*
X99537Y20720D01*
X99518Y20747D01*
Y20750D01*
X99513Y20752D01*
X99499Y20769D01*
X99475Y20790D01*
X99442Y20815D01*
X99404Y20840D01*
X99357Y20862D01*
X99308Y20878D01*
X99281Y20881D01*
X99251Y20883D01*
X99248D01*
X99245D01*
X99229Y20881D01*
X99204Y20878D01*
X99174Y20872D01*
X99139Y20859D01*
X99101Y20842D01*
X99065Y20821D01*
X99029Y20788D01*
X99027Y20782D01*
X99021Y20777D01*
X99013Y20766D01*
X99005Y20752D01*
X98997Y20736D01*
X98986Y20714D01*
X98972Y20689D01*
X98959Y20660D01*
X98945Y20624D01*
X98931Y20583D01*
X98915Y20537D01*
X98899Y20482D01*
X98882Y20425D01*
X98863Y20359D01*
X98847Y20286D01*
Y20280D01*
X98844Y20266D01*
X98838Y20247D01*
X98830Y20220D01*
X98825Y20187D01*
X98814Y20149D01*
X98806Y20108D01*
X98792Y20064D01*
X98767Y19972D01*
X98743Y19879D01*
X98729Y19835D01*
X98716Y19797D01*
X98702Y19759D01*
X98688Y19729D01*
Y19726D01*
X98683Y19718D01*
X98677Y19707D01*
X98669Y19693D01*
X98661Y19674D01*
X98647Y19652D01*
X98617Y19606D01*
X98582Y19551D01*
X98538Y19499D01*
X98486Y19447D01*
X98459Y19425D01*
X98432Y19404D01*
X98429D01*
X98423Y19398D01*
X98415Y19393D01*
X98404Y19387D01*
X98391Y19379D01*
X98372Y19371D01*
X98328Y19349D01*
X98276Y19330D01*
X98216Y19314D01*
X98148Y19303D01*
X98074Y19297D01*
X98071D01*
X98066D01*
X98055D01*
X98041Y19300D01*
X98022D01*
X98003Y19303D01*
X97951Y19311D01*
X97894Y19324D01*
X97831Y19346D01*
X97765Y19376D01*
X97730Y19393D01*
X97697Y19415D01*
X97695D01*
X97689Y19420D01*
X97681Y19425D01*
X97667Y19436D01*
X97637Y19461D01*
X97596Y19499D01*
X97553Y19546D01*
X97506Y19603D01*
X97462Y19669D01*
X97422Y19745D01*
Y19748D01*
X97416Y19756D01*
X97413Y19767D01*
X97405Y19783D01*
X97400Y19802D01*
X97391Y19827D01*
X97381Y19854D01*
X97372Y19887D01*
X97364Y19920D01*
X97353Y19958D01*
X97340Y20040D01*
X97329Y20130D01*
X97323Y20228D01*
Y20261D01*
X97326Y20286D01*
Y20315D01*
X97329Y20348D01*
X97332Y20387D01*
X97337Y20430D01*
X97348Y20520D01*
X97364Y20616D01*
X97389Y20711D01*
X97422Y20804D01*
Y20807D01*
X97427Y20815D01*
X97433Y20826D01*
X97441Y20842D01*
X97452Y20862D01*
X97462Y20883D01*
X97495Y20935D01*
X97536Y20992D01*
X97588Y21053D01*
X97648Y21113D01*
X97719Y21165D01*
X97722Y21167D01*
X97727Y21170D01*
X97738Y21175D01*
X97755Y21184D01*
X97774Y21195D01*
X97796Y21205D01*
X97823Y21219D01*
X97853Y21230D01*
X97883Y21244D01*
X97918Y21255D01*
X97998Y21276D01*
X98082Y21293D01*
X98129Y21298D01*
X98175Y21301D01*
X98202Y20987D01*
D02*
G37*
G36*
X99884Y17012D02*
X99586D01*
Y18503D01*
X98817D01*
Y17108D01*
X98519D01*
Y18503D01*
X97662D01*
Y16955D01*
X97364D01*
Y18836D01*
X99884D01*
Y17012D01*
D02*
G37*
G36*
Y14692D02*
X99586D01*
Y15522D01*
X97364D01*
Y15855D01*
X99586D01*
Y16685D01*
X99884D01*
Y14692D01*
D02*
G37*
G36*
X99262Y14233D02*
X99264Y14225D01*
X99273Y14211D01*
X99281Y14192D01*
X99292Y14170D01*
X99308Y14143D01*
X99324Y14113D01*
X99341Y14083D01*
X99384Y14012D01*
X99436Y13936D01*
X99491Y13856D01*
X99554Y13783D01*
X99556Y13780D01*
X99562Y13774D01*
X99570Y13763D01*
X99584Y13750D01*
X99600Y13736D01*
X99616Y13717D01*
X99663Y13676D01*
X99712Y13630D01*
X99769Y13583D01*
X99829Y13542D01*
X99892Y13507D01*
Y13308D01*
X97364D01*
Y13616D01*
X99333D01*
X99327Y13622D01*
X99313Y13635D01*
X99294Y13660D01*
X99267Y13695D01*
X99234Y13736D01*
X99199Y13788D01*
X99161Y13845D01*
X99120Y13911D01*
Y13914D01*
X99114Y13919D01*
X99109Y13927D01*
X99103Y13941D01*
X99092Y13957D01*
X99084Y13976D01*
X99060Y14020D01*
X99035Y14069D01*
X99008Y14124D01*
X98983Y14181D01*
X98961Y14236D01*
X99259D01*
X99262Y14233D01*
D02*
G37*
G36*
X94689Y45631D02*
X94719Y45628D01*
X94749Y45625D01*
X94784Y45623D01*
X94861Y45612D01*
X94945Y45595D01*
X95030Y45571D01*
X95112Y45541D01*
X95115D01*
X95120Y45535D01*
X95134Y45533D01*
X95147Y45524D01*
X95164Y45513D01*
X95186Y45502D01*
X95232Y45475D01*
X95287Y45437D01*
X95341Y45390D01*
X95393Y45339D01*
X95439Y45276D01*
X95442Y45273D01*
X95445Y45268D01*
X95450Y45259D01*
X95459Y45246D01*
X95467Y45230D01*
X95478Y45210D01*
X95486Y45186D01*
X95499Y45161D01*
X95521Y45104D01*
X95540Y45036D01*
X95557Y44962D01*
X95565Y44880D01*
X95246Y44855D01*
Y44858D01*
X95243Y44866D01*
Y44877D01*
X95240Y44894D01*
X95235Y44916D01*
X95229Y44937D01*
X95213Y44989D01*
X95191Y45047D01*
X95158Y45107D01*
X95120Y45164D01*
X95095Y45189D01*
X95068Y45213D01*
X95065Y45216D01*
X95063Y45219D01*
X95052Y45224D01*
X95041Y45232D01*
X95025Y45240D01*
X95005Y45251D01*
X94984Y45262D01*
X94959Y45276D01*
X94929Y45287D01*
X94896Y45298D01*
X94861Y45309D01*
X94823Y45317D01*
X94779Y45325D01*
X94732Y45331D01*
X94683Y45336D01*
X94604D01*
X94582Y45333D01*
X94558D01*
X94530Y45331D01*
X94498Y45328D01*
X94465Y45322D01*
X94391Y45309D01*
X94320Y45289D01*
X94252Y45262D01*
X94219Y45243D01*
X94192Y45224D01*
X94189D01*
X94186Y45219D01*
X94170Y45205D01*
X94148Y45180D01*
X94124Y45148D01*
X94099Y45109D01*
X94077Y45063D01*
X94061Y45014D01*
X94058Y44987D01*
X94055Y44956D01*
Y44954D01*
Y44951D01*
X94058Y44935D01*
X94061Y44910D01*
X94066Y44880D01*
X94080Y44844D01*
X94096Y44806D01*
X94118Y44771D01*
X94151Y44735D01*
X94156Y44733D01*
X94162Y44727D01*
X94173Y44719D01*
X94186Y44711D01*
X94203Y44703D01*
X94225Y44692D01*
X94249Y44678D01*
X94279Y44664D01*
X94315Y44651D01*
X94356Y44637D01*
X94402Y44621D01*
X94457Y44604D01*
X94514Y44588D01*
X94579Y44569D01*
X94653Y44552D01*
X94659D01*
X94672Y44550D01*
X94691Y44544D01*
X94719Y44536D01*
X94752Y44531D01*
X94790Y44520D01*
X94831Y44512D01*
X94874Y44498D01*
X94967Y44473D01*
X95060Y44449D01*
X95104Y44435D01*
X95142Y44421D01*
X95180Y44408D01*
X95210Y44394D01*
X95213D01*
X95221Y44389D01*
X95232Y44383D01*
X95246Y44375D01*
X95265Y44367D01*
X95287Y44353D01*
X95333Y44323D01*
X95388Y44288D01*
X95439Y44244D01*
X95491Y44192D01*
X95513Y44165D01*
X95535Y44137D01*
Y44135D01*
X95540Y44129D01*
X95546Y44121D01*
X95551Y44110D01*
X95560Y44096D01*
X95568Y44077D01*
X95590Y44034D01*
X95609Y43982D01*
X95625Y43922D01*
X95636Y43854D01*
X95641Y43780D01*
Y43777D01*
Y43772D01*
Y43761D01*
X95639Y43747D01*
Y43728D01*
X95636Y43709D01*
X95628Y43657D01*
X95614Y43600D01*
X95592Y43537D01*
X95562Y43471D01*
X95546Y43436D01*
X95524Y43403D01*
Y43400D01*
X95519Y43395D01*
X95513Y43387D01*
X95502Y43373D01*
X95478Y43343D01*
X95439Y43302D01*
X95393Y43258D01*
X95336Y43212D01*
X95270Y43168D01*
X95194Y43127D01*
X95191D01*
X95183Y43122D01*
X95172Y43119D01*
X95156Y43111D01*
X95136Y43106D01*
X95112Y43097D01*
X95085Y43086D01*
X95052Y43078D01*
X95019Y43070D01*
X94981Y43059D01*
X94899Y43045D01*
X94809Y43035D01*
X94711Y43029D01*
X94678D01*
X94653Y43032D01*
X94623D01*
X94591Y43035D01*
X94552Y43037D01*
X94509Y43043D01*
X94419Y43054D01*
X94323Y43070D01*
X94227Y43095D01*
X94135Y43127D01*
X94132D01*
X94124Y43133D01*
X94113Y43138D01*
X94096Y43146D01*
X94077Y43157D01*
X94055Y43168D01*
X94003Y43201D01*
X93946Y43242D01*
X93886Y43294D01*
X93826Y43354D01*
X93774Y43425D01*
X93771Y43428D01*
X93769Y43433D01*
X93763Y43444D01*
X93755Y43460D01*
X93744Y43479D01*
X93733Y43501D01*
X93720Y43529D01*
X93709Y43559D01*
X93695Y43589D01*
X93684Y43624D01*
X93662Y43703D01*
X93646Y43788D01*
X93640Y43834D01*
X93638Y43881D01*
X93952Y43908D01*
Y43905D01*
Y43900D01*
X93954Y43889D01*
X93957Y43875D01*
X93960Y43859D01*
X93963Y43843D01*
X93973Y43796D01*
X93987Y43747D01*
X94003Y43695D01*
X94025Y43643D01*
X94053Y43594D01*
X94055Y43589D01*
X94069Y43575D01*
X94088Y43553D01*
X94115Y43526D01*
X94151Y43493D01*
X94195Y43463D01*
X94247Y43430D01*
X94306Y43400D01*
X94309D01*
X94315Y43398D01*
X94323Y43395D01*
X94337Y43389D01*
X94353Y43384D01*
X94372Y43376D01*
X94394Y43370D01*
X94419Y43365D01*
X94476Y43351D01*
X94544Y43338D01*
X94615Y43329D01*
X94694Y43327D01*
X94727D01*
X94743Y43329D01*
X94762D01*
X94806Y43335D01*
X94858Y43340D01*
X94915Y43349D01*
X94973Y43362D01*
X95027Y43381D01*
X95030D01*
X95033Y43384D01*
X95041Y43387D01*
X95052Y43392D01*
X95076Y43406D01*
X95109Y43422D01*
X95145Y43444D01*
X95183Y43471D01*
X95216Y43501D01*
X95246Y43537D01*
X95248Y43542D01*
X95257Y43553D01*
X95270Y43575D01*
X95284Y43602D01*
X95295Y43635D01*
X95309Y43671D01*
X95317Y43712D01*
X95319Y43753D01*
Y43755D01*
Y43758D01*
Y43772D01*
X95317Y43796D01*
X95311Y43824D01*
X95303Y43856D01*
X95289Y43892D01*
X95273Y43927D01*
X95248Y43960D01*
X95246Y43963D01*
X95235Y43974D01*
X95218Y43990D01*
X95194Y44012D01*
X95164Y44034D01*
X95123Y44058D01*
X95076Y44083D01*
X95022Y44107D01*
X95016Y44110D01*
X95011Y44113D01*
X95000Y44116D01*
X94989Y44118D01*
X94973Y44124D01*
X94951Y44132D01*
X94929Y44137D01*
X94899Y44146D01*
X94869Y44157D01*
X94831Y44165D01*
X94790Y44176D01*
X94743Y44189D01*
X94694Y44200D01*
X94637Y44217D01*
X94574Y44230D01*
X94571D01*
X94560Y44233D01*
X94541Y44238D01*
X94520Y44244D01*
X94489Y44252D01*
X94457Y44260D01*
X94424Y44271D01*
X94386Y44282D01*
X94304Y44307D01*
X94225Y44334D01*
X94186Y44348D01*
X94151Y44361D01*
X94118Y44375D01*
X94091Y44389D01*
X94088D01*
X94083Y44394D01*
X94074Y44399D01*
X94061Y44405D01*
X94028Y44424D01*
X93990Y44451D01*
X93943Y44487D01*
X93900Y44525D01*
X93856Y44572D01*
X93821Y44621D01*
Y44623D01*
X93818Y44626D01*
X93812Y44634D01*
X93807Y44645D01*
X93793Y44675D01*
X93777Y44714D01*
X93761Y44760D01*
X93747Y44815D01*
X93736Y44875D01*
X93733Y44937D01*
Y44940D01*
Y44945D01*
Y44956D01*
X93736Y44970D01*
Y44987D01*
X93739Y45006D01*
X93747Y45055D01*
X93761Y45109D01*
X93777Y45167D01*
X93804Y45230D01*
X93840Y45292D01*
Y45295D01*
X93845Y45300D01*
X93851Y45309D01*
X93859Y45320D01*
X93886Y45350D01*
X93922Y45388D01*
X93965Y45429D01*
X94020Y45470D01*
X94083Y45511D01*
X94156Y45546D01*
X94159D01*
X94165Y45549D01*
X94178Y45554D01*
X94192Y45560D01*
X94211Y45565D01*
X94236Y45573D01*
X94263Y45582D01*
X94293Y45590D01*
X94326Y45598D01*
X94361Y45606D01*
X94438Y45620D01*
X94525Y45631D01*
X94618Y45634D01*
X94664D01*
X94689Y45631D01*
D02*
G37*
G36*
X93482Y43070D02*
X93103D01*
X92810Y43832D01*
X91751D01*
X91478Y43070D01*
X91126D01*
X92090Y45590D01*
X92450D01*
X93482Y43070D01*
D02*
G37*
G36*
X90812D02*
X90479D01*
Y45590D01*
X90812D01*
Y43070D01*
D02*
G37*
G36*
X89076Y45587D02*
X89106D01*
X89136Y45584D01*
X89171Y45579D01*
X89242Y45571D01*
X89322Y45557D01*
X89395Y45538D01*
X89466Y45511D01*
X89469D01*
X89474Y45508D01*
X89483Y45502D01*
X89496Y45497D01*
X89526Y45478D01*
X89567Y45453D01*
X89611Y45421D01*
X89655Y45380D01*
X89698Y45331D01*
X89739Y45276D01*
Y45273D01*
X89745Y45268D01*
X89747Y45259D01*
X89756Y45249D01*
X89764Y45235D01*
X89772Y45216D01*
X89791Y45175D01*
X89807Y45126D01*
X89824Y45068D01*
X89835Y45008D01*
X89840Y44943D01*
Y44940D01*
Y44935D01*
Y44926D01*
Y44916D01*
X89835Y44886D01*
X89829Y44844D01*
X89818Y44798D01*
X89802Y44746D01*
X89780Y44694D01*
X89750Y44640D01*
Y44637D01*
X89747Y44634D01*
X89742Y44626D01*
X89734Y44615D01*
X89715Y44591D01*
X89685Y44558D01*
X89649Y44522D01*
X89603Y44484D01*
X89551Y44446D01*
X89488Y44410D01*
X89491D01*
X89499Y44408D01*
X89510Y44402D01*
X89526Y44397D01*
X89545Y44389D01*
X89567Y44380D01*
X89616Y44356D01*
X89674Y44326D01*
X89731Y44285D01*
X89788Y44238D01*
X89837Y44181D01*
X89840Y44178D01*
X89843Y44173D01*
X89849Y44165D01*
X89857Y44154D01*
X89868Y44137D01*
X89878Y44118D01*
X89889Y44096D01*
X89900Y44072D01*
X89922Y44017D01*
X89944Y43952D01*
X89958Y43878D01*
X89963Y43840D01*
Y43799D01*
Y43796D01*
Y43791D01*
Y43783D01*
Y43769D01*
X89960Y43753D01*
Y43736D01*
X89955Y43692D01*
X89944Y43641D01*
X89930Y43586D01*
X89911Y43526D01*
X89887Y43469D01*
Y43466D01*
X89884Y43463D01*
X89878Y43455D01*
X89873Y43444D01*
X89857Y43417D01*
X89835Y43384D01*
X89810Y43346D01*
X89777Y43308D01*
X89742Y43269D01*
X89701Y43234D01*
X89696Y43231D01*
X89682Y43220D01*
X89657Y43207D01*
X89625Y43187D01*
X89586Y43168D01*
X89540Y43146D01*
X89485Y43127D01*
X89425Y43111D01*
X89423D01*
X89417Y43108D01*
X89409D01*
X89395Y43106D01*
X89379Y43103D01*
X89360Y43097D01*
X89338Y43095D01*
X89313Y43092D01*
X89286Y43086D01*
X89253Y43084D01*
X89185Y43075D01*
X89106Y43073D01*
X89018Y43070D01*
X88060D01*
Y45590D01*
X89051D01*
X89076Y45587D01*
D02*
G37*
G36*
X84782D02*
X84812D01*
X84847Y45584D01*
X84888Y45582D01*
X84970Y45573D01*
X85055Y45560D01*
X85136Y45543D01*
X85172Y45533D01*
X85207Y45522D01*
X85210D01*
X85216Y45519D01*
X85224Y45513D01*
X85237Y45508D01*
X85270Y45492D01*
X85308Y45467D01*
X85355Y45434D01*
X85401Y45390D01*
X85448Y45341D01*
X85489Y45281D01*
Y45279D01*
X85494Y45273D01*
X85500Y45265D01*
X85505Y45251D01*
X85513Y45235D01*
X85521Y45216D01*
X85532Y45194D01*
X85543Y45169D01*
X85562Y45112D01*
X85579Y45049D01*
X85590Y44978D01*
X85595Y44902D01*
Y44899D01*
Y44891D01*
Y44875D01*
X85592Y44858D01*
X85590Y44834D01*
X85587Y44806D01*
X85581Y44776D01*
X85573Y44743D01*
X85551Y44673D01*
X85538Y44634D01*
X85521Y44596D01*
X85502Y44558D01*
X85478Y44520D01*
X85450Y44484D01*
X85420Y44449D01*
X85418Y44446D01*
X85412Y44440D01*
X85401Y44432D01*
X85388Y44419D01*
X85369Y44405D01*
X85347Y44389D01*
X85319Y44370D01*
X85287Y44350D01*
X85251Y44331D01*
X85213Y44312D01*
X85169Y44293D01*
X85120Y44274D01*
X85068Y44258D01*
X85011Y44241D01*
X84948Y44228D01*
X84883Y44217D01*
X84885D01*
X84888Y44214D01*
X84904Y44206D01*
X84929Y44192D01*
X84959Y44176D01*
X84992Y44157D01*
X85024Y44137D01*
X85057Y44113D01*
X85085Y44091D01*
X85087Y44088D01*
X85090Y44086D01*
X85098Y44077D01*
X85109Y44067D01*
X85123Y44053D01*
X85139Y44036D01*
X85175Y43998D01*
X85216Y43949D01*
X85262Y43892D01*
X85311Y43826D01*
X85360Y43755D01*
X85797Y43070D01*
X85379D01*
X85046Y43594D01*
X85044Y43597D01*
X85041Y43605D01*
X85033Y43616D01*
X85022Y43632D01*
X85011Y43652D01*
X84995Y43673D01*
X84962Y43723D01*
X84923Y43780D01*
X84885Y43837D01*
X84844Y43892D01*
X84806Y43941D01*
Y43944D01*
X84801Y43946D01*
X84790Y43960D01*
X84773Y43982D01*
X84749Y44006D01*
X84724Y44034D01*
X84694Y44061D01*
X84664Y44088D01*
X84637Y44107D01*
X84634Y44110D01*
X84623Y44116D01*
X84610Y44124D01*
X84591Y44135D01*
X84566Y44146D01*
X84541Y44157D01*
X84514Y44168D01*
X84484Y44176D01*
X84481D01*
X84473Y44178D01*
X84459Y44181D01*
X84440Y44184D01*
X84413D01*
X84380Y44187D01*
X84342Y44189D01*
X83913D01*
Y43070D01*
X83580D01*
Y45590D01*
X84751D01*
X84782Y45587D01*
D02*
G37*
G36*
X87842Y42371D02*
X85792D01*
Y42595D01*
X87842D01*
Y42371D01*
D02*
G37*
G36*
X103967Y36856D02*
X103961D01*
X103947D01*
X103926D01*
X103898Y36859D01*
X103866Y36862D01*
X103830Y36870D01*
X103792Y36878D01*
X103754Y36892D01*
X103751D01*
X103745Y36895D01*
X103737Y36898D01*
X103724Y36903D01*
X103710Y36911D01*
X103691Y36919D01*
X103647Y36941D01*
X103595Y36968D01*
X103538Y37004D01*
X103478Y37045D01*
X103418Y37094D01*
X103415Y37097D01*
X103410Y37099D01*
X103402Y37108D01*
X103388Y37121D01*
X103374Y37135D01*
X103355Y37154D01*
X103333Y37173D01*
X103309Y37198D01*
X103281Y37225D01*
X103254Y37255D01*
X103221Y37288D01*
X103189Y37326D01*
X103153Y37364D01*
X103118Y37408D01*
X103079Y37452D01*
X103038Y37501D01*
X103036Y37506D01*
X103022Y37520D01*
X103006Y37539D01*
X102981Y37566D01*
X102954Y37599D01*
X102921Y37637D01*
X102885Y37681D01*
X102845Y37725D01*
X102760Y37817D01*
X102670Y37908D01*
X102626Y37951D01*
X102583Y37992D01*
X102541Y38028D01*
X102503Y38058D01*
X102501Y38060D01*
X102495Y38063D01*
X102484Y38071D01*
X102471Y38080D01*
X102451Y38093D01*
X102432Y38104D01*
X102383Y38131D01*
X102326Y38159D01*
X102263Y38183D01*
X102198Y38200D01*
X102165Y38202D01*
X102132Y38205D01*
X102129D01*
X102124D01*
X102113D01*
X102102Y38202D01*
X102086D01*
X102067Y38197D01*
X102025Y38189D01*
X101976Y38172D01*
X101925Y38148D01*
X101897Y38134D01*
X101873Y38115D01*
X101848Y38096D01*
X101823Y38071D01*
X101821Y38069D01*
X101818Y38066D01*
X101813Y38058D01*
X101804Y38047D01*
X101794Y38033D01*
X101783Y38017D01*
X101758Y37979D01*
X101736Y37927D01*
X101714Y37869D01*
X101701Y37801D01*
X101695Y37763D01*
Y37703D01*
X101698Y37686D01*
Y37667D01*
X101703Y37646D01*
X101712Y37596D01*
X101728Y37539D01*
X101752Y37479D01*
X101769Y37449D01*
X101785Y37419D01*
X101807Y37392D01*
X101832Y37364D01*
X101834Y37362D01*
X101837Y37359D01*
X101845Y37353D01*
X101856Y37343D01*
X101870Y37334D01*
X101886Y37323D01*
X101905Y37310D01*
X101927Y37299D01*
X101952Y37285D01*
X101979Y37274D01*
X102045Y37252D01*
X102116Y37236D01*
X102157Y37233D01*
X102200Y37231D01*
X102167Y36914D01*
X102162D01*
X102151Y36917D01*
X102135Y36919D01*
X102110Y36922D01*
X102080Y36928D01*
X102045Y36936D01*
X102006Y36944D01*
X101965Y36957D01*
X101925Y36971D01*
X101878Y36988D01*
X101834Y37009D01*
X101791Y37031D01*
X101744Y37058D01*
X101703Y37089D01*
X101663Y37121D01*
X101627Y37160D01*
X101624Y37162D01*
X101619Y37170D01*
X101611Y37181D01*
X101597Y37198D01*
X101583Y37220D01*
X101567Y37247D01*
X101550Y37277D01*
X101531Y37312D01*
X101515Y37351D01*
X101499Y37394D01*
X101482Y37441D01*
X101469Y37493D01*
X101455Y37547D01*
X101447Y37604D01*
X101441Y37667D01*
X101439Y37733D01*
Y37768D01*
X101441Y37793D01*
X101444Y37823D01*
X101450Y37858D01*
X101455Y37899D01*
X101463Y37940D01*
X101474Y37987D01*
X101488Y38033D01*
X101504Y38082D01*
X101523Y38129D01*
X101548Y38178D01*
X101575Y38224D01*
X101605Y38268D01*
X101641Y38309D01*
X101643Y38312D01*
X101649Y38317D01*
X101663Y38328D01*
X101676Y38342D01*
X101695Y38358D01*
X101720Y38377D01*
X101747Y38396D01*
X101780Y38415D01*
X101813Y38434D01*
X101851Y38454D01*
X101892Y38473D01*
X101936Y38489D01*
X101985Y38503D01*
X102034Y38514D01*
X102086Y38519D01*
X102140Y38522D01*
X102143D01*
X102146D01*
X102154D01*
X102165D01*
X102195Y38519D01*
X102233Y38514D01*
X102279Y38505D01*
X102329Y38495D01*
X102383Y38481D01*
X102438Y38459D01*
X102441D01*
X102443Y38456D01*
X102451Y38454D01*
X102462Y38448D01*
X102492Y38432D01*
X102531Y38410D01*
X102577Y38380D01*
X102629Y38344D01*
X102683Y38303D01*
X102743Y38252D01*
X102746Y38249D01*
X102752Y38246D01*
X102760Y38235D01*
X102774Y38224D01*
X102790Y38208D01*
X102809Y38189D01*
X102834Y38167D01*
X102858Y38140D01*
X102888Y38107D01*
X102921Y38071D01*
X102959Y38033D01*
X102997Y37990D01*
X103041Y37943D01*
X103085Y37891D01*
X103134Y37834D01*
X103186Y37774D01*
X103189Y37771D01*
X103197Y37763D01*
X103208Y37747D01*
X103224Y37730D01*
X103243Y37705D01*
X103265Y37681D01*
X103314Y37624D01*
X103366Y37564D01*
X103421Y37506D01*
X103445Y37479D01*
X103467Y37454D01*
X103489Y37433D01*
X103505Y37416D01*
X103508Y37413D01*
X103519Y37402D01*
X103535Y37389D01*
X103557Y37370D01*
X103582Y37348D01*
X103609Y37326D01*
X103669Y37282D01*
Y38524D01*
X103967D01*
Y36856D01*
D02*
G37*
G36*
X101744Y35849D02*
X103967D01*
Y35516D01*
X101744D01*
Y34686D01*
X101447D01*
Y36679D01*
X101744D01*
Y35849D01*
D02*
G37*
G36*
X103967Y32535D02*
X101447D01*
Y34359D01*
X101744D01*
Y32868D01*
X102514D01*
Y34263D01*
X102812D01*
Y32868D01*
X103669D01*
Y34416D01*
X103967D01*
Y32535D01*
D02*
G37*
G36*
X103289Y32071D02*
X103309D01*
X103328Y32068D01*
X103380Y32060D01*
X103437Y32046D01*
X103500Y32024D01*
X103565Y31994D01*
X103601Y31978D01*
X103633Y31956D01*
X103636D01*
X103642Y31951D01*
X103650Y31945D01*
X103664Y31934D01*
X103694Y31910D01*
X103735Y31872D01*
X103778Y31825D01*
X103825Y31768D01*
X103868Y31702D01*
X103909Y31626D01*
Y31623D01*
X103915Y31615D01*
X103917Y31604D01*
X103926Y31588D01*
X103931Y31569D01*
X103939Y31544D01*
X103950Y31517D01*
X103958Y31484D01*
X103967Y31451D01*
X103978Y31413D01*
X103991Y31331D01*
X104002Y31241D01*
X104007Y31143D01*
Y31110D01*
X104005Y31085D01*
Y31055D01*
X104002Y31023D01*
X103999Y30984D01*
X103994Y30941D01*
X103983Y30850D01*
X103967Y30755D01*
X103942Y30659D01*
X103909Y30567D01*
Y30564D01*
X103904Y30556D01*
X103898Y30545D01*
X103890Y30528D01*
X103879Y30509D01*
X103868Y30487D01*
X103835Y30436D01*
X103795Y30378D01*
X103743Y30318D01*
X103683Y30258D01*
X103612Y30206D01*
X103609Y30204D01*
X103603Y30201D01*
X103593Y30195D01*
X103576Y30187D01*
X103557Y30176D01*
X103535Y30165D01*
X103508Y30152D01*
X103478Y30141D01*
X103448Y30127D01*
X103412Y30116D01*
X103333Y30094D01*
X103249Y30078D01*
X103202Y30073D01*
X103156Y30070D01*
X103129Y30384D01*
X103131D01*
X103137D01*
X103148Y30386D01*
X103161Y30389D01*
X103178Y30392D01*
X103194Y30395D01*
X103240Y30406D01*
X103289Y30419D01*
X103341Y30436D01*
X103393Y30457D01*
X103442Y30485D01*
X103448Y30487D01*
X103462Y30501D01*
X103483Y30520D01*
X103511Y30547D01*
X103543Y30583D01*
X103574Y30627D01*
X103606Y30678D01*
X103636Y30739D01*
Y30741D01*
X103639Y30747D01*
X103642Y30755D01*
X103647Y30769D01*
X103653Y30785D01*
X103661Y30804D01*
X103666Y30826D01*
X103672Y30850D01*
X103685Y30908D01*
X103699Y30976D01*
X103707Y31047D01*
X103710Y31126D01*
Y31159D01*
X103707Y31175D01*
Y31194D01*
X103702Y31238D01*
X103696Y31290D01*
X103688Y31347D01*
X103674Y31405D01*
X103655Y31459D01*
Y31462D01*
X103653Y31465D01*
X103650Y31473D01*
X103644Y31484D01*
X103631Y31508D01*
X103614Y31541D01*
X103593Y31577D01*
X103565Y31615D01*
X103535Y31648D01*
X103500Y31678D01*
X103494Y31680D01*
X103483Y31689D01*
X103462Y31702D01*
X103434Y31716D01*
X103402Y31727D01*
X103366Y31740D01*
X103325Y31749D01*
X103284Y31751D01*
X103281D01*
X103279D01*
X103265D01*
X103240Y31749D01*
X103213Y31743D01*
X103180Y31735D01*
X103145Y31721D01*
X103109Y31705D01*
X103077Y31680D01*
X103074Y31678D01*
X103063Y31667D01*
X103047Y31650D01*
X103025Y31626D01*
X103003Y31596D01*
X102978Y31555D01*
X102954Y31508D01*
X102929Y31454D01*
X102926Y31448D01*
X102924Y31443D01*
X102921Y31432D01*
X102918Y31421D01*
X102913Y31405D01*
X102905Y31383D01*
X102899Y31361D01*
X102891Y31331D01*
X102880Y31301D01*
X102872Y31263D01*
X102861Y31222D01*
X102847Y31175D01*
X102836Y31126D01*
X102820Y31069D01*
X102806Y31006D01*
Y31003D01*
X102804Y30992D01*
X102798Y30973D01*
X102793Y30951D01*
X102785Y30922D01*
X102776Y30889D01*
X102765Y30856D01*
X102754Y30818D01*
X102730Y30736D01*
X102703Y30657D01*
X102689Y30619D01*
X102675Y30583D01*
X102662Y30550D01*
X102648Y30523D01*
Y30520D01*
X102643Y30515D01*
X102637Y30507D01*
X102632Y30493D01*
X102612Y30460D01*
X102585Y30422D01*
X102550Y30375D01*
X102512Y30332D01*
X102465Y30288D01*
X102416Y30253D01*
X102413D01*
X102410Y30250D01*
X102402Y30244D01*
X102391Y30239D01*
X102361Y30225D01*
X102323Y30209D01*
X102277Y30193D01*
X102222Y30179D01*
X102162Y30168D01*
X102099Y30165D01*
X102096D01*
X102091D01*
X102080D01*
X102067Y30168D01*
X102050D01*
X102031Y30171D01*
X101982Y30179D01*
X101927Y30193D01*
X101870Y30209D01*
X101807Y30236D01*
X101744Y30272D01*
X101742D01*
X101736Y30277D01*
X101728Y30283D01*
X101717Y30291D01*
X101687Y30318D01*
X101649Y30354D01*
X101608Y30397D01*
X101567Y30452D01*
X101526Y30515D01*
X101490Y30588D01*
Y30591D01*
X101488Y30597D01*
X101482Y30610D01*
X101477Y30624D01*
X101471Y30643D01*
X101463Y30668D01*
X101455Y30695D01*
X101447Y30725D01*
X101439Y30758D01*
X101430Y30793D01*
X101417Y30870D01*
X101406Y30957D01*
X101403Y31050D01*
Y31096D01*
X101406Y31121D01*
X101409Y31151D01*
X101411Y31181D01*
X101414Y31216D01*
X101425Y31293D01*
X101441Y31377D01*
X101466Y31462D01*
X101496Y31544D01*
Y31547D01*
X101501Y31552D01*
X101504Y31566D01*
X101512Y31579D01*
X101523Y31596D01*
X101534Y31618D01*
X101561Y31664D01*
X101600Y31719D01*
X101646Y31773D01*
X101698Y31825D01*
X101761Y31872D01*
X101763Y31874D01*
X101769Y31877D01*
X101777Y31883D01*
X101791Y31891D01*
X101807Y31899D01*
X101826Y31910D01*
X101851Y31918D01*
X101875Y31932D01*
X101933Y31953D01*
X102001Y31973D01*
X102075Y31989D01*
X102157Y31997D01*
X102181Y31678D01*
X102178D01*
X102170Y31675D01*
X102159D01*
X102143Y31672D01*
X102121Y31667D01*
X102099Y31661D01*
X102047Y31645D01*
X101990Y31623D01*
X101930Y31590D01*
X101873Y31552D01*
X101848Y31528D01*
X101823Y31500D01*
X101821Y31497D01*
X101818Y31495D01*
X101813Y31484D01*
X101804Y31473D01*
X101796Y31457D01*
X101785Y31438D01*
X101774Y31416D01*
X101761Y31391D01*
X101750Y31361D01*
X101739Y31328D01*
X101728Y31293D01*
X101720Y31255D01*
X101712Y31211D01*
X101706Y31165D01*
X101701Y31115D01*
Y31036D01*
X101703Y31014D01*
Y30990D01*
X101706Y30962D01*
X101709Y30930D01*
X101714Y30897D01*
X101728Y30823D01*
X101747Y30752D01*
X101774Y30684D01*
X101794Y30651D01*
X101813Y30624D01*
Y30621D01*
X101818Y30619D01*
X101832Y30602D01*
X101856Y30580D01*
X101889Y30556D01*
X101927Y30531D01*
X101974Y30509D01*
X102023Y30493D01*
X102050Y30490D01*
X102080Y30487D01*
X102083D01*
X102086D01*
X102102Y30490D01*
X102127Y30493D01*
X102157Y30498D01*
X102192Y30512D01*
X102230Y30528D01*
X102266Y30550D01*
X102301Y30583D01*
X102304Y30588D01*
X102310Y30594D01*
X102318Y30605D01*
X102326Y30619D01*
X102334Y30635D01*
X102345Y30657D01*
X102359Y30681D01*
X102372Y30711D01*
X102386Y30747D01*
X102400Y30788D01*
X102416Y30834D01*
X102432Y30889D01*
X102449Y30946D01*
X102468Y31012D01*
X102484Y31085D01*
Y31091D01*
X102487Y31104D01*
X102492Y31124D01*
X102501Y31151D01*
X102506Y31184D01*
X102517Y31222D01*
X102525Y31263D01*
X102539Y31306D01*
X102563Y31399D01*
X102588Y31492D01*
X102602Y31536D01*
X102615Y31574D01*
X102629Y31612D01*
X102643Y31642D01*
Y31645D01*
X102648Y31653D01*
X102653Y31664D01*
X102662Y31678D01*
X102670Y31697D01*
X102683Y31719D01*
X102714Y31765D01*
X102749Y31820D01*
X102793Y31872D01*
X102845Y31923D01*
X102872Y31945D01*
X102899Y31967D01*
X102902D01*
X102907Y31973D01*
X102916Y31978D01*
X102926Y31984D01*
X102940Y31992D01*
X102959Y32000D01*
X103003Y32022D01*
X103055Y32041D01*
X103115Y32057D01*
X103183Y32068D01*
X103257Y32074D01*
X103260D01*
X103265D01*
X103276D01*
X103289Y32071D01*
D02*
G37*
G36*
X104666Y27897D02*
X104442D01*
Y29947D01*
X104666D01*
Y27897D01*
D02*
G37*
G36*
X103967Y27484D02*
X103442Y27151D01*
X103440Y27149D01*
X103431Y27146D01*
X103421Y27138D01*
X103404Y27127D01*
X103385Y27116D01*
X103363Y27099D01*
X103314Y27067D01*
X103257Y27029D01*
X103199Y26990D01*
X103145Y26949D01*
X103096Y26911D01*
X103093D01*
X103090Y26906D01*
X103077Y26895D01*
X103055Y26878D01*
X103030Y26854D01*
X103003Y26829D01*
X102976Y26799D01*
X102948Y26769D01*
X102929Y26742D01*
X102926Y26739D01*
X102921Y26728D01*
X102913Y26715D01*
X102902Y26695D01*
X102891Y26671D01*
X102880Y26646D01*
X102869Y26619D01*
X102861Y26589D01*
Y26586D01*
X102858Y26578D01*
X102856Y26564D01*
X102853Y26545D01*
Y26518D01*
X102850Y26485D01*
X102847Y26447D01*
Y26018D01*
X103967D01*
Y25685D01*
X101447D01*
Y26856D01*
X101450Y26887D01*
Y26917D01*
X101452Y26952D01*
X101455Y26993D01*
X101463Y27075D01*
X101477Y27160D01*
X101493Y27242D01*
X101504Y27277D01*
X101515Y27312D01*
Y27315D01*
X101518Y27321D01*
X101523Y27329D01*
X101529Y27343D01*
X101545Y27375D01*
X101570Y27413D01*
X101602Y27460D01*
X101646Y27506D01*
X101695Y27553D01*
X101755Y27594D01*
X101758D01*
X101763Y27599D01*
X101772Y27605D01*
X101785Y27610D01*
X101802Y27618D01*
X101821Y27626D01*
X101843Y27637D01*
X101867Y27648D01*
X101925Y27667D01*
X101987Y27684D01*
X102058Y27695D01*
X102135Y27700D01*
X102137D01*
X102146D01*
X102162D01*
X102178Y27697D01*
X102203Y27695D01*
X102230Y27692D01*
X102260Y27687D01*
X102293Y27678D01*
X102364Y27656D01*
X102402Y27643D01*
X102441Y27626D01*
X102479Y27607D01*
X102517Y27583D01*
X102552Y27555D01*
X102588Y27525D01*
X102591Y27523D01*
X102596Y27517D01*
X102604Y27506D01*
X102618Y27493D01*
X102632Y27474D01*
X102648Y27452D01*
X102667Y27424D01*
X102686Y27392D01*
X102705Y27356D01*
X102724Y27318D01*
X102743Y27274D01*
X102763Y27225D01*
X102779Y27173D01*
X102795Y27116D01*
X102809Y27053D01*
X102820Y26988D01*
Y26990D01*
X102823Y26993D01*
X102831Y27009D01*
X102845Y27034D01*
X102861Y27064D01*
X102880Y27097D01*
X102899Y27130D01*
X102924Y27162D01*
X102946Y27190D01*
X102948Y27192D01*
X102951Y27195D01*
X102959Y27203D01*
X102970Y27214D01*
X102984Y27228D01*
X103000Y27244D01*
X103038Y27280D01*
X103087Y27321D01*
X103145Y27367D01*
X103210Y27416D01*
X103281Y27465D01*
X103967Y27902D01*
Y27484D01*
D02*
G37*
G36*
X126685Y23433D02*
X126682Y23403D01*
Y23373D01*
X126680Y23337D01*
X126677Y23296D01*
X126669Y23214D01*
X126655Y23130D01*
X126639Y23048D01*
X126628Y23012D01*
X126617Y22977D01*
Y22974D01*
X126614Y22969D01*
X126609Y22961D01*
X126603Y22947D01*
X126587Y22914D01*
X126562Y22876D01*
X126530Y22829D01*
X126486Y22783D01*
X126437Y22737D01*
X126377Y22696D01*
X126374D01*
X126368Y22690D01*
X126360Y22685D01*
X126347Y22679D01*
X126330Y22671D01*
X126311Y22663D01*
X126289Y22652D01*
X126265Y22641D01*
X126207Y22622D01*
X126145Y22606D01*
X126074Y22595D01*
X125997Y22589D01*
X125995D01*
X125986D01*
X125970D01*
X125953Y22592D01*
X125929Y22595D01*
X125902Y22598D01*
X125872Y22603D01*
X125839Y22611D01*
X125768Y22633D01*
X125730Y22647D01*
X125691Y22663D01*
X125653Y22682D01*
X125615Y22707D01*
X125580Y22734D01*
X125544Y22764D01*
X125541Y22767D01*
X125536Y22772D01*
X125528Y22783D01*
X125514Y22797D01*
X125500Y22816D01*
X125484Y22838D01*
X125465Y22865D01*
X125446Y22898D01*
X125427Y22933D01*
X125408Y22972D01*
X125388Y23015D01*
X125369Y23064D01*
X125353Y23116D01*
X125337Y23174D01*
X125323Y23236D01*
X125312Y23302D01*
Y23299D01*
X125309Y23296D01*
X125301Y23280D01*
X125287Y23255D01*
X125271Y23225D01*
X125252Y23193D01*
X125233Y23160D01*
X125208Y23127D01*
X125186Y23100D01*
X125184Y23097D01*
X125181Y23094D01*
X125173Y23086D01*
X125162Y23075D01*
X125148Y23062D01*
X125132Y23045D01*
X125094Y23010D01*
X125044Y22969D01*
X124987Y22922D01*
X124922Y22873D01*
X124851Y22824D01*
X124165Y22387D01*
Y22805D01*
X124689Y23138D01*
X124692Y23141D01*
X124700Y23144D01*
X124711Y23152D01*
X124728Y23163D01*
X124747Y23174D01*
X124769Y23190D01*
X124818Y23223D01*
X124875Y23261D01*
X124933Y23299D01*
X124987Y23340D01*
X125036Y23378D01*
X125039D01*
X125042Y23384D01*
X125055Y23395D01*
X125077Y23411D01*
X125102Y23436D01*
X125129Y23460D01*
X125156Y23490D01*
X125184Y23520D01*
X125203Y23548D01*
X125206Y23550D01*
X125211Y23561D01*
X125219Y23575D01*
X125230Y23594D01*
X125241Y23618D01*
X125252Y23643D01*
X125263Y23670D01*
X125271Y23700D01*
Y23703D01*
X125274Y23711D01*
X125277Y23725D01*
X125279Y23744D01*
Y23771D01*
X125282Y23804D01*
X125285Y23842D01*
Y24271D01*
X124165D01*
Y24604D01*
X126685D01*
Y23433D01*
D02*
G37*
G36*
X126063Y21953D02*
X126065Y21945D01*
X126074Y21931D01*
X126082Y21912D01*
X126093Y21890D01*
X126109Y21863D01*
X126126Y21833D01*
X126142Y21803D01*
X126186Y21732D01*
X126237Y21656D01*
X126292Y21576D01*
X126355Y21503D01*
X126357Y21500D01*
X126363Y21495D01*
X126371Y21484D01*
X126385Y21470D01*
X126401Y21456D01*
X126418Y21437D01*
X126464Y21396D01*
X126513Y21350D01*
X126570Y21303D01*
X126630Y21262D01*
X126693Y21227D01*
Y21028D01*
X124165D01*
Y21336D01*
X126134D01*
X126128Y21342D01*
X126115Y21355D01*
X126095Y21380D01*
X126068Y21415D01*
X126035Y21456D01*
X126000Y21508D01*
X125962Y21565D01*
X125921Y21631D01*
Y21634D01*
X125915Y21639D01*
X125910Y21647D01*
X125904Y21661D01*
X125893Y21677D01*
X125885Y21697D01*
X125861Y21740D01*
X125836Y21789D01*
X125809Y21844D01*
X125784Y21901D01*
X125762Y21956D01*
X126060D01*
X126063Y21953D01*
D02*
G37*
G36*
X85221Y57584D02*
X85254Y57582D01*
X85292Y57576D01*
X85333Y57571D01*
X85380Y57563D01*
X85429Y57552D01*
X85481Y57541D01*
X85532Y57524D01*
X85587Y57505D01*
X85642Y57483D01*
X85694Y57456D01*
X85746Y57429D01*
X85795Y57393D01*
X85797Y57391D01*
X85805Y57385D01*
X85819Y57374D01*
X85835Y57358D01*
X85857Y57339D01*
X85882Y57314D01*
X85906Y57287D01*
X85936Y57254D01*
X85967Y57219D01*
X85997Y57178D01*
X86027Y57134D01*
X86054Y57085D01*
X86084Y57033D01*
X86108Y56976D01*
X86133Y56916D01*
X86155Y56853D01*
X85827Y56776D01*
Y56779D01*
X85822Y56787D01*
X85819Y56804D01*
X85811Y56823D01*
X85803Y56845D01*
X85789Y56869D01*
X85762Y56929D01*
X85726Y56995D01*
X85680Y57063D01*
X85631Y57126D01*
X85601Y57153D01*
X85571Y57178D01*
X85568Y57180D01*
X85562Y57183D01*
X85554Y57189D01*
X85541Y57197D01*
X85524Y57208D01*
X85505Y57219D01*
X85483Y57230D01*
X85456Y57240D01*
X85426Y57251D01*
X85396Y57262D01*
X85325Y57284D01*
X85243Y57298D01*
X85199Y57303D01*
X85126D01*
X85104Y57301D01*
X85079Y57298D01*
X85049Y57295D01*
X85017Y57292D01*
X84984Y57287D01*
X84905Y57268D01*
X84823Y57243D01*
X84782Y57227D01*
X84741Y57208D01*
X84703Y57186D01*
X84664Y57161D01*
X84662Y57158D01*
X84656Y57156D01*
X84645Y57148D01*
X84632Y57137D01*
X84618Y57123D01*
X84599Y57104D01*
X84580Y57085D01*
X84558Y57063D01*
X84536Y57036D01*
X84512Y57008D01*
X84468Y56946D01*
X84427Y56872D01*
X84391Y56787D01*
Y56784D01*
X84389Y56776D01*
X84383Y56763D01*
X84380Y56746D01*
X84375Y56725D01*
X84367Y56700D01*
X84361Y56670D01*
X84353Y56640D01*
X84345Y56604D01*
X84339Y56566D01*
X84326Y56484D01*
X84318Y56397D01*
X84315Y56304D01*
Y56301D01*
Y56290D01*
Y56274D01*
X84318Y56249D01*
Y56222D01*
X84320Y56189D01*
X84323Y56154D01*
X84326Y56113D01*
X84331Y56069D01*
X84337Y56026D01*
X84353Y55930D01*
X84378Y55835D01*
X84408Y55742D01*
Y55739D01*
X84413Y55731D01*
X84419Y55720D01*
X84424Y55703D01*
X84435Y55682D01*
X84449Y55660D01*
X84479Y55608D01*
X84520Y55548D01*
X84569Y55490D01*
X84629Y55433D01*
X84662Y55409D01*
X84697Y55384D01*
X84700D01*
X84705Y55379D01*
X84716Y55373D01*
X84733Y55365D01*
X84752Y55357D01*
X84774Y55346D01*
X84798Y55338D01*
X84825Y55327D01*
X84888Y55305D01*
X84962Y55286D01*
X85041Y55272D01*
X85082Y55269D01*
X85126Y55267D01*
X85153D01*
X85172Y55269D01*
X85197Y55272D01*
X85224Y55275D01*
X85257Y55280D01*
X85290Y55286D01*
X85366Y55305D01*
X85404Y55318D01*
X85445Y55335D01*
X85486Y55354D01*
X85524Y55376D01*
X85562Y55400D01*
X85601Y55428D01*
X85603Y55430D01*
X85609Y55436D01*
X85620Y55444D01*
X85633Y55458D01*
X85647Y55474D01*
X85666Y55496D01*
X85685Y55520D01*
X85707Y55548D01*
X85729Y55581D01*
X85751Y55616D01*
X85773Y55654D01*
X85795Y55698D01*
X85814Y55744D01*
X85833Y55796D01*
X85852Y55851D01*
X85866Y55908D01*
X86199Y55824D01*
Y55818D01*
X86193Y55805D01*
X86188Y55785D01*
X86177Y55755D01*
X86166Y55723D01*
X86150Y55682D01*
X86133Y55638D01*
X86111Y55591D01*
X86087Y55540D01*
X86059Y55490D01*
X86029Y55436D01*
X85994Y55384D01*
X85956Y55335D01*
X85915Y55286D01*
X85868Y55239D01*
X85819Y55196D01*
X85816Y55193D01*
X85805Y55187D01*
X85792Y55177D01*
X85770Y55163D01*
X85746Y55146D01*
X85713Y55127D01*
X85677Y55108D01*
X85633Y55089D01*
X85587Y55070D01*
X85538Y55051D01*
X85483Y55032D01*
X85423Y55015D01*
X85360Y55002D01*
X85295Y54991D01*
X85227Y54985D01*
X85153Y54983D01*
X85115D01*
X85085Y54985D01*
X85052Y54988D01*
X85011Y54991D01*
X84967Y54996D01*
X84918Y55005D01*
X84866Y55013D01*
X84812Y55024D01*
X84757Y55037D01*
X84703Y55051D01*
X84645Y55070D01*
X84591Y55092D01*
X84539Y55116D01*
X84490Y55146D01*
X84487Y55149D01*
X84479Y55155D01*
X84465Y55163D01*
X84449Y55177D01*
X84427Y55196D01*
X84402Y55215D01*
X84375Y55239D01*
X84345Y55269D01*
X84315Y55302D01*
X84282Y55338D01*
X84252Y55376D01*
X84219Y55419D01*
X84187Y55466D01*
X84157Y55515D01*
X84129Y55570D01*
X84102Y55627D01*
X84099Y55630D01*
X84096Y55641D01*
X84091Y55660D01*
X84083Y55682D01*
X84072Y55712D01*
X84061Y55744D01*
X84050Y55785D01*
X84036Y55829D01*
X84026Y55878D01*
X84012Y55930D01*
X84001Y55985D01*
X83993Y56045D01*
X83976Y56170D01*
X83974Y56236D01*
X83971Y56301D01*
Y56307D01*
Y56318D01*
Y56340D01*
X83974Y56367D01*
X83976Y56402D01*
X83979Y56443D01*
X83985Y56487D01*
X83990Y56536D01*
X83998Y56588D01*
X84006Y56643D01*
X84034Y56760D01*
X84053Y56817D01*
X84072Y56875D01*
X84094Y56935D01*
X84121Y56989D01*
X84124Y56992D01*
X84129Y57003D01*
X84137Y57017D01*
X84148Y57038D01*
X84165Y57063D01*
X84184Y57090D01*
X84206Y57120D01*
X84230Y57156D01*
X84260Y57189D01*
X84290Y57227D01*
X84326Y57262D01*
X84364Y57301D01*
X84405Y57336D01*
X84449Y57371D01*
X84498Y57404D01*
X84547Y57434D01*
X84550Y57437D01*
X84561Y57440D01*
X84574Y57448D01*
X84596Y57459D01*
X84621Y57470D01*
X84653Y57483D01*
X84689Y57497D01*
X84727Y57511D01*
X84771Y57524D01*
X84820Y57538D01*
X84869Y57552D01*
X84924Y57563D01*
X85036Y57582D01*
X85096Y57584D01*
X85158Y57587D01*
X85194D01*
X85221Y57584D01*
D02*
G37*
G36*
X93291Y56088D02*
Y56083D01*
Y56072D01*
Y56053D01*
Y56026D01*
X93288Y55993D01*
X93286Y55957D01*
X93283Y55916D01*
X93280Y55870D01*
X93269Y55774D01*
X93256Y55673D01*
X93234Y55575D01*
X93220Y55529D01*
X93204Y55485D01*
Y55482D01*
X93201Y55474D01*
X93196Y55463D01*
X93187Y55447D01*
X93177Y55428D01*
X93166Y55406D01*
X93133Y55357D01*
X93114Y55327D01*
X93092Y55299D01*
X93065Y55267D01*
X93037Y55237D01*
X93005Y55207D01*
X92972Y55177D01*
X92933Y55149D01*
X92893Y55122D01*
X92890Y55119D01*
X92882Y55116D01*
X92871Y55108D01*
X92852Y55100D01*
X92830Y55089D01*
X92803Y55078D01*
X92773Y55065D01*
X92734Y55054D01*
X92696Y55040D01*
X92652Y55026D01*
X92603Y55015D01*
X92551Y55005D01*
X92494Y54996D01*
X92434Y54988D01*
X92371Y54985D01*
X92306Y54983D01*
X92270D01*
X92246Y54985D01*
X92216D01*
X92183Y54988D01*
X92142Y54994D01*
X92101Y54999D01*
X92008Y55013D01*
X91910Y55035D01*
X91814Y55065D01*
X91768Y55081D01*
X91724Y55103D01*
X91721Y55106D01*
X91713Y55108D01*
X91702Y55116D01*
X91689Y55125D01*
X91670Y55138D01*
X91648Y55155D01*
X91626Y55171D01*
X91601Y55193D01*
X91547Y55242D01*
X91495Y55302D01*
X91446Y55373D01*
X91424Y55414D01*
X91405Y55455D01*
Y55458D01*
X91402Y55466D01*
X91397Y55480D01*
X91391Y55499D01*
X91383Y55520D01*
X91375Y55551D01*
X91366Y55583D01*
X91358Y55622D01*
X91347Y55665D01*
X91339Y55712D01*
X91331Y55764D01*
X91326Y55821D01*
X91317Y55881D01*
X91315Y55946D01*
X91309Y56015D01*
Y56088D01*
Y57543D01*
X91642D01*
Y56088D01*
Y56086D01*
Y56075D01*
Y56058D01*
Y56034D01*
X91645Y56006D01*
Y55976D01*
X91648Y55941D01*
X91650Y55905D01*
X91656Y55826D01*
X91667Y55747D01*
X91683Y55671D01*
X91691Y55635D01*
X91702Y55605D01*
Y55602D01*
X91705Y55600D01*
X91708Y55591D01*
X91713Y55581D01*
X91730Y55551D01*
X91751Y55518D01*
X91779Y55477D01*
X91814Y55439D01*
X91858Y55400D01*
X91910Y55365D01*
X91913D01*
X91918Y55362D01*
X91926Y55357D01*
X91937Y55351D01*
X91951Y55346D01*
X91970Y55340D01*
X91989Y55332D01*
X92011Y55324D01*
X92065Y55310D01*
X92128Y55297D01*
X92199Y55286D01*
X92276Y55283D01*
X92311D01*
X92336Y55286D01*
X92366Y55288D01*
X92401Y55291D01*
X92439Y55297D01*
X92480Y55305D01*
X92565Y55324D01*
X92609Y55338D01*
X92652Y55354D01*
X92693Y55373D01*
X92731Y55395D01*
X92767Y55419D01*
X92800Y55450D01*
X92803Y55452D01*
X92808Y55458D01*
X92813Y55469D01*
X92824Y55482D01*
X92835Y55501D01*
X92849Y55526D01*
X92865Y55556D01*
X92879Y55591D01*
X92893Y55633D01*
X92909Y55679D01*
X92923Y55731D01*
X92933Y55788D01*
X92945Y55854D01*
X92953Y55925D01*
X92955Y56004D01*
X92958Y56088D01*
Y57543D01*
X93291D01*
Y56088D01*
D02*
G37*
G36*
X95650Y57246D02*
X94820D01*
Y55024D01*
X94487D01*
Y57246D01*
X93657D01*
Y57543D01*
X95650D01*
Y57246D01*
D02*
G37*
G36*
X89728Y57584D02*
X89761Y57582D01*
X89797Y57579D01*
X89835Y57573D01*
X89879Y57565D01*
X89928Y57557D01*
X89977Y57546D01*
X90029Y57533D01*
X90083Y57516D01*
X90138Y57497D01*
X90193Y57475D01*
X90245Y57451D01*
X90299Y57421D01*
X90302Y57418D01*
X90313Y57412D01*
X90326Y57404D01*
X90346Y57391D01*
X90370Y57374D01*
X90395Y57352D01*
X90425Y57328D01*
X90457Y57301D01*
X90493Y57268D01*
X90528Y57232D01*
X90564Y57194D01*
X90599Y57153D01*
X90632Y57109D01*
X90668Y57060D01*
X90698Y57008D01*
X90728Y56954D01*
X90730Y56951D01*
X90733Y56940D01*
X90741Y56924D01*
X90750Y56902D01*
X90763Y56875D01*
X90774Y56839D01*
X90788Y56801D01*
X90801Y56757D01*
X90815Y56711D01*
X90829Y56659D01*
X90842Y56602D01*
X90853Y56544D01*
X90861Y56481D01*
X90870Y56416D01*
X90872Y56350D01*
X90875Y56279D01*
Y56274D01*
Y56263D01*
Y56241D01*
X90872Y56214D01*
X90870Y56181D01*
X90867Y56143D01*
X90861Y56099D01*
X90856Y56050D01*
X90848Y55998D01*
X90837Y55944D01*
X90826Y55886D01*
X90810Y55829D01*
X90790Y55769D01*
X90771Y55712D01*
X90747Y55652D01*
X90719Y55594D01*
X90717Y55591D01*
X90711Y55581D01*
X90703Y55564D01*
X90692Y55545D01*
X90676Y55520D01*
X90657Y55490D01*
X90632Y55458D01*
X90608Y55422D01*
X90578Y55387D01*
X90545Y55349D01*
X90507Y55310D01*
X90468Y55272D01*
X90427Y55237D01*
X90381Y55201D01*
X90332Y55166D01*
X90280Y55136D01*
X90277Y55133D01*
X90266Y55130D01*
X90253Y55122D01*
X90231Y55111D01*
X90203Y55100D01*
X90174Y55086D01*
X90138Y55073D01*
X90097Y55059D01*
X90053Y55045D01*
X90007Y55032D01*
X89955Y55018D01*
X89903Y55007D01*
X89789Y54988D01*
X89728Y54985D01*
X89669Y54983D01*
X89633D01*
X89608Y54985D01*
X89578Y54988D01*
X89540Y54991D01*
X89502Y54996D01*
X89455Y55005D01*
X89409Y55013D01*
X89357Y55024D01*
X89305Y55037D01*
X89251Y55054D01*
X89196Y55073D01*
X89142Y55097D01*
X89087Y55122D01*
X89032Y55152D01*
X89030Y55155D01*
X89021Y55160D01*
X89005Y55171D01*
X88986Y55185D01*
X88964Y55201D01*
X88937Y55223D01*
X88907Y55247D01*
X88874Y55275D01*
X88838Y55308D01*
X88806Y55343D01*
X88770Y55381D01*
X88735Y55422D01*
X88699Y55469D01*
X88666Y55515D01*
X88636Y55567D01*
X88607Y55622D01*
X88604Y55624D01*
X88601Y55635D01*
X88593Y55652D01*
X88585Y55673D01*
X88574Y55701D01*
X88563Y55734D01*
X88549Y55769D01*
X88535Y55813D01*
X88522Y55856D01*
X88508Y55905D01*
X88497Y55957D01*
X88486Y56012D01*
X88470Y56127D01*
X88467Y56189D01*
X88464Y56249D01*
Y56252D01*
Y56258D01*
Y56266D01*
Y56277D01*
X88467Y56293D01*
Y56309D01*
X88470Y56353D01*
X88476Y56405D01*
X88484Y56468D01*
X88492Y56533D01*
X88506Y56607D01*
X88525Y56686D01*
X88546Y56765D01*
X88574Y56847D01*
X88607Y56929D01*
X88645Y57011D01*
X88688Y57088D01*
X88740Y57164D01*
X88800Y57232D01*
X88803Y57235D01*
X88817Y57249D01*
X88836Y57265D01*
X88860Y57287D01*
X88896Y57314D01*
X88934Y57344D01*
X88981Y57377D01*
X89035Y57410D01*
X89095Y57442D01*
X89161Y57475D01*
X89232Y57505D01*
X89311Y57533D01*
X89393Y57554D01*
X89480Y57571D01*
X89573Y57584D01*
X89671Y57587D01*
X89704D01*
X89728Y57584D01*
D02*
G37*
G36*
X88333Y54325D02*
X86283D01*
Y54549D01*
X88333D01*
Y54325D01*
D02*
G37*
G36*
X90253Y74062D02*
X90289Y74060D01*
X90330Y74057D01*
X90373Y74051D01*
X90422Y74046D01*
X90474Y74038D01*
X90529Y74030D01*
X90646Y74002D01*
X90704Y73983D01*
X90761Y73964D01*
X90821Y73942D01*
X90876Y73915D01*
X90878Y73912D01*
X90889Y73907D01*
X90903Y73899D01*
X90925Y73888D01*
X90949Y73871D01*
X90977Y73852D01*
X91007Y73830D01*
X91042Y73806D01*
X91075Y73776D01*
X91113Y73746D01*
X91149Y73710D01*
X91187Y73672D01*
X91222Y73631D01*
X91258Y73587D01*
X91291Y73538D01*
X91321Y73489D01*
X91323Y73486D01*
X91326Y73475D01*
X91334Y73462D01*
X91345Y73440D01*
X91356Y73415D01*
X91370Y73383D01*
X91383Y73347D01*
X91397Y73309D01*
X91411Y73265D01*
X91424Y73216D01*
X91438Y73167D01*
X91449Y73112D01*
X91468Y73000D01*
X91471Y72940D01*
X91474Y72878D01*
Y72842D01*
X91471Y72815D01*
X91468Y72782D01*
X91463Y72744D01*
X91457Y72703D01*
X91449Y72656D01*
X91438Y72607D01*
X91427Y72555D01*
X91411Y72504D01*
X91392Y72449D01*
X91370Y72394D01*
X91343Y72342D01*
X91315Y72291D01*
X91280Y72241D01*
X91277Y72239D01*
X91272Y72230D01*
X91261Y72217D01*
X91244Y72201D01*
X91225Y72179D01*
X91201Y72154D01*
X91173Y72129D01*
X91140Y72100D01*
X91105Y72069D01*
X91064Y72039D01*
X91020Y72009D01*
X90971Y71982D01*
X90919Y71952D01*
X90862Y71927D01*
X90802Y71903D01*
X90739Y71881D01*
X90663Y72209D01*
X90665D01*
X90674Y72214D01*
X90690Y72217D01*
X90709Y72225D01*
X90731Y72233D01*
X90755Y72247D01*
X90816Y72274D01*
X90881Y72310D01*
X90949Y72356D01*
X91012Y72405D01*
X91039Y72435D01*
X91064Y72465D01*
X91067Y72468D01*
X91070Y72474D01*
X91075Y72482D01*
X91083Y72495D01*
X91094Y72512D01*
X91105Y72531D01*
X91116Y72553D01*
X91127Y72580D01*
X91138Y72610D01*
X91149Y72640D01*
X91171Y72711D01*
X91184Y72793D01*
X91190Y72837D01*
Y72910D01*
X91187Y72932D01*
X91184Y72957D01*
X91181Y72987D01*
X91179Y73019D01*
X91173Y73052D01*
X91154Y73131D01*
X91129Y73213D01*
X91113Y73254D01*
X91094Y73295D01*
X91072Y73333D01*
X91048Y73372D01*
X91045Y73374D01*
X91042Y73380D01*
X91034Y73391D01*
X91023Y73404D01*
X91009Y73418D01*
X90990Y73437D01*
X90971Y73456D01*
X90949Y73478D01*
X90922Y73500D01*
X90895Y73524D01*
X90832Y73568D01*
X90758Y73609D01*
X90674Y73645D01*
X90671D01*
X90663Y73647D01*
X90649Y73653D01*
X90633Y73656D01*
X90611Y73661D01*
X90586Y73669D01*
X90556Y73675D01*
X90526Y73683D01*
X90491Y73691D01*
X90452Y73697D01*
X90371Y73710D01*
X90283Y73718D01*
X90190Y73721D01*
X90188D01*
X90177D01*
X90160D01*
X90136Y73718D01*
X90109D01*
X90076Y73716D01*
X90040Y73713D01*
X89999Y73710D01*
X89956Y73705D01*
X89912Y73699D01*
X89816Y73683D01*
X89721Y73658D01*
X89628Y73628D01*
X89625D01*
X89617Y73623D01*
X89606Y73617D01*
X89590Y73612D01*
X89568Y73601D01*
X89546Y73587D01*
X89494Y73557D01*
X89434Y73516D01*
X89377Y73467D01*
X89319Y73407D01*
X89295Y73374D01*
X89270Y73339D01*
Y73336D01*
X89265Y73331D01*
X89259Y73320D01*
X89251Y73303D01*
X89243Y73284D01*
X89232Y73262D01*
X89224Y73238D01*
X89213Y73211D01*
X89191Y73148D01*
X89172Y73074D01*
X89158Y72995D01*
X89156Y72954D01*
X89153Y72910D01*
Y72883D01*
X89156Y72864D01*
X89158Y72839D01*
X89161Y72812D01*
X89167Y72779D01*
X89172Y72746D01*
X89191Y72670D01*
X89205Y72632D01*
X89221Y72591D01*
X89240Y72550D01*
X89262Y72512D01*
X89287Y72474D01*
X89314Y72435D01*
X89317Y72433D01*
X89322Y72427D01*
X89330Y72416D01*
X89344Y72403D01*
X89360Y72389D01*
X89382Y72370D01*
X89407Y72351D01*
X89434Y72329D01*
X89467Y72307D01*
X89502Y72285D01*
X89541Y72263D01*
X89584Y72241D01*
X89631Y72222D01*
X89683Y72203D01*
X89737Y72184D01*
X89795Y72170D01*
X89710Y71837D01*
X89705D01*
X89691Y71843D01*
X89672Y71848D01*
X89642Y71859D01*
X89609Y71870D01*
X89568Y71886D01*
X89524Y71903D01*
X89478Y71925D01*
X89426Y71949D01*
X89377Y71977D01*
X89322Y72007D01*
X89270Y72042D01*
X89221Y72080D01*
X89172Y72121D01*
X89126Y72168D01*
X89082Y72217D01*
X89079Y72220D01*
X89074Y72230D01*
X89063Y72244D01*
X89049Y72266D01*
X89033Y72291D01*
X89014Y72323D01*
X88995Y72359D01*
X88976Y72403D01*
X88956Y72449D01*
X88937Y72498D01*
X88918Y72553D01*
X88902Y72613D01*
X88888Y72676D01*
X88877Y72741D01*
X88872Y72809D01*
X88869Y72883D01*
Y72921D01*
X88872Y72951D01*
X88875Y72984D01*
X88877Y73025D01*
X88883Y73069D01*
X88891Y73118D01*
X88899Y73170D01*
X88910Y73224D01*
X88924Y73279D01*
X88937Y73333D01*
X88956Y73391D01*
X88978Y73445D01*
X89003Y73497D01*
X89033Y73546D01*
X89036Y73549D01*
X89041Y73557D01*
X89049Y73571D01*
X89063Y73587D01*
X89082Y73609D01*
X89101Y73634D01*
X89126Y73661D01*
X89156Y73691D01*
X89188Y73721D01*
X89224Y73754D01*
X89262Y73784D01*
X89306Y73817D01*
X89352Y73849D01*
X89401Y73879D01*
X89456Y73907D01*
X89513Y73934D01*
X89516Y73937D01*
X89527Y73940D01*
X89546Y73945D01*
X89568Y73953D01*
X89598Y73964D01*
X89631Y73975D01*
X89672Y73986D01*
X89715Y74000D01*
X89764Y74010D01*
X89816Y74024D01*
X89871Y74035D01*
X89931Y74043D01*
X90057Y74060D01*
X90122Y74062D01*
X90188Y74065D01*
X90193D01*
X90204D01*
X90226D01*
X90253Y74062D01*
D02*
G37*
G36*
X88435Y69703D02*
X88211D01*
Y71753D01*
X88435D01*
Y69703D01*
D02*
G37*
G36*
X91430Y69080D02*
X88910D01*
Y69413D01*
X91430D01*
Y69080D01*
D02*
G37*
G36*
Y68155D02*
X89451Y66831D01*
X91430D01*
Y66511D01*
X88910D01*
Y66855D01*
X90886Y68176D01*
X88910D01*
Y68496D01*
X91430D01*
Y68155D01*
D02*
G37*
G36*
X106647Y44005D02*
Y43999D01*
Y43988D01*
Y43969D01*
Y43942D01*
X106645Y43909D01*
X106642Y43874D01*
X106639Y43833D01*
X106636Y43786D01*
X106625Y43691D01*
X106612Y43590D01*
X106590Y43492D01*
X106576Y43445D01*
X106560Y43401D01*
Y43399D01*
X106557Y43391D01*
X106552Y43380D01*
X106544Y43363D01*
X106533Y43344D01*
X106522Y43322D01*
X106489Y43273D01*
X106470Y43243D01*
X106448Y43216D01*
X106421Y43183D01*
X106393Y43153D01*
X106361Y43123D01*
X106328Y43093D01*
X106290Y43066D01*
X106249Y43038D01*
X106246Y43036D01*
X106238Y43033D01*
X106227Y43025D01*
X106208Y43016D01*
X106186Y43005D01*
X106159Y42995D01*
X106129Y42981D01*
X106090Y42970D01*
X106052Y42956D01*
X106009Y42943D01*
X105959Y42932D01*
X105907Y42921D01*
X105850Y42913D01*
X105790Y42904D01*
X105727Y42902D01*
X105662Y42899D01*
X105626D01*
X105602Y42902D01*
X105572D01*
X105539Y42904D01*
X105498Y42910D01*
X105457Y42915D01*
X105364Y42929D01*
X105266Y42951D01*
X105170Y42981D01*
X105124Y42997D01*
X105080Y43019D01*
X105078Y43022D01*
X105069Y43025D01*
X105059Y43033D01*
X105045Y43041D01*
X105026Y43055D01*
X105004Y43071D01*
X104982Y43087D01*
X104957Y43109D01*
X104903Y43158D01*
X104851Y43218D01*
X104802Y43289D01*
X104780Y43330D01*
X104761Y43371D01*
Y43374D01*
X104758Y43382D01*
X104753Y43396D01*
X104747Y43415D01*
X104739Y43437D01*
X104731Y43467D01*
X104723Y43500D01*
X104715Y43538D01*
X104704Y43582D01*
X104695Y43628D01*
X104687Y43680D01*
X104682Y43737D01*
X104674Y43797D01*
X104671Y43863D01*
X104665Y43931D01*
Y44005D01*
Y45460D01*
X104998D01*
Y44005D01*
Y44002D01*
Y43991D01*
Y43975D01*
Y43950D01*
X105001Y43923D01*
Y43893D01*
X105004Y43857D01*
X105007Y43822D01*
X105012Y43743D01*
X105023Y43663D01*
X105039Y43587D01*
X105048Y43551D01*
X105059Y43521D01*
Y43519D01*
X105061Y43516D01*
X105064Y43508D01*
X105069Y43497D01*
X105086Y43467D01*
X105108Y43434D01*
X105135Y43393D01*
X105170Y43355D01*
X105214Y43317D01*
X105266Y43281D01*
X105269D01*
X105274Y43279D01*
X105282Y43273D01*
X105293Y43268D01*
X105307Y43262D01*
X105326Y43257D01*
X105345Y43249D01*
X105367Y43240D01*
X105422Y43227D01*
X105484Y43213D01*
X105555Y43202D01*
X105632Y43199D01*
X105667D01*
X105692Y43202D01*
X105722Y43205D01*
X105757Y43207D01*
X105796Y43213D01*
X105836Y43221D01*
X105921Y43240D01*
X105965Y43254D01*
X106009Y43270D01*
X106050Y43289D01*
X106088Y43311D01*
X106123Y43336D01*
X106156Y43366D01*
X106159Y43369D01*
X106164Y43374D01*
X106170Y43385D01*
X106181Y43399D01*
X106191Y43418D01*
X106205Y43442D01*
X106221Y43472D01*
X106235Y43508D01*
X106249Y43549D01*
X106265Y43595D01*
X106279Y43647D01*
X106290Y43704D01*
X106301Y43770D01*
X106309Y43841D01*
X106312Y43920D01*
X106314Y44005D01*
Y45460D01*
X106647D01*
Y44005D01*
D02*
G37*
G36*
X108242Y42940D02*
X107933D01*
Y44908D01*
X107928Y44903D01*
X107914Y44889D01*
X107889Y44870D01*
X107854Y44843D01*
X107813Y44810D01*
X107761Y44775D01*
X107704Y44736D01*
X107638Y44695D01*
X107636D01*
X107630Y44690D01*
X107622Y44684D01*
X107608Y44679D01*
X107592Y44668D01*
X107573Y44660D01*
X107529Y44635D01*
X107480Y44611D01*
X107425Y44583D01*
X107368Y44559D01*
X107313Y44537D01*
Y44835D01*
X107316Y44837D01*
X107324Y44840D01*
X107338Y44848D01*
X107357Y44857D01*
X107379Y44867D01*
X107406Y44884D01*
X107436Y44900D01*
X107466Y44916D01*
X107537Y44960D01*
X107614Y45012D01*
X107693Y45067D01*
X107767Y45129D01*
X107769Y45132D01*
X107775Y45138D01*
X107786Y45146D01*
X107799Y45160D01*
X107813Y45176D01*
X107832Y45192D01*
X107873Y45239D01*
X107920Y45288D01*
X107966Y45345D01*
X108007Y45405D01*
X108042Y45468D01*
X108242D01*
Y42940D01*
D02*
G37*
G36*
X116460Y23530D02*
X116457Y23500D01*
Y23470D01*
X116454Y23435D01*
X116452Y23393D01*
X116443Y23312D01*
X116430Y23227D01*
X116413Y23145D01*
X116402Y23110D01*
X116392Y23074D01*
Y23071D01*
X116389Y23066D01*
X116383Y23058D01*
X116378Y23044D01*
X116361Y23011D01*
X116337Y22973D01*
X116304Y22927D01*
X116260Y22880D01*
X116211Y22834D01*
X116151Y22793D01*
X116148D01*
X116143Y22787D01*
X116135Y22782D01*
X116121Y22777D01*
X116105Y22768D01*
X116086Y22760D01*
X116064Y22749D01*
X116039Y22738D01*
X115982Y22719D01*
X115919Y22703D01*
X115848Y22692D01*
X115772Y22686D01*
X115769D01*
X115761D01*
X115744D01*
X115728Y22689D01*
X115703Y22692D01*
X115676Y22695D01*
X115646Y22700D01*
X115613Y22708D01*
X115542Y22730D01*
X115504Y22744D01*
X115466Y22760D01*
X115428Y22779D01*
X115390Y22804D01*
X115354Y22831D01*
X115319Y22861D01*
X115316Y22864D01*
X115310Y22869D01*
X115302Y22880D01*
X115288Y22894D01*
X115275Y22913D01*
X115259Y22935D01*
X115239Y22962D01*
X115220Y22995D01*
X115201Y23031D01*
X115182Y23069D01*
X115163Y23112D01*
X115144Y23162D01*
X115128Y23213D01*
X115111Y23271D01*
X115097Y23334D01*
X115086Y23399D01*
Y23396D01*
X115084Y23393D01*
X115076Y23377D01*
X115062Y23353D01*
X115046Y23323D01*
X115026Y23290D01*
X115007Y23257D01*
X114983Y23224D01*
X114961Y23197D01*
X114958Y23194D01*
X114955Y23191D01*
X114947Y23183D01*
X114936Y23172D01*
X114923Y23159D01*
X114906Y23142D01*
X114868Y23107D01*
X114819Y23066D01*
X114762Y23020D01*
X114696Y22970D01*
X114625Y22921D01*
X113940Y22485D01*
Y22902D01*
X114464Y23235D01*
X114467Y23238D01*
X114475Y23241D01*
X114486Y23249D01*
X114502Y23260D01*
X114521Y23271D01*
X114543Y23287D01*
X114592Y23320D01*
X114650Y23358D01*
X114707Y23396D01*
X114762Y23437D01*
X114811Y23475D01*
X114813D01*
X114816Y23481D01*
X114830Y23492D01*
X114852Y23508D01*
X114876Y23533D01*
X114904Y23557D01*
X114931Y23587D01*
X114958Y23617D01*
X114977Y23645D01*
X114980Y23647D01*
X114986Y23658D01*
X114994Y23672D01*
X115005Y23691D01*
X115015Y23716D01*
X115026Y23740D01*
X115037Y23768D01*
X115046Y23798D01*
Y23800D01*
X115048Y23809D01*
X115051Y23822D01*
X115054Y23841D01*
Y23869D01*
X115057Y23901D01*
X115059Y23939D01*
Y24368D01*
X113940D01*
Y24701D01*
X116460D01*
Y23530D01*
D02*
G37*
G36*
X114008Y22329D02*
X114041Y22326D01*
X114076Y22318D01*
X114115Y22310D01*
X114153Y22296D01*
X114156D01*
X114161Y22293D01*
X114169Y22291D01*
X114183Y22285D01*
X114197Y22277D01*
X114216Y22269D01*
X114259Y22247D01*
X114311Y22220D01*
X114368Y22184D01*
X114429Y22143D01*
X114489Y22094D01*
X114491Y22091D01*
X114497Y22089D01*
X114505Y22080D01*
X114519Y22067D01*
X114532Y22053D01*
X114551Y22034D01*
X114573Y22015D01*
X114598Y21990D01*
X114625Y21963D01*
X114652Y21933D01*
X114685Y21900D01*
X114718Y21862D01*
X114753Y21824D01*
X114789Y21780D01*
X114827Y21736D01*
X114868Y21687D01*
X114871Y21682D01*
X114884Y21668D01*
X114901Y21649D01*
X114925Y21622D01*
X114953Y21589D01*
X114986Y21551D01*
X115021Y21507D01*
X115062Y21463D01*
X115147Y21371D01*
X115237Y21281D01*
X115280Y21237D01*
X115324Y21196D01*
X115365Y21160D01*
X115403Y21130D01*
X115406Y21128D01*
X115411Y21125D01*
X115422Y21117D01*
X115436Y21109D01*
X115455Y21095D01*
X115474Y21084D01*
X115523Y21057D01*
X115581Y21029D01*
X115643Y21005D01*
X115709Y20988D01*
X115742Y20986D01*
X115775Y20983D01*
X115777D01*
X115783D01*
X115794D01*
X115805Y20986D01*
X115821D01*
X115840Y20991D01*
X115881Y20999D01*
X115930Y21016D01*
X115982Y21040D01*
X116009Y21054D01*
X116034Y21073D01*
X116058Y21092D01*
X116083Y21117D01*
X116086Y21120D01*
X116088Y21122D01*
X116094Y21130D01*
X116102Y21141D01*
X116113Y21155D01*
X116124Y21171D01*
X116148Y21210D01*
X116170Y21261D01*
X116192Y21319D01*
X116206Y21387D01*
X116211Y21425D01*
Y21485D01*
X116209Y21502D01*
Y21521D01*
X116203Y21543D01*
X116195Y21592D01*
X116179Y21649D01*
X116154Y21709D01*
X116138Y21739D01*
X116121Y21769D01*
X116099Y21797D01*
X116075Y21824D01*
X116072Y21826D01*
X116069Y21829D01*
X116061Y21835D01*
X116050Y21846D01*
X116037Y21854D01*
X116020Y21865D01*
X116001Y21878D01*
X115979Y21889D01*
X115955Y21903D01*
X115927Y21914D01*
X115862Y21936D01*
X115791Y21952D01*
X115750Y21955D01*
X115706Y21958D01*
X115739Y22274D01*
X115744D01*
X115755Y22272D01*
X115772Y22269D01*
X115796Y22266D01*
X115826Y22261D01*
X115862Y22252D01*
X115900Y22244D01*
X115941Y22231D01*
X115982Y22217D01*
X116028Y22200D01*
X116072Y22179D01*
X116116Y22157D01*
X116162Y22130D01*
X116203Y22099D01*
X116244Y22067D01*
X116279Y22029D01*
X116282Y22026D01*
X116288Y22018D01*
X116296Y22007D01*
X116309Y21990D01*
X116323Y21969D01*
X116340Y21941D01*
X116356Y21911D01*
X116375Y21876D01*
X116392Y21837D01*
X116408Y21794D01*
X116424Y21747D01*
X116438Y21696D01*
X116452Y21641D01*
X116460Y21584D01*
X116465Y21521D01*
X116468Y21455D01*
Y21420D01*
X116465Y21395D01*
X116462Y21365D01*
X116457Y21330D01*
X116452Y21289D01*
X116443Y21248D01*
X116432Y21201D01*
X116419Y21155D01*
X116402Y21106D01*
X116383Y21059D01*
X116359Y21010D01*
X116331Y20964D01*
X116301Y20920D01*
X116266Y20879D01*
X116263Y20877D01*
X116258Y20871D01*
X116244Y20860D01*
X116230Y20846D01*
X116211Y20830D01*
X116187Y20811D01*
X116159Y20792D01*
X116127Y20773D01*
X116094Y20754D01*
X116056Y20734D01*
X116015Y20715D01*
X115971Y20699D01*
X115922Y20685D01*
X115873Y20674D01*
X115821Y20669D01*
X115766Y20666D01*
X115764D01*
X115761D01*
X115753D01*
X115742D01*
X115712Y20669D01*
X115673Y20674D01*
X115627Y20683D01*
X115578Y20694D01*
X115523Y20707D01*
X115469Y20729D01*
X115466D01*
X115463Y20732D01*
X115455Y20734D01*
X115444Y20740D01*
X115414Y20756D01*
X115376Y20778D01*
X115330Y20808D01*
X115278Y20844D01*
X115223Y20885D01*
X115163Y20936D01*
X115160Y20939D01*
X115155Y20942D01*
X115147Y20953D01*
X115133Y20964D01*
X115117Y20980D01*
X115097Y20999D01*
X115073Y21021D01*
X115048Y21048D01*
X115018Y21081D01*
X114986Y21117D01*
X114947Y21155D01*
X114909Y21199D01*
X114865Y21245D01*
X114822Y21297D01*
X114773Y21354D01*
X114721Y21414D01*
X114718Y21417D01*
X114710Y21425D01*
X114699Y21442D01*
X114682Y21458D01*
X114663Y21483D01*
X114641Y21507D01*
X114592Y21564D01*
X114541Y21624D01*
X114486Y21682D01*
X114461Y21709D01*
X114439Y21734D01*
X114418Y21756D01*
X114401Y21772D01*
X114399Y21775D01*
X114388Y21786D01*
X114371Y21799D01*
X114349Y21818D01*
X114325Y21840D01*
X114297Y21862D01*
X114237Y21906D01*
Y20664D01*
X113940D01*
Y22332D01*
X113945D01*
X113959D01*
X113981D01*
X114008Y22329D01*
D02*
G37*
%LPC*%
G36*
X68479Y35641D02*
X67756D01*
Y34740D01*
X68436D01*
X68457Y34743D01*
X68485D01*
X68515Y34746D01*
X68550Y34751D01*
X68586Y34757D01*
X68662Y34770D01*
X68739Y34792D01*
X68774Y34806D01*
X68807Y34822D01*
X68840Y34839D01*
X68867Y34861D01*
X68870Y34863D01*
X68872Y34866D01*
X68880Y34874D01*
X68889Y34882D01*
X68911Y34910D01*
X68935Y34948D01*
X68960Y34997D01*
X68982Y35054D01*
X68998Y35123D01*
X69001Y35158D01*
X69003Y35199D01*
Y35202D01*
Y35207D01*
Y35215D01*
Y35226D01*
X68998Y35256D01*
X68993Y35292D01*
X68984Y35336D01*
X68968Y35379D01*
X68949Y35426D01*
X68922Y35469D01*
X68919Y35475D01*
X68908Y35488D01*
X68889Y35508D01*
X68867Y35529D01*
X68834Y35554D01*
X68799Y35579D01*
X68758Y35600D01*
X68711Y35617D01*
X68709D01*
X68695Y35620D01*
X68673Y35625D01*
X68640Y35630D01*
X68621D01*
X68599Y35633D01*
X68572Y35636D01*
X68545Y35639D01*
X68512D01*
X68479Y35641D01*
D02*
G37*
G36*
X64111Y35660D02*
X63262D01*
Y34828D01*
X64016D01*
X64035Y34830D01*
X64057D01*
X64109Y34833D01*
X64166Y34839D01*
X64226Y34847D01*
X64283Y34858D01*
X64335Y34874D01*
X64338D01*
X64341Y34877D01*
X64357Y34882D01*
X64379Y34893D01*
X64409Y34910D01*
X64439Y34931D01*
X64472Y34956D01*
X64504Y34989D01*
X64532Y35024D01*
X64534Y35030D01*
X64543Y35043D01*
X64553Y35063D01*
X64567Y35093D01*
X64578Y35125D01*
X64589Y35164D01*
X64597Y35207D01*
X64600Y35251D01*
Y35254D01*
Y35259D01*
Y35267D01*
X64597Y35281D01*
Y35295D01*
X64594Y35314D01*
X64583Y35355D01*
X64567Y35401D01*
X64545Y35450D01*
X64512Y35497D01*
X64491Y35521D01*
X64469Y35543D01*
X64466Y35546D01*
X64463Y35548D01*
X64455Y35554D01*
X64444Y35562D01*
X64431Y35570D01*
X64411Y35581D01*
X64392Y35592D01*
X64368Y35603D01*
X64341Y35614D01*
X64310Y35622D01*
X64278Y35633D01*
X64242Y35641D01*
X64201Y35649D01*
X64158Y35655D01*
X64111Y35660D01*
D02*
G37*
G36*
X70923Y35696D02*
X70860D01*
X70843Y35693D01*
X70816D01*
X70786Y35688D01*
X70751Y35682D01*
X70712Y35674D01*
X70669Y35666D01*
X70622Y35652D01*
X70573Y35636D01*
X70521Y35617D01*
X70472Y35592D01*
X70420Y35565D01*
X70368Y35532D01*
X70316Y35494D01*
X70267Y35450D01*
X70265Y35447D01*
X70257Y35439D01*
X70243Y35423D01*
X70229Y35404D01*
X70207Y35377D01*
X70188Y35344D01*
X70164Y35303D01*
X70142Y35259D01*
X70117Y35204D01*
X70093Y35144D01*
X70074Y35079D01*
X70054Y35005D01*
X70038Y34926D01*
X70024Y34839D01*
X70016Y34743D01*
X70013Y34639D01*
Y34634D01*
Y34620D01*
X70016Y34596D01*
Y34563D01*
X70022Y34525D01*
X70027Y34481D01*
X70033Y34432D01*
X70043Y34380D01*
X70057Y34323D01*
X70074Y34263D01*
X70093Y34205D01*
X70117Y34145D01*
X70144Y34085D01*
X70177Y34028D01*
X70213Y33973D01*
X70257Y33921D01*
X70259Y33919D01*
X70267Y33911D01*
X70281Y33897D01*
X70300Y33880D01*
X70325Y33861D01*
X70355Y33839D01*
X70388Y33815D01*
X70426Y33793D01*
X70467Y33768D01*
X70516Y33744D01*
X70565Y33722D01*
X70620Y33703D01*
X70677Y33687D01*
X70740Y33673D01*
X70802Y33665D01*
X70871Y33662D01*
X70887D01*
X70906Y33665D01*
X70934Y33667D01*
X70966Y33670D01*
X71002Y33676D01*
X71045Y33684D01*
X71089Y33695D01*
X71138Y33709D01*
X71187Y33725D01*
X71239Y33747D01*
X71291Y33774D01*
X71343Y33804D01*
X71395Y33837D01*
X71444Y33878D01*
X71490Y33924D01*
X71493Y33927D01*
X71501Y33938D01*
X71512Y33951D01*
X71529Y33973D01*
X71548Y34001D01*
X71570Y34033D01*
X71591Y34072D01*
X71613Y34118D01*
X71635Y34167D01*
X71660Y34225D01*
X71679Y34284D01*
X71698Y34353D01*
X71714Y34427D01*
X71725Y34503D01*
X71733Y34587D01*
X71736Y34675D01*
Y34678D01*
Y34688D01*
Y34705D01*
X71733Y34727D01*
Y34754D01*
X71731Y34784D01*
X71728Y34820D01*
X71723Y34858D01*
X71711Y34942D01*
X71692Y35032D01*
X71665Y35123D01*
X71630Y35213D01*
Y35215D01*
X71624Y35224D01*
X71619Y35235D01*
X71610Y35251D01*
X71600Y35270D01*
X71586Y35292D01*
X71553Y35344D01*
X71509Y35401D01*
X71458Y35458D01*
X71398Y35516D01*
X71327Y35568D01*
X71324Y35570D01*
X71318Y35573D01*
X71307Y35579D01*
X71291Y35587D01*
X71272Y35598D01*
X71250Y35609D01*
X71226Y35620D01*
X71196Y35633D01*
X71163Y35644D01*
X71130Y35655D01*
X71054Y35677D01*
X70969Y35691D01*
X70923Y35696D01*
D02*
G37*
G36*
X115187Y50542D02*
X115184D01*
X115178D01*
X115170D01*
X115159D01*
X115129Y50536D01*
X115094Y50531D01*
X115050Y50523D01*
X115006Y50506D01*
X114960Y50487D01*
X114916Y50460D01*
X114911Y50457D01*
X114897Y50446D01*
X114878Y50427D01*
X114856Y50405D01*
X114832Y50372D01*
X114807Y50337D01*
X114785Y50296D01*
X114769Y50250D01*
Y50247D01*
X114766Y50233D01*
X114761Y50211D01*
X114755Y50179D01*
Y50160D01*
X114752Y50138D01*
X114750Y50110D01*
X114747Y50083D01*
Y50050D01*
X114744Y50017D01*
Y49294D01*
X115645D01*
Y49974D01*
X115642Y49996D01*
Y50023D01*
X115640Y50053D01*
X115634Y50089D01*
X115629Y50124D01*
X115615Y50200D01*
X115593Y50277D01*
X115580Y50312D01*
X115563Y50345D01*
X115547Y50378D01*
X115525Y50405D01*
X115522Y50408D01*
X115520Y50411D01*
X115512Y50419D01*
X115503Y50427D01*
X115476Y50449D01*
X115438Y50473D01*
X115389Y50498D01*
X115331Y50520D01*
X115263Y50536D01*
X115228Y50539D01*
X115187Y50542D01*
D02*
G37*
G36*
X115689Y48158D02*
X115683D01*
X115673D01*
X115651D01*
X115623Y48156D01*
X115591D01*
X115552Y48153D01*
X115512Y48147D01*
X115465Y48142D01*
X115367Y48126D01*
X115266Y48104D01*
X115170Y48071D01*
X115124Y48049D01*
X115083Y48027D01*
X115080Y48025D01*
X115075Y48022D01*
X115064Y48014D01*
X115047Y48003D01*
X115031Y47992D01*
X115012Y47976D01*
X114968Y47940D01*
X114919Y47894D01*
X114873Y47839D01*
X114829Y47779D01*
X114813Y47746D01*
X114796Y47711D01*
Y47708D01*
X114794Y47705D01*
X114791Y47697D01*
X114788Y47686D01*
X114785Y47670D01*
X114780Y47653D01*
X114774Y47631D01*
X114769Y47607D01*
X114766Y47580D01*
X114761Y47547D01*
X114755Y47511D01*
X114752Y47473D01*
X114750Y47429D01*
X114747Y47383D01*
X114744Y47334D01*
Y46752D01*
X116669D01*
Y47331D01*
X116666Y47353D01*
Y47378D01*
X116664Y47432D01*
X116658Y47495D01*
X116650Y47561D01*
X116639Y47623D01*
X116625Y47681D01*
Y47683D01*
X116623Y47686D01*
X116620Y47694D01*
X116617Y47705D01*
X116606Y47730D01*
X116593Y47763D01*
X116574Y47798D01*
X116552Y47836D01*
X116524Y47875D01*
X116494Y47907D01*
X116492Y47910D01*
X116489Y47913D01*
X116472Y47926D01*
X116445Y47948D01*
X116410Y47976D01*
X116363Y48003D01*
X116309Y48033D01*
X116246Y48063D01*
X116175Y48090D01*
X116172D01*
X116167Y48093D01*
X116156Y48096D01*
X116139Y48101D01*
X116120Y48107D01*
X116096Y48112D01*
X116068Y48118D01*
X116038Y48126D01*
X116006Y48131D01*
X115967Y48137D01*
X115929Y48142D01*
X115885Y48147D01*
X115793Y48156D01*
X115689Y48158D01*
D02*
G37*
G36*
X99606Y25352D02*
X98773D01*
Y24599D01*
X98776Y24580D01*
Y24558D01*
X98778Y24506D01*
X98784Y24449D01*
X98792Y24389D01*
X98803Y24331D01*
X98819Y24280D01*
Y24277D01*
X98822Y24274D01*
X98827Y24258D01*
X98838Y24236D01*
X98855Y24206D01*
X98877Y24176D01*
X98901Y24143D01*
X98934Y24110D01*
X98970Y24083D01*
X98975Y24080D01*
X98989Y24072D01*
X99008Y24061D01*
X99038Y24047D01*
X99071Y24036D01*
X99109Y24026D01*
X99152Y24017D01*
X99196Y24015D01*
X99199D01*
X99204D01*
X99212D01*
X99226Y24017D01*
X99240D01*
X99259Y24020D01*
X99300Y24031D01*
X99346Y24047D01*
X99395Y24069D01*
X99442Y24102D01*
X99466Y24124D01*
X99488Y24146D01*
X99491Y24148D01*
X99494Y24151D01*
X99499Y24159D01*
X99507Y24170D01*
X99515Y24184D01*
X99526Y24203D01*
X99537Y24222D01*
X99548Y24247D01*
X99559Y24274D01*
X99567Y24304D01*
X99578Y24337D01*
X99586Y24372D01*
X99595Y24413D01*
X99600Y24457D01*
X99606Y24503D01*
Y25352D01*
D02*
G37*
G36*
X92262Y45328D02*
Y45325D01*
X92259Y45317D01*
X92256Y45303D01*
X92254Y45287D01*
X92248Y45262D01*
X92243Y45238D01*
X92234Y45208D01*
X92226Y45175D01*
X92218Y45139D01*
X92207Y45101D01*
X92183Y45019D01*
X92155Y44932D01*
X92125Y44842D01*
X91847Y44102D01*
X92707D01*
X92442Y44801D01*
Y44804D01*
X92436Y44815D01*
X92431Y44831D01*
X92423Y44855D01*
X92412Y44880D01*
X92401Y44913D01*
X92387Y44948D01*
X92374Y44987D01*
X92346Y45071D01*
X92316Y45158D01*
X92286Y45246D01*
X92262Y45328D01*
D02*
G37*
G36*
X88945Y45292D02*
X88393D01*
Y44531D01*
X88991D01*
X89013Y44533D01*
X89060D01*
X89111Y44536D01*
X89166Y44541D01*
X89215Y44550D01*
X89237Y44552D01*
X89256Y44558D01*
X89259D01*
X89262Y44561D01*
X89278Y44566D01*
X89300Y44574D01*
X89327Y44588D01*
X89357Y44604D01*
X89390Y44626D01*
X89420Y44653D01*
X89447Y44684D01*
X89450Y44689D01*
X89458Y44700D01*
X89469Y44719D01*
X89480Y44743D01*
X89491Y44776D01*
X89502Y44815D01*
X89510Y44855D01*
X89513Y44905D01*
Y44907D01*
Y44910D01*
Y44926D01*
X89510Y44948D01*
X89504Y44978D01*
X89496Y45014D01*
X89485Y45052D01*
X89472Y45090D01*
X89450Y45126D01*
X89447Y45131D01*
X89439Y45142D01*
X89425Y45158D01*
X89406Y45178D01*
X89382Y45199D01*
X89352Y45221D01*
X89319Y45240D01*
X89278Y45257D01*
X89272Y45259D01*
X89267D01*
X89256Y45262D01*
X89245Y45265D01*
X89229Y45268D01*
X89210Y45270D01*
X89191Y45276D01*
X89166Y45279D01*
X89136Y45281D01*
X89106Y45284D01*
X89070Y45287D01*
X89032Y45289D01*
X88991D01*
X88945Y45292D01*
D02*
G37*
G36*
X88975Y44233D02*
X88393D01*
Y43368D01*
X89076D01*
X89111Y43370D01*
X89147D01*
X89185Y43373D01*
X89221Y43376D01*
X89248Y43378D01*
X89253D01*
X89267Y43381D01*
X89289Y43387D01*
X89316Y43395D01*
X89346Y43403D01*
X89376Y43417D01*
X89409Y43430D01*
X89439Y43447D01*
X89442Y43450D01*
X89453Y43455D01*
X89466Y43466D01*
X89485Y43482D01*
X89504Y43501D01*
X89526Y43526D01*
X89548Y43553D01*
X89567Y43586D01*
X89570Y43591D01*
X89575Y43602D01*
X89584Y43622D01*
X89595Y43649D01*
X89603Y43679D01*
X89611Y43714D01*
X89616Y43755D01*
X89619Y43799D01*
Y43802D01*
Y43804D01*
Y43813D01*
Y43824D01*
X89616Y43848D01*
X89611Y43884D01*
X89600Y43922D01*
X89589Y43963D01*
X89570Y44004D01*
X89545Y44045D01*
X89543Y44050D01*
X89532Y44061D01*
X89515Y44080D01*
X89494Y44102D01*
X89464Y44126D01*
X89428Y44148D01*
X89390Y44170D01*
X89343Y44189D01*
X89341D01*
X89338Y44192D01*
X89330Y44195D01*
X89319Y44197D01*
X89305Y44200D01*
X89292Y44203D01*
X89272Y44208D01*
X89251Y44211D01*
X89223Y44217D01*
X89196Y44219D01*
X89166Y44222D01*
X89133Y44228D01*
X89060Y44230D01*
X88975Y44233D01*
D02*
G37*
G36*
X84763Y45311D02*
X83913D01*
Y44479D01*
X84667D01*
X84686Y44482D01*
X84708D01*
X84760Y44484D01*
X84817Y44490D01*
X84877Y44498D01*
X84935Y44509D01*
X84986Y44525D01*
X84989D01*
X84992Y44528D01*
X85008Y44533D01*
X85030Y44544D01*
X85060Y44561D01*
X85090Y44583D01*
X85123Y44607D01*
X85156Y44640D01*
X85183Y44675D01*
X85186Y44681D01*
X85194Y44694D01*
X85205Y44714D01*
X85218Y44743D01*
X85229Y44776D01*
X85240Y44815D01*
X85248Y44858D01*
X85251Y44902D01*
Y44905D01*
Y44910D01*
Y44918D01*
X85248Y44932D01*
Y44945D01*
X85246Y44965D01*
X85235Y45006D01*
X85218Y45052D01*
X85197Y45101D01*
X85164Y45148D01*
X85142Y45172D01*
X85120Y45194D01*
X85117Y45197D01*
X85115Y45199D01*
X85106Y45205D01*
X85096Y45213D01*
X85082Y45221D01*
X85063Y45232D01*
X85044Y45243D01*
X85019Y45254D01*
X84992Y45265D01*
X84962Y45273D01*
X84929Y45284D01*
X84894Y45292D01*
X84852Y45300D01*
X84809Y45306D01*
X84763Y45311D01*
D02*
G37*
G36*
X102135Y27356D02*
X102132D01*
X102127D01*
X102118D01*
X102105Y27353D01*
X102091D01*
X102072Y27351D01*
X102031Y27340D01*
X101985Y27323D01*
X101936Y27301D01*
X101889Y27269D01*
X101865Y27247D01*
X101843Y27225D01*
X101840Y27222D01*
X101837Y27220D01*
X101832Y27211D01*
X101823Y27200D01*
X101815Y27187D01*
X101804Y27168D01*
X101794Y27149D01*
X101783Y27124D01*
X101772Y27097D01*
X101763Y27067D01*
X101752Y27034D01*
X101744Y26998D01*
X101736Y26957D01*
X101731Y26914D01*
X101725Y26867D01*
Y26018D01*
X102558D01*
Y26772D01*
X102555Y26791D01*
Y26813D01*
X102552Y26865D01*
X102547Y26922D01*
X102539Y26982D01*
X102528Y27039D01*
X102512Y27091D01*
Y27094D01*
X102509Y27097D01*
X102503Y27113D01*
X102492Y27135D01*
X102476Y27165D01*
X102454Y27195D01*
X102430Y27228D01*
X102397Y27261D01*
X102361Y27288D01*
X102356Y27291D01*
X102342Y27299D01*
X102323Y27310D01*
X102293Y27323D01*
X102260Y27334D01*
X102222Y27345D01*
X102178Y27353D01*
X102135Y27356D01*
D02*
G37*
G36*
X126407Y24271D02*
X125574D01*
Y23517D01*
X125577Y23498D01*
Y23476D01*
X125580Y23425D01*
X125585Y23367D01*
X125593Y23307D01*
X125604Y23250D01*
X125620Y23198D01*
Y23195D01*
X125623Y23193D01*
X125629Y23176D01*
X125640Y23154D01*
X125656Y23124D01*
X125678Y23094D01*
X125702Y23062D01*
X125735Y23029D01*
X125771Y23001D01*
X125776Y22999D01*
X125790Y22991D01*
X125809Y22980D01*
X125839Y22966D01*
X125872Y22955D01*
X125910Y22944D01*
X125953Y22936D01*
X125997Y22933D01*
X126000D01*
X126005D01*
X126014D01*
X126027Y22936D01*
X126041D01*
X126060Y22939D01*
X126101Y22950D01*
X126147Y22966D01*
X126197Y22988D01*
X126243Y23021D01*
X126268Y23042D01*
X126289Y23064D01*
X126292Y23067D01*
X126295Y23070D01*
X126300Y23078D01*
X126308Y23089D01*
X126317Y23102D01*
X126328Y23122D01*
X126338Y23141D01*
X126349Y23165D01*
X126360Y23193D01*
X126368Y23223D01*
X126379Y23255D01*
X126388Y23291D01*
X126396Y23332D01*
X126401Y23376D01*
X126407Y23422D01*
Y24271D01*
D02*
G37*
G36*
X89718Y57301D02*
X89655D01*
X89638Y57298D01*
X89611D01*
X89581Y57292D01*
X89546Y57287D01*
X89507Y57279D01*
X89464Y57270D01*
X89417Y57257D01*
X89368Y57240D01*
X89316Y57221D01*
X89267Y57197D01*
X89215Y57170D01*
X89163Y57137D01*
X89112Y57099D01*
X89062Y57055D01*
X89060Y57052D01*
X89052Y57044D01*
X89038Y57028D01*
X89024Y57008D01*
X89002Y56981D01*
X88983Y56948D01*
X88959Y56907D01*
X88937Y56864D01*
X88912Y56809D01*
X88888Y56749D01*
X88869Y56683D01*
X88850Y56610D01*
X88833Y56531D01*
X88819Y56443D01*
X88811Y56348D01*
X88809Y56244D01*
Y56239D01*
Y56225D01*
X88811Y56200D01*
Y56168D01*
X88817Y56129D01*
X88822Y56086D01*
X88828Y56037D01*
X88838Y55985D01*
X88852Y55927D01*
X88869Y55867D01*
X88888Y55810D01*
X88912Y55750D01*
X88939Y55690D01*
X88972Y55633D01*
X89008Y55578D01*
X89052Y55526D01*
X89054Y55523D01*
X89062Y55515D01*
X89076Y55501D01*
X89095Y55485D01*
X89120Y55466D01*
X89150Y55444D01*
X89183Y55419D01*
X89221Y55398D01*
X89262Y55373D01*
X89311Y55349D01*
X89360Y55327D01*
X89415Y55308D01*
X89472Y55291D01*
X89535Y55278D01*
X89597Y55269D01*
X89666Y55267D01*
X89682D01*
X89701Y55269D01*
X89728Y55272D01*
X89761Y55275D01*
X89797Y55280D01*
X89840Y55288D01*
X89884Y55299D01*
X89933Y55313D01*
X89982Y55329D01*
X90034Y55351D01*
X90086Y55379D01*
X90138Y55409D01*
X90190Y55441D01*
X90239Y55482D01*
X90285Y55529D01*
X90288Y55532D01*
X90296Y55542D01*
X90307Y55556D01*
X90324Y55578D01*
X90343Y55605D01*
X90365Y55638D01*
X90386Y55676D01*
X90408Y55723D01*
X90430Y55772D01*
X90455Y55829D01*
X90474Y55889D01*
X90493Y55957D01*
X90509Y56031D01*
X90520Y56107D01*
X90528Y56192D01*
X90531Y56279D01*
Y56282D01*
Y56293D01*
Y56309D01*
X90528Y56331D01*
Y56359D01*
X90526Y56389D01*
X90523Y56424D01*
X90517Y56462D01*
X90507Y56547D01*
X90487Y56637D01*
X90460Y56727D01*
X90425Y56817D01*
Y56820D01*
X90419Y56828D01*
X90414Y56839D01*
X90406Y56855D01*
X90395Y56875D01*
X90381Y56897D01*
X90348Y56948D01*
X90304Y57006D01*
X90253Y57063D01*
X90193Y57120D01*
X90122Y57172D01*
X90119Y57175D01*
X90114Y57178D01*
X90102Y57183D01*
X90086Y57191D01*
X90067Y57202D01*
X90045Y57213D01*
X90021Y57224D01*
X89991Y57238D01*
X89958Y57249D01*
X89925Y57260D01*
X89849Y57281D01*
X89764Y57295D01*
X89718Y57301D01*
D02*
G37*
G36*
X116181Y24368D02*
X115349D01*
Y23615D01*
X115351Y23596D01*
Y23574D01*
X115354Y23522D01*
X115359Y23464D01*
X115368Y23404D01*
X115379Y23347D01*
X115395Y23295D01*
Y23292D01*
X115398Y23290D01*
X115403Y23273D01*
X115414Y23252D01*
X115430Y23222D01*
X115452Y23191D01*
X115477Y23159D01*
X115510Y23126D01*
X115545Y23099D01*
X115551Y23096D01*
X115564Y23088D01*
X115583Y23077D01*
X115613Y23063D01*
X115646Y23052D01*
X115684Y23041D01*
X115728Y23033D01*
X115772Y23031D01*
X115775D01*
X115780D01*
X115788D01*
X115802Y23033D01*
X115815D01*
X115834Y23036D01*
X115875Y23047D01*
X115922Y23063D01*
X115971Y23085D01*
X116017Y23118D01*
X116042Y23140D01*
X116064Y23162D01*
X116067Y23164D01*
X116069Y23167D01*
X116075Y23175D01*
X116083Y23186D01*
X116091Y23200D01*
X116102Y23219D01*
X116113Y23238D01*
X116124Y23262D01*
X116135Y23290D01*
X116143Y23320D01*
X116154Y23353D01*
X116162Y23388D01*
X116170Y23429D01*
X116176Y23473D01*
X116181Y23519D01*
Y24368D01*
D02*
G37*
%LPD*%
D11*
X52772Y53107D02*
X73087D01*
Y13816D02*
Y53107D01*
X52772Y13816D02*
X73087D01*
X52772D02*
Y53107D01*
X114516Y36313D02*
X120815D01*
Y47337D01*
X114516D02*
X120815D01*
X114516Y36313D02*
Y47337D01*
X99717Y18402D02*
Y32969D01*
X93614Y18402D02*
X99717D01*
X93614D02*
Y32969D01*
X99717D01*
X76875Y46037D02*
X90285D01*
Y38706D02*
Y46037D01*
X76875Y38706D02*
X90285D01*
X76875D02*
Y46037D01*
X101614Y18402D02*
Y32969D01*
X107717D01*
Y18402D02*
Y32969D01*
X101614Y18402D02*
X107717D01*
X127807Y16336D02*
Y32872D01*
X120524Y16336D02*
X127807D01*
X120524D02*
Y32872D01*
X127807D01*
X78459Y57474D02*
X89483D01*
Y51175D02*
Y57474D01*
X78459Y51175D02*
X89483D01*
X78459D02*
Y57474D01*
X91361Y68553D02*
Y79577D01*
X85062Y68553D02*
X91361D01*
X85062D02*
Y79577D01*
X91361D01*
X96652Y36206D02*
Y49592D01*
Y36206D02*
X112679D01*
Y49592D01*
X96652D02*
X112679D01*
X110298Y32969D02*
X117582D01*
X110298Y16433D02*
Y32969D01*
Y16433D02*
X117582D01*
Y32969D01*
M02*
