G04*
G04 #@! TF.GenerationSoftware,Altium Limited,Altium Designer,25.8.1 (18)*
G04*
G04 Layer_Color=32768*
%FSLAX25Y25*%
%MOIN*%
G70*
G04*
G04 #@! TF.SameCoordinates,42E29172-AB17-4D01-AB3A-1E57205C25AC*
G04*
G04*
G04 #@! TF.FilePolarity,Positive*
G04*
G01*
G75*
%ADD11C,0.00787*%
%ADD51C,0.00394*%
%ADD52C,0.00197*%
D11*
X52772Y53107D02*
X73087D01*
Y13816D02*
Y53107D01*
X52772Y13816D02*
X73087D01*
X52772D02*
Y53107D01*
X114516Y36313D02*
X120815D01*
Y47337D01*
X114516D02*
X120815D01*
X114516Y36313D02*
Y47337D01*
X99717Y18402D02*
Y32969D01*
X93614Y18402D02*
X99717D01*
X93614D02*
Y32969D01*
X99717D01*
X76875Y46037D02*
X90285D01*
Y38706D02*
Y46037D01*
X76875Y38706D02*
X90285D01*
X76875D02*
Y46037D01*
X101614Y18402D02*
Y32969D01*
X107717D01*
Y18402D02*
Y32969D01*
X101614Y18402D02*
X107717D01*
X127807Y16336D02*
Y32872D01*
X120524Y16336D02*
X127807D01*
X120524D02*
Y32872D01*
X127807D01*
X78459Y57474D02*
X89483D01*
Y51175D02*
Y57474D01*
X78459Y51175D02*
X89483D01*
X78459D02*
Y57474D01*
X91361Y68553D02*
Y79577D01*
X85062Y68553D02*
X91361D01*
X85062D02*
Y79577D01*
X91361D01*
X96652Y36206D02*
Y49592D01*
Y36206D02*
X112679D01*
Y49592D01*
X96652D02*
X112679D01*
X110298Y32969D02*
X117582D01*
X110298Y16433D02*
Y32969D01*
Y16433D02*
X117582D01*
Y32969D01*
D51*
X123197Y66746D02*
X127134D01*
X125165Y64778D02*
Y68715D01*
X17197Y84325D02*
X21134D01*
X19165Y82356D02*
Y86293D01*
X36700Y43006D02*
X40637D01*
X38668Y41037D02*
Y44974D01*
X55665Y64371D02*
Y68308D01*
X53697Y66339D02*
X57634D01*
X83971Y27753D02*
Y31690D01*
X82002Y29722D02*
X85940D01*
X83971Y16167D02*
Y20104D01*
X82002Y18136D02*
X85940D01*
X70722Y70325D02*
X74659D01*
X72690Y68356D02*
Y72293D01*
X43165Y74557D02*
Y78494D01*
X41197Y76526D02*
X45134D01*
D52*
X161780Y51785D02*
Y81707D01*
X115717D02*
X161780D01*
X115717Y51785D02*
Y81707D01*
Y51785D02*
X161780D01*
X2827Y106962D02*
X35504D01*
X2827Y63931D02*
Y106962D01*
X35504Y63931D02*
Y106962D01*
X2827Y63931D02*
X35504D01*
X2054Y28045D02*
Y57967D01*
X2054Y28045D02*
X48117D01*
X48117D02*
Y57967D01*
X2054D02*
X48117D01*
X50272Y77245D02*
X61059D01*
X50272Y60446D02*
Y77245D01*
Y60446D02*
X61059D01*
Y77245D01*
X75506Y24604D02*
X92436D01*
X75506Y34840D02*
X92436D01*
Y24604D02*
Y34840D01*
X75506Y24604D02*
Y34840D01*
X75506Y13017D02*
X92436D01*
X75506Y23254D02*
X92436D01*
Y13017D02*
Y23254D01*
X75506Y13017D02*
Y23254D01*
X83910Y60286D02*
Y80364D01*
X62257Y60286D02*
Y80364D01*
Y60286D02*
X83910D01*
X62257Y80364D02*
X83910D01*
X37850Y73179D02*
X48480D01*
X37850Y79872D02*
X48480D01*
Y73179D02*
Y79872D01*
X37850Y73179D02*
Y79872D01*
M02*
