M48
;Layer_Color=9474304
;FILE_FORMAT=2:4
INCH,TZ
;TYPE=PLATED
T01F00S00C0.0120
T02F00S00C0.0276
T03F00S00C0.0354
T04F00S00C0.0512
T05F00S00C0.1260
%
T01
X30640Y36968
Y38937
Y40905
Y42874
X32609
X33918Y40905
X33593Y38937
X35600Y38801
X37104Y40905
X39073
X38855Y39600
X38805Y38000
X39950
Y38937
X40041Y36857
X40500Y35599
X41427Y34526
X41174Y33100
X43142
Y35069
X42448Y36371
X41800Y37124
X44978Y37953
Y39921
X43010Y40905
Y42874
X41041
Y40905
X39073Y42874
X37018Y36416
X38057Y34381
X37237Y33100
X39206
X35268
X33300
X32735Y35643
X44978Y35984
T02
X36328Y34914
Y35914
Y36914
T03
X33900Y36376
Y37360
X42550Y38750
Y39734
T04
X31950Y40000
Y42000
T05
X31257Y33787
X35601Y42260
X45152Y42260
X45152Y33790
M30
