G04*
G04 #@! TF.GenerationSoftware,Altium Limited,Altium Designer,25.8.1 (18)*
G04*
G04 Layer_Color=32896*
%FSLAX25Y25*%
%MOIN*%
G70*
G04*
G04 #@! TF.SameCoordinates,A2030EB1-7BB1-480F-B386-6677E5CB5BAE*
G04*
G04*
G04 #@! TF.FilePolarity,Positive*
G04*
G01*
G75*
%ADD12C,0.00800*%
D12*
X323123Y408832D02*
X326455D01*
X323123Y412164D01*
Y412997D01*
X323956Y413830D01*
X325622D01*
X326455Y412997D01*
X318957Y408832D02*
Y413830D01*
X321457Y411331D01*
X318125D01*
X316458Y413830D02*
Y410498D01*
X314792Y408832D01*
X313126Y410498D01*
Y413830D01*
X323123Y393237D02*
X323956Y394070D01*
X325622D01*
X326455Y393237D01*
Y389905D01*
X325622Y389072D01*
X323956D01*
X323123Y389905D01*
Y391571D01*
X324789D01*
X321457Y389072D02*
Y394070D01*
X318125Y389072D01*
Y394070D01*
X316458D02*
Y389072D01*
X313959D01*
X313126Y389905D01*
Y393237D01*
X313959Y394070D01*
X316458D01*
X331852Y371238D02*
Y374570D01*
X330186Y376237D01*
X328520Y374570D01*
Y371238D01*
Y373737D01*
X331852D01*
X326854Y376237D02*
X325188D01*
X326021D01*
Y371238D01*
X326854D01*
X325188D01*
X322689D02*
Y376237D01*
X319356Y371238D01*
Y376237D01*
X328872Y365717D02*
X329705Y366550D01*
X331371D01*
X332204Y365717D01*
Y362385D01*
X331371Y361551D01*
X329705D01*
X328872Y362385D01*
Y364051D01*
X330538D01*
X327206Y361551D02*
Y366550D01*
X323873Y361551D01*
Y366550D01*
X322207D02*
Y361551D01*
X319708D01*
X318875Y362385D01*
Y365717D01*
X319708Y366550D01*
X322207D01*
X446304Y385896D02*
Y390895D01*
X443805D01*
X442972Y390061D01*
Y388395D01*
X443805Y387562D01*
X446304D01*
X441306Y390895D02*
Y385896D01*
X439640Y387562D01*
X437974Y385896D01*
Y390895D01*
X436308Y385896D02*
Y390895D01*
X434642Y389228D01*
X432975Y390895D01*
Y385896D01*
X442972Y398904D02*
X443805Y399737D01*
X445471D01*
X446304Y398904D01*
Y395572D01*
X445471Y394739D01*
X443805D01*
X442972Y395572D01*
Y397238D01*
X444638D01*
X441306Y394739D02*
Y399737D01*
X437974Y394739D01*
Y399737D01*
X436308D02*
Y394739D01*
X433808D01*
X432975Y395572D01*
Y398904D01*
X433808Y399737D01*
X436308D01*
M02*
