G04*
G04 #@! TF.GenerationSoftware,Altium Limited,Altium Designer,25.8.1 (18)*
G04*
G04 Layer_Color=16711935*
%FSLAX25Y25*%
%MOIN*%
G70*
G04*
G04 #@! TF.SameCoordinates,A2030EB1-7BB1-480F-B386-6677E5CB5BAE*
G04*
G04*
G04 #@! TF.FilePolarity,Positive*
G04*
G01*
G75*
%ADD11C,0.00787*%
%ADD52C,0.00394*%
D11*
X385790Y403972D02*
X391302D01*
X385790Y395508D02*
Y403972D01*
Y395508D02*
X391302D01*
Y403972D01*
X417129Y346046D02*
Y354707D01*
X411420Y346046D02*
X417129D01*
X411420D02*
Y354707D01*
X417129D01*
X353500Y339885D02*
Y378388D01*
Y339885D02*
X373028D01*
Y378388D01*
X353500D02*
X373028D01*
X401801Y374283D02*
X408199D01*
Y362865D02*
Y374283D01*
X401801Y362865D02*
X408199D01*
X401801D02*
Y374283D01*
X415244Y363268D02*
Y371732D01*
X420756D01*
Y363268D02*
Y371732D01*
X415244Y363268D02*
X420756D01*
X402342Y347030D02*
X407657D01*
Y355691D01*
X402342D02*
X407657D01*
X402342Y347030D02*
Y355691D01*
X380073Y377244D02*
Y382756D01*
Y377244D02*
X388538D01*
Y382756D01*
X380073D02*
X388538D01*
X379978Y365586D02*
Y370507D01*
Y365586D02*
X387852D01*
Y370507D01*
X379978D02*
X387852D01*
X421646Y354610D02*
X427354D01*
X421646Y345948D02*
Y354610D01*
Y345948D02*
X427354D01*
Y354610D01*
X394343Y355691D02*
X399657D01*
X394343Y347030D02*
Y355691D01*
Y347030D02*
X399657D01*
Y355691D01*
D52*
X367906Y405055D02*
X378143D01*
X367906Y386945D02*
X378143D01*
X367906D02*
Y405055D01*
X378143Y386945D02*
Y405055D01*
X359740Y392325D02*
Y400062D01*
X352260Y392325D02*
X359740D01*
X352260D02*
Y400062D01*
X359740D01*
X339169Y399346D02*
Y405055D01*
X347831Y399346D02*
Y405055D01*
X339169D02*
X347831D01*
X339169Y399346D02*
X347831D01*
X379975Y340956D02*
Y346665D01*
X388636Y340956D02*
Y346665D01*
X379975D02*
X388636D01*
X379975Y340956D02*
X388636D01*
X416445Y377854D02*
X461721D01*
X416445D02*
Y406988D01*
X461721D01*
Y377854D02*
Y406988D01*
X305811Y431209D02*
X306401Y430507D01*
Y430000D02*
Y430507D01*
X305811Y431210D02*
Y432244D01*
X335444Y390000D02*
Y430000D01*
X303555Y390000D02*
Y430000D01*
X335444D01*
X303555Y390000D02*
X335444D01*
X305811Y432244D02*
X308621D01*
X308621Y432244D01*
Y431209D02*
Y432244D01*
X308031Y430000D02*
Y430507D01*
X308622Y431209D01*
X302783Y383248D02*
X348058D01*
Y354114D02*
Y383248D01*
X302783Y354114D02*
X348058D01*
X302783D02*
Y383248D01*
X379975Y352543D02*
Y358252D01*
X388636Y352543D02*
Y358252D01*
X379975D02*
X388636D01*
X379975Y352543D02*
X388636D01*
M02*
