M48
;Layer_Color=9474304
;FILE_FORMAT=2:4
INCH,TZ
;TYPE=PLATED
T06F00S00C0.0120
%
T06
X30640Y36968
Y38937
Y40905
Y42874
X32609
X33918Y40905
X33593Y38937
X35600Y38801
X37104Y40905
X39073
X38855Y39600
X38805Y38000
X39950
Y38937
X40041Y36857
X40500Y35599
X41427Y34526
X41174Y33100
X43142
Y35069
X42448Y36371
X41800Y37124
X44978Y37953
Y39921
X43010Y40905
Y42874
X41041
Y40905
X39073Y42874
X37018Y36416
X38057Y34381
X37237Y33100
X39206
X35268
X33300
X32735Y35643
X44978Y35984
M30
