G04*
G04 #@! TF.GenerationSoftware,Altium Limited,Altium Designer,25.8.1 (18)*
G04*
G04 Layer_Color=8388736*
%FSLAX25Y25*%
%MOIN*%
G70*
G04*
G04 #@! TF.SameCoordinates,56A1E367-760B-4AC4-8A34-0993C94A04D8*
G04*
G04*
G04 #@! TF.FilePolarity,Positive*
G04*
G01*
G75*
%ADD49C,0.02400*%
D49*
X424476Y363707D02*
D03*
X399500Y380000D02*
D03*
X327348Y356427D02*
D03*
X352685Y331000D02*
D03*
X333000D02*
D03*
X306403Y369684D02*
D03*
X370180Y364165D02*
D03*
X372370Y331000D02*
D03*
X306403Y389369D02*
D03*
X335931D02*
D03*
X306403Y409054D02*
D03*
Y428739D02*
D03*
X326088D02*
D03*
X339182Y409054D02*
D03*
X371041D02*
D03*
X411740Y331000D02*
D03*
X392055D02*
D03*
X405000Y355987D02*
D03*
X431425Y331000D02*
D03*
Y350685D02*
D03*
X449781Y359841D02*
D03*
X399500Y389369D02*
D03*
X390726Y409054D02*
D03*
Y428739D02*
D03*
X449781Y379526D02*
D03*
Y399211D02*
D03*
X410411Y409054D02*
D03*
Y428739D02*
D03*
X430096Y409054D02*
D03*
Y428739D02*
D03*
X418000Y371240D02*
D03*
X388546Y396000D02*
D03*
X414275Y345258D02*
D03*
X380565Y343811D02*
D03*
X400411Y368574D02*
D03*
X388046Y380000D02*
D03*
X356000Y388015D02*
D03*
M02*
