G04*
G04 #@! TF.GenerationSoftware,Altium Limited,Altium Designer,25.8.1 (18)*
G04*
G04 Layer_Color=16711935*
%FSLAX25Y25*%
%MOIN*%
G70*
G04*
G04 #@! TF.SameCoordinates,A2030EB1-7BB1-480F-B386-6677E5CB5BAE*
G04*
G04*
G04 #@! TF.FilePolarity,Positive*
G04*
G01*
G75*
%ADD11C,0.00787*%
G36*
X390588Y399738D02*
X390623Y399735D01*
X390664Y399732D01*
X390708Y399727D01*
X390757Y399721D01*
X390809Y399713D01*
X390863Y399705D01*
X390981Y399677D01*
X391038Y399658D01*
X391096Y399639D01*
X391156Y399617D01*
X391210Y399590D01*
X391213Y399587D01*
X391224Y399582D01*
X391237Y399574D01*
X391259Y399563D01*
X391284Y399546D01*
X391311Y399527D01*
X391341Y399505D01*
X391377Y399481D01*
X391409Y399451D01*
X391448Y399421D01*
X391483Y399385D01*
X391522Y399347D01*
X391557Y399306D01*
X391592Y399262D01*
X391625Y399213D01*
X391655Y399164D01*
X391658Y399162D01*
X391661Y399150D01*
X391669Y399137D01*
X391680Y399115D01*
X391691Y399091D01*
X391704Y399058D01*
X391718Y399022D01*
X391732Y398984D01*
X391745Y398940D01*
X391759Y398891D01*
X391773Y398842D01*
X391783Y398787D01*
X391803Y398675D01*
X391805Y398616D01*
X391808Y398553D01*
Y398517D01*
X391805Y398490D01*
X391803Y398457D01*
X391797Y398419D01*
X391792Y398378D01*
X391783Y398331D01*
X391773Y398282D01*
X391762Y398231D01*
X391745Y398179D01*
X391726Y398124D01*
X391704Y398070D01*
X391677Y398018D01*
X391650Y397966D01*
X391614Y397917D01*
X391612Y397914D01*
X391606Y397906D01*
X391595Y397892D01*
X391579Y397876D01*
X391560Y397854D01*
X391535Y397829D01*
X391508Y397805D01*
X391475Y397775D01*
X391440Y397745D01*
X391399Y397715D01*
X391355Y397685D01*
X391306Y397657D01*
X391254Y397627D01*
X391197Y397603D01*
X391137Y397578D01*
X391074Y397556D01*
X390997Y397884D01*
X391000D01*
X391008Y397889D01*
X391025Y397892D01*
X391044Y397900D01*
X391066Y397908D01*
X391090Y397922D01*
X391150Y397949D01*
X391216Y397985D01*
X391284Y398031D01*
X391347Y398080D01*
X391374Y398110D01*
X391399Y398140D01*
X391401Y398143D01*
X391404Y398149D01*
X391409Y398157D01*
X391418Y398170D01*
X391429Y398187D01*
X391440Y398206D01*
X391451Y398228D01*
X391461Y398255D01*
X391472Y398285D01*
X391483Y398315D01*
X391505Y398386D01*
X391519Y398468D01*
X391524Y398512D01*
Y398585D01*
X391522Y398607D01*
X391519Y398632D01*
X391516Y398662D01*
X391513Y398695D01*
X391508Y398727D01*
X391489Y398807D01*
X391464Y398888D01*
X391448Y398929D01*
X391429Y398970D01*
X391407Y399009D01*
X391382Y399047D01*
X391379Y399049D01*
X391377Y399055D01*
X391369Y399066D01*
X391358Y399080D01*
X391344Y399093D01*
X391325Y399112D01*
X391306Y399131D01*
X391284Y399153D01*
X391257Y399175D01*
X391229Y399200D01*
X391167Y399243D01*
X391093Y399284D01*
X391008Y399320D01*
X391005D01*
X390997Y399323D01*
X390984Y399328D01*
X390967Y399331D01*
X390945Y399336D01*
X390921Y399344D01*
X390891Y399350D01*
X390861Y399358D01*
X390825Y399366D01*
X390787Y399372D01*
X390705Y399385D01*
X390618Y399394D01*
X390525Y399396D01*
X390522D01*
X390511D01*
X390495D01*
X390470Y399394D01*
X390443D01*
X390410Y399391D01*
X390375Y399388D01*
X390334Y399385D01*
X390290Y399380D01*
X390247Y399374D01*
X390151Y399358D01*
X390055Y399333D01*
X389963Y399303D01*
X389960D01*
X389952Y399298D01*
X389941Y399292D01*
X389924Y399287D01*
X389903Y399276D01*
X389881Y399262D01*
X389829Y399232D01*
X389769Y399191D01*
X389711Y399142D01*
X389654Y399082D01*
X389630Y399049D01*
X389605Y399014D01*
Y399011D01*
X389599Y399006D01*
X389594Y398995D01*
X389586Y398978D01*
X389578Y398959D01*
X389567Y398938D01*
X389559Y398913D01*
X389548Y398886D01*
X389526Y398823D01*
X389507Y398749D01*
X389493Y398670D01*
X389490Y398629D01*
X389488Y398585D01*
Y398558D01*
X389490Y398539D01*
X389493Y398514D01*
X389496Y398487D01*
X389501Y398454D01*
X389507Y398422D01*
X389526Y398345D01*
X389540Y398307D01*
X389556Y398266D01*
X389575Y398225D01*
X389597Y398187D01*
X389621Y398149D01*
X389649Y398110D01*
X389651Y398108D01*
X389657Y398102D01*
X389665Y398091D01*
X389679Y398078D01*
X389695Y398064D01*
X389717Y398045D01*
X389741Y398026D01*
X389769Y398004D01*
X389802Y397982D01*
X389837Y397960D01*
X389875Y397938D01*
X389919Y397917D01*
X389965Y397898D01*
X390017Y397878D01*
X390072Y397859D01*
X390129Y397846D01*
X390044Y397513D01*
X390039D01*
X390025Y397518D01*
X390006Y397523D01*
X389976Y397534D01*
X389944Y397545D01*
X389903Y397562D01*
X389859Y397578D01*
X389812Y397600D01*
X389761Y397624D01*
X389711Y397652D01*
X389657Y397682D01*
X389605Y397717D01*
X389556Y397756D01*
X389507Y397797D01*
X389460Y397843D01*
X389417Y397892D01*
X389414Y397895D01*
X389408Y397906D01*
X389398Y397919D01*
X389384Y397941D01*
X389368Y397966D01*
X389348Y397998D01*
X389329Y398034D01*
X389310Y398078D01*
X389291Y398124D01*
X389272Y398173D01*
X389253Y398228D01*
X389236Y398288D01*
X389223Y398351D01*
X389212Y398416D01*
X389206Y398484D01*
X389204Y398558D01*
Y398596D01*
X389206Y398626D01*
X389209Y398659D01*
X389212Y398700D01*
X389217Y398744D01*
X389226Y398793D01*
X389234Y398845D01*
X389245Y398899D01*
X389258Y398954D01*
X389272Y399009D01*
X389291Y399066D01*
X389313Y399120D01*
X389337Y399172D01*
X389368Y399221D01*
X389370Y399224D01*
X389376Y399232D01*
X389384Y399246D01*
X389398Y399262D01*
X389417Y399284D01*
X389436Y399309D01*
X389460Y399336D01*
X389490Y399366D01*
X389523Y399396D01*
X389559Y399429D01*
X389597Y399459D01*
X389640Y399492D01*
X389687Y399524D01*
X389736Y399555D01*
X389791Y399582D01*
X389848Y399609D01*
X389851Y399612D01*
X389862Y399615D01*
X389881Y399620D01*
X389903Y399628D01*
X389933Y399639D01*
X389965Y399650D01*
X390006Y399661D01*
X390050Y399675D01*
X390099Y399686D01*
X390151Y399699D01*
X390206Y399710D01*
X390266Y399718D01*
X390391Y399735D01*
X390457Y399738D01*
X390522Y399740D01*
X390528D01*
X390539D01*
X390561D01*
X390588Y399738D01*
D02*
G37*
G36*
X388770Y395378D02*
X388546D01*
Y397428D01*
X388770D01*
Y395378D01*
D02*
G37*
G36*
X391764Y394755D02*
X389245D01*
Y395088D01*
X391764D01*
Y394755D01*
D02*
G37*
G36*
Y393830D02*
X389785Y392506D01*
X391764D01*
Y392186D01*
X389245D01*
Y392530D01*
X391221Y393852D01*
X389245D01*
Y394171D01*
X391764D01*
Y393830D01*
D02*
G37*
G36*
X416794Y349205D02*
X416792Y349175D01*
Y349145D01*
X416789Y349110D01*
X416786Y349069D01*
X416778Y348987D01*
X416764Y348902D01*
X416748Y348820D01*
X416737Y348785D01*
X416726Y348749D01*
Y348747D01*
X416723Y348741D01*
X416718Y348733D01*
X416712Y348719D01*
X416696Y348687D01*
X416672Y348648D01*
X416639Y348602D01*
X416595Y348555D01*
X416546Y348509D01*
X416486Y348468D01*
X416483D01*
X416478Y348463D01*
X416469Y348457D01*
X416456Y348452D01*
X416439Y348444D01*
X416420Y348435D01*
X416398Y348424D01*
X416374Y348413D01*
X416317Y348394D01*
X416254Y348378D01*
X416183Y348367D01*
X416106Y348362D01*
X416104D01*
X416095D01*
X416079D01*
X416063Y348364D01*
X416038Y348367D01*
X416011Y348370D01*
X415981Y348375D01*
X415948Y348383D01*
X415877Y348405D01*
X415839Y348419D01*
X415801Y348435D01*
X415762Y348454D01*
X415724Y348479D01*
X415689Y348506D01*
X415653Y348536D01*
X415650Y348539D01*
X415645Y348545D01*
X415637Y348555D01*
X415623Y348569D01*
X415610Y348588D01*
X415593Y348610D01*
X415574Y348637D01*
X415555Y348670D01*
X415536Y348706D01*
X415517Y348744D01*
X415497Y348787D01*
X415478Y348837D01*
X415462Y348888D01*
X415446Y348946D01*
X415432Y349009D01*
X415421Y349074D01*
Y349071D01*
X415418Y349069D01*
X415410Y349052D01*
X415396Y349028D01*
X415380Y348998D01*
X415361Y348965D01*
X415342Y348932D01*
X415317Y348899D01*
X415296Y348872D01*
X415293Y348869D01*
X415290Y348867D01*
X415282Y348858D01*
X415271Y348848D01*
X415257Y348834D01*
X415241Y348817D01*
X415203Y348782D01*
X415154Y348741D01*
X415096Y348695D01*
X415031Y348646D01*
X414960Y348596D01*
X414275Y348160D01*
Y348577D01*
X414799Y348910D01*
X414801Y348913D01*
X414810Y348916D01*
X414820Y348924D01*
X414837Y348935D01*
X414856Y348946D01*
X414878Y348962D01*
X414927Y348995D01*
X414984Y349033D01*
X415042Y349071D01*
X415096Y349112D01*
X415145Y349151D01*
X415148D01*
X415151Y349156D01*
X415165Y349167D01*
X415186Y349183D01*
X415211Y349208D01*
X415238Y349233D01*
X415266Y349262D01*
X415293Y349293D01*
X415312Y349320D01*
X415315Y349323D01*
X415320Y349334D01*
X415328Y349347D01*
X415339Y349366D01*
X415350Y349391D01*
X415361Y349415D01*
X415372Y349443D01*
X415380Y349473D01*
Y349476D01*
X415383Y349484D01*
X415386Y349497D01*
X415388Y349516D01*
Y349544D01*
X415391Y349576D01*
X415394Y349615D01*
Y350043D01*
X414275D01*
Y350376D01*
X416794D01*
Y349205D01*
D02*
G37*
G36*
X414343Y348004D02*
X414375Y348001D01*
X414411Y347993D01*
X414449Y347985D01*
X414487Y347971D01*
X414490D01*
X414496Y347969D01*
X414504Y347966D01*
X414517Y347960D01*
X414531Y347952D01*
X414550Y347944D01*
X414594Y347922D01*
X414646Y347895D01*
X414703Y347859D01*
X414763Y347818D01*
X414823Y347769D01*
X414826Y347766D01*
X414831Y347764D01*
X414840Y347756D01*
X414853Y347742D01*
X414867Y347728D01*
X414886Y347709D01*
X414908Y347690D01*
X414932Y347666D01*
X414960Y347638D01*
X414987Y347608D01*
X415020Y347575D01*
X415053Y347537D01*
X415088Y347499D01*
X415124Y347455D01*
X415162Y347412D01*
X415203Y347362D01*
X415205Y347357D01*
X415219Y347343D01*
X415236Y347324D01*
X415260Y347297D01*
X415287Y347264D01*
X415320Y347226D01*
X415356Y347182D01*
X415396Y347139D01*
X415481Y347046D01*
X415571Y346956D01*
X415615Y346912D01*
X415659Y346871D01*
X415700Y346836D01*
X415738Y346806D01*
X415740Y346803D01*
X415746Y346800D01*
X415757Y346792D01*
X415771Y346784D01*
X415790Y346770D01*
X415809Y346759D01*
X415858Y346732D01*
X415915Y346705D01*
X415978Y346680D01*
X416044Y346664D01*
X416076Y346661D01*
X416109Y346658D01*
X416112D01*
X416117D01*
X416128D01*
X416139Y346661D01*
X416155D01*
X416175Y346666D01*
X416216Y346674D01*
X416265Y346691D01*
X416317Y346715D01*
X416344Y346729D01*
X416368Y346748D01*
X416393Y346767D01*
X416418Y346792D01*
X416420Y346795D01*
X416423Y346797D01*
X416429Y346806D01*
X416437Y346816D01*
X416448Y346830D01*
X416459Y346847D01*
X416483Y346885D01*
X416505Y346937D01*
X416527Y346994D01*
X416540Y347062D01*
X416546Y347100D01*
Y347160D01*
X416543Y347177D01*
Y347196D01*
X416538Y347218D01*
X416530Y347267D01*
X416513Y347324D01*
X416489Y347384D01*
X416472Y347414D01*
X416456Y347444D01*
X416434Y347472D01*
X416409Y347499D01*
X416407Y347502D01*
X416404Y347504D01*
X416396Y347510D01*
X416385Y347521D01*
X416371Y347529D01*
X416355Y347540D01*
X416336Y347553D01*
X416314Y347565D01*
X416289Y347578D01*
X416262Y347589D01*
X416196Y347611D01*
X416125Y347627D01*
X416084Y347630D01*
X416041Y347633D01*
X416074Y347949D01*
X416079D01*
X416090Y347947D01*
X416106Y347944D01*
X416131Y347941D01*
X416161Y347936D01*
X416196Y347928D01*
X416235Y347919D01*
X416276Y347906D01*
X416317Y347892D01*
X416363Y347876D01*
X416407Y347854D01*
X416450Y347832D01*
X416497Y347805D01*
X416538Y347775D01*
X416579Y347742D01*
X416614Y347704D01*
X416617Y347701D01*
X416622Y347693D01*
X416631Y347682D01*
X416644Y347666D01*
X416658Y347644D01*
X416674Y347616D01*
X416691Y347586D01*
X416710Y347551D01*
X416726Y347513D01*
X416742Y347469D01*
X416759Y347423D01*
X416773Y347371D01*
X416786Y347316D01*
X416794Y347259D01*
X416800Y347196D01*
X416803Y347130D01*
Y347095D01*
X416800Y347070D01*
X416797Y347040D01*
X416792Y347005D01*
X416786Y346964D01*
X416778Y346923D01*
X416767Y346877D01*
X416753Y346830D01*
X416737Y346781D01*
X416718Y346734D01*
X416693Y346685D01*
X416666Y346639D01*
X416636Y346595D01*
X416601Y346554D01*
X416598Y346552D01*
X416592Y346546D01*
X416579Y346535D01*
X416565Y346522D01*
X416546Y346505D01*
X416521Y346486D01*
X416494Y346467D01*
X416461Y346448D01*
X416429Y346429D01*
X416390Y346410D01*
X416349Y346391D01*
X416306Y346374D01*
X416257Y346360D01*
X416207Y346350D01*
X416155Y346344D01*
X416101Y346341D01*
X416098D01*
X416095D01*
X416087D01*
X416076D01*
X416046Y346344D01*
X416008Y346350D01*
X415962Y346358D01*
X415912Y346369D01*
X415858Y346382D01*
X415803Y346404D01*
X415801D01*
X415798Y346407D01*
X415790Y346410D01*
X415779Y346415D01*
X415749Y346431D01*
X415710Y346453D01*
X415664Y346483D01*
X415612Y346519D01*
X415558Y346560D01*
X415497Y346612D01*
X415495Y346614D01*
X415489Y346617D01*
X415481Y346628D01*
X415468Y346639D01*
X415451Y346655D01*
X415432Y346674D01*
X415408Y346696D01*
X415383Y346724D01*
X415353Y346756D01*
X415320Y346792D01*
X415282Y346830D01*
X415244Y346874D01*
X415200Y346920D01*
X415156Y346972D01*
X415107Y347029D01*
X415055Y347089D01*
X415053Y347092D01*
X415044Y347100D01*
X415033Y347117D01*
X415017Y347133D01*
X414998Y347158D01*
X414976Y347182D01*
X414927Y347240D01*
X414875Y347300D01*
X414820Y347357D01*
X414796Y347384D01*
X414774Y347409D01*
X414752Y347431D01*
X414736Y347447D01*
X414733Y347450D01*
X414722Y347461D01*
X414706Y347474D01*
X414684Y347494D01*
X414659Y347515D01*
X414632Y347537D01*
X414572Y347581D01*
Y346339D01*
X414275D01*
Y348007D01*
X414280D01*
X414294D01*
X414316D01*
X414343Y348004D01*
D02*
G37*
G36*
X374648Y361316D02*
X373818D01*
Y359094D01*
X373485D01*
Y361316D01*
X372655D01*
Y361614D01*
X374648D01*
Y361316D01*
D02*
G37*
G36*
X368849Y361611D02*
X368912Y361609D01*
X368975Y361603D01*
X369035Y361598D01*
X369065Y361595D01*
X369090Y361590D01*
X369092D01*
X369098Y361587D01*
X369109D01*
X369120Y361584D01*
X369136Y361578D01*
X369155Y361576D01*
X369199Y361562D01*
X369248Y361546D01*
X369300Y361524D01*
X369352Y361499D01*
X369401Y361469D01*
X369404D01*
X369406Y361467D01*
X369423Y361453D01*
X369444Y361434D01*
X369475Y361407D01*
X369504Y361374D01*
X369540Y361330D01*
X369573Y361284D01*
X369603Y361226D01*
Y361224D01*
X369605Y361218D01*
X369611Y361210D01*
X369616Y361199D01*
X369622Y361185D01*
X369627Y361166D01*
X369644Y361125D01*
X369657Y361073D01*
X369671Y361016D01*
X369679Y360951D01*
X369682Y360882D01*
Y360880D01*
Y360869D01*
Y360852D01*
X369679Y360828D01*
X369676Y360801D01*
X369671Y360771D01*
X369666Y360735D01*
X369657Y360694D01*
X369647Y360653D01*
X369633Y360609D01*
X369616Y360566D01*
X369595Y360519D01*
X369573Y360473D01*
X369546Y360426D01*
X369513Y360383D01*
X369477Y360339D01*
X369475Y360336D01*
X369466Y360331D01*
X369455Y360320D01*
X369436Y360304D01*
X369414Y360287D01*
X369384Y360268D01*
X369349Y360249D01*
X369308Y360230D01*
X369259Y360208D01*
X369207Y360189D01*
X369144Y360170D01*
X369079Y360154D01*
X369002Y360140D01*
X368920Y360129D01*
X368833Y360121D01*
X368735Y360118D01*
X368090D01*
Y359094D01*
X367757D01*
Y361614D01*
X368795D01*
X368849Y361611D01*
D02*
G37*
G36*
X364465D02*
X364495D01*
X364530Y361609D01*
X364571Y361606D01*
X364653Y361598D01*
X364738Y361584D01*
X364820Y361568D01*
X364855Y361557D01*
X364891Y361546D01*
X364894D01*
X364899Y361543D01*
X364907Y361538D01*
X364921Y361532D01*
X364954Y361516D01*
X364992Y361491D01*
X365038Y361458D01*
X365085Y361415D01*
X365131Y361366D01*
X365172Y361305D01*
Y361303D01*
X365177Y361297D01*
X365183Y361289D01*
X365188Y361276D01*
X365197Y361259D01*
X365205Y361240D01*
X365216Y361218D01*
X365227Y361194D01*
X365246Y361136D01*
X365262Y361073D01*
X365273Y361002D01*
X365279Y360926D01*
Y360923D01*
Y360915D01*
Y360899D01*
X365276Y360882D01*
X365273Y360858D01*
X365270Y360830D01*
X365265Y360801D01*
X365257Y360768D01*
X365235Y360697D01*
X365221Y360659D01*
X365205Y360620D01*
X365186Y360582D01*
X365161Y360544D01*
X365134Y360508D01*
X365104Y360473D01*
X365101Y360470D01*
X365096Y360465D01*
X365085Y360456D01*
X365071Y360443D01*
X365052Y360429D01*
X365030Y360413D01*
X365003Y360394D01*
X364970Y360375D01*
X364934Y360355D01*
X364896Y360336D01*
X364853Y360317D01*
X364804Y360298D01*
X364752Y360282D01*
X364694Y360265D01*
X364632Y360252D01*
X364566Y360241D01*
X364569D01*
X364571Y360238D01*
X364588Y360230D01*
X364612Y360216D01*
X364642Y360200D01*
X364675Y360181D01*
X364708Y360162D01*
X364741Y360137D01*
X364768Y360115D01*
X364771Y360113D01*
X364773Y360110D01*
X364782Y360102D01*
X364792Y360091D01*
X364806Y360077D01*
X364823Y360061D01*
X364858Y360022D01*
X364899Y359973D01*
X364945Y359916D01*
X364995Y359851D01*
X365044Y359780D01*
X365480Y359094D01*
X365063D01*
X364730Y359618D01*
X364727Y359621D01*
X364724Y359629D01*
X364716Y359640D01*
X364705Y359657D01*
X364694Y359676D01*
X364678Y359698D01*
X364645Y359747D01*
X364607Y359804D01*
X364569Y359861D01*
X364528Y359916D01*
X364490Y359965D01*
Y359968D01*
X364484Y359971D01*
X364473Y359984D01*
X364457Y360006D01*
X364432Y360031D01*
X364408Y360058D01*
X364378Y360085D01*
X364348Y360113D01*
X364320Y360132D01*
X364317Y360134D01*
X364307Y360140D01*
X364293Y360148D01*
X364274Y360159D01*
X364249Y360170D01*
X364225Y360181D01*
X364197Y360192D01*
X364167Y360200D01*
X364165D01*
X364156Y360203D01*
X364143Y360205D01*
X364124Y360208D01*
X364096D01*
X364064Y360211D01*
X364025Y360213D01*
X363597D01*
Y359094D01*
X363264D01*
Y361614D01*
X364435D01*
X364465Y361611D01*
D02*
G37*
G36*
X371268Y361655D02*
X371301Y361652D01*
X371336Y361649D01*
X371375Y361644D01*
X371418Y361636D01*
X371467Y361628D01*
X371516Y361617D01*
X371568Y361603D01*
X371623Y361587D01*
X371678Y361568D01*
X371732Y361546D01*
X371784Y361521D01*
X371839Y361491D01*
X371841Y361489D01*
X371852Y361483D01*
X371866Y361475D01*
X371885Y361461D01*
X371910Y361445D01*
X371934Y361423D01*
X371964Y361398D01*
X371997Y361371D01*
X372032Y361338D01*
X372068Y361303D01*
X372104Y361265D01*
X372139Y361224D01*
X372172Y361180D01*
X372207Y361131D01*
X372237Y361079D01*
X372267Y361024D01*
X372270Y361022D01*
X372273Y361011D01*
X372281Y360994D01*
X372289Y360972D01*
X372303Y360945D01*
X372314Y360910D01*
X372327Y360872D01*
X372341Y360828D01*
X372355Y360781D01*
X372368Y360730D01*
X372382Y360672D01*
X372393Y360615D01*
X372401Y360552D01*
X372409Y360487D01*
X372412Y360421D01*
X372415Y360350D01*
Y360345D01*
Y360334D01*
Y360312D01*
X372412Y360284D01*
X372409Y360252D01*
X372407Y360213D01*
X372401Y360170D01*
X372396Y360121D01*
X372387Y360069D01*
X372376Y360014D01*
X372366Y359957D01*
X372349Y359900D01*
X372330Y359840D01*
X372311Y359782D01*
X372286Y359722D01*
X372259Y359665D01*
X372256Y359662D01*
X372251Y359651D01*
X372243Y359635D01*
X372232Y359616D01*
X372215Y359591D01*
X372196Y359561D01*
X372172Y359528D01*
X372147Y359493D01*
X372117Y359457D01*
X372084Y359419D01*
X372046Y359381D01*
X372008Y359343D01*
X371967Y359307D01*
X371921Y359272D01*
X371871Y359236D01*
X371820Y359206D01*
X371817Y359204D01*
X371806Y359201D01*
X371792Y359192D01*
X371770Y359182D01*
X371743Y359171D01*
X371713Y359157D01*
X371678Y359143D01*
X371637Y359130D01*
X371593Y359116D01*
X371547Y359102D01*
X371495Y359089D01*
X371443Y359078D01*
X371328Y359059D01*
X371268Y359056D01*
X371208Y359053D01*
X371173D01*
X371148Y359056D01*
X371118Y359059D01*
X371080Y359062D01*
X371041Y359067D01*
X370995Y359075D01*
X370949Y359083D01*
X370897Y359094D01*
X370845Y359108D01*
X370790Y359124D01*
X370736Y359143D01*
X370681Y359168D01*
X370626Y359192D01*
X370572Y359223D01*
X370569Y359225D01*
X370561Y359231D01*
X370545Y359242D01*
X370526Y359255D01*
X370504Y359272D01*
X370476Y359294D01*
X370446Y359318D01*
X370414Y359345D01*
X370378Y359378D01*
X370345Y359414D01*
X370310Y359452D01*
X370274Y359493D01*
X370239Y359539D01*
X370206Y359586D01*
X370176Y359637D01*
X370146Y359692D01*
X370143Y359695D01*
X370141Y359706D01*
X370132Y359722D01*
X370124Y359744D01*
X370113Y359771D01*
X370102Y359804D01*
X370089Y359840D01*
X370075Y359883D01*
X370061Y359927D01*
X370048Y359976D01*
X370037Y360028D01*
X370026Y360083D01*
X370010Y360197D01*
X370007Y360260D01*
X370004Y360320D01*
Y360323D01*
Y360328D01*
Y360336D01*
Y360347D01*
X370007Y360364D01*
Y360380D01*
X370010Y360424D01*
X370015Y360476D01*
X370023Y360538D01*
X370031Y360604D01*
X370045Y360678D01*
X370064Y360757D01*
X370086Y360836D01*
X370113Y360918D01*
X370146Y361000D01*
X370184Y361082D01*
X370228Y361158D01*
X370280Y361235D01*
X370340Y361303D01*
X370343Y361305D01*
X370356Y361319D01*
X370375Y361336D01*
X370400Y361357D01*
X370435Y361385D01*
X370474Y361415D01*
X370520Y361448D01*
X370575Y361480D01*
X370635Y361513D01*
X370700Y361546D01*
X370771Y361576D01*
X370850Y361603D01*
X370932Y361625D01*
X371020Y361641D01*
X371112Y361655D01*
X371211Y361658D01*
X371244D01*
X371268Y361655D01*
D02*
G37*
G36*
X367525Y358395D02*
X365475D01*
Y358619D01*
X367525D01*
Y358395D01*
D02*
G37*
G36*
X406982Y369680D02*
Y369674D01*
Y369664D01*
Y369644D01*
Y369617D01*
X406979Y369584D01*
X406977Y369549D01*
X406974Y369508D01*
X406971Y369461D01*
X406960Y369366D01*
X406946Y369265D01*
X406925Y369167D01*
X406911Y369120D01*
X406895Y369076D01*
Y369074D01*
X406892Y369066D01*
X406886Y369055D01*
X406878Y369038D01*
X406867Y369019D01*
X406856Y368997D01*
X406824Y368948D01*
X406805Y368918D01*
X406783Y368891D01*
X406755Y368858D01*
X406728Y368828D01*
X406695Y368798D01*
X406663Y368768D01*
X406624Y368741D01*
X406583Y368713D01*
X406581Y368711D01*
X406572Y368708D01*
X406562Y368700D01*
X406542Y368692D01*
X406521Y368681D01*
X406493Y368670D01*
X406463Y368656D01*
X406425Y368645D01*
X406387Y368632D01*
X406343Y368618D01*
X406294Y368607D01*
X406242Y368596D01*
X406185Y368588D01*
X406125Y368580D01*
X406062Y368577D01*
X405996Y368574D01*
X405961D01*
X405936Y368577D01*
X405906D01*
X405873Y368580D01*
X405833Y368585D01*
X405792Y368591D01*
X405699Y368604D01*
X405601Y368626D01*
X405505Y368656D01*
X405459Y368672D01*
X405415Y368694D01*
X405412Y368697D01*
X405404Y368700D01*
X405393Y368708D01*
X405379Y368716D01*
X405360Y368730D01*
X405338Y368746D01*
X405317Y368763D01*
X405292Y368784D01*
X405237Y368834D01*
X405186Y368894D01*
X405136Y368965D01*
X405115Y369005D01*
X405095Y369046D01*
Y369049D01*
X405093Y369057D01*
X405087Y369071D01*
X405082Y369090D01*
X405074Y369112D01*
X405065Y369142D01*
X405057Y369175D01*
X405049Y369213D01*
X405038Y369257D01*
X405030Y369303D01*
X405022Y369355D01*
X405016Y369412D01*
X405008Y369472D01*
X405005Y369538D01*
X405000Y369606D01*
Y369680D01*
Y371135D01*
X405333D01*
Y369680D01*
Y369677D01*
Y369666D01*
Y369650D01*
Y369625D01*
X405336Y369598D01*
Y369568D01*
X405338Y369532D01*
X405341Y369497D01*
X405347Y369418D01*
X405358Y369339D01*
X405374Y369262D01*
X405382Y369227D01*
X405393Y369197D01*
Y369194D01*
X405396Y369191D01*
X405399Y369183D01*
X405404Y369172D01*
X405420Y369142D01*
X405442Y369109D01*
X405470Y369068D01*
X405505Y369030D01*
X405549Y368992D01*
X405601Y368956D01*
X405603D01*
X405609Y368954D01*
X405617Y368948D01*
X405628Y368943D01*
X405642Y368937D01*
X405661Y368932D01*
X405680Y368924D01*
X405702Y368916D01*
X405756Y368902D01*
X405819Y368888D01*
X405890Y368877D01*
X405966Y368875D01*
X406002D01*
X406026Y368877D01*
X406056Y368880D01*
X406092Y368883D01*
X406130Y368888D01*
X406171Y368896D01*
X406256Y368916D01*
X406299Y368929D01*
X406343Y368946D01*
X406384Y368965D01*
X406422Y368986D01*
X406458Y369011D01*
X406491Y369041D01*
X406493Y369044D01*
X406499Y369049D01*
X406504Y369060D01*
X406515Y369074D01*
X406526Y369093D01*
X406540Y369117D01*
X406556Y369147D01*
X406570Y369183D01*
X406583Y369224D01*
X406600Y369270D01*
X406613Y369322D01*
X406624Y369380D01*
X406635Y369445D01*
X406643Y369516D01*
X406646Y369595D01*
X406649Y369680D01*
Y371135D01*
X406982D01*
Y369680D01*
D02*
G37*
G36*
X408576Y368615D02*
X408268D01*
Y370584D01*
X408262Y370578D01*
X408249Y370564D01*
X408224Y370545D01*
X408189Y370518D01*
X408148Y370485D01*
X408096Y370450D01*
X408038Y370411D01*
X407973Y370371D01*
X407970D01*
X407965Y370365D01*
X407957Y370360D01*
X407943Y370354D01*
X407927Y370343D01*
X407907Y370335D01*
X407864Y370310D01*
X407815Y370286D01*
X407760Y370259D01*
X407703Y370234D01*
X407648Y370212D01*
Y370510D01*
X407651Y370513D01*
X407659Y370515D01*
X407673Y370523D01*
X407692Y370532D01*
X407714Y370543D01*
X407741Y370559D01*
X407771Y370575D01*
X407801Y370592D01*
X407872Y370635D01*
X407948Y370687D01*
X408028Y370742D01*
X408101Y370805D01*
X408104Y370807D01*
X408109Y370813D01*
X408120Y370821D01*
X408134Y370835D01*
X408148Y370851D01*
X408167Y370867D01*
X408208Y370914D01*
X408254Y370963D01*
X408300Y371020D01*
X408342Y371080D01*
X408377Y371143D01*
X408576D01*
Y368615D01*
D02*
G37*
G36*
X417301Y379673D02*
X415333D01*
X415338Y379668D01*
X415352Y379654D01*
X415371Y379629D01*
X415398Y379594D01*
X415431Y379553D01*
X415467Y379501D01*
X415505Y379444D01*
X415546Y379378D01*
Y379376D01*
X415551Y379370D01*
X415557Y379362D01*
X415562Y379348D01*
X415573Y379332D01*
X415581Y379313D01*
X415606Y379269D01*
X415630Y379220D01*
X415658Y379165D01*
X415682Y379108D01*
X415704Y379053D01*
X415407D01*
X415404Y379056D01*
X415401Y379064D01*
X415393Y379078D01*
X415385Y379097D01*
X415374Y379119D01*
X415357Y379146D01*
X415341Y379176D01*
X415325Y379206D01*
X415281Y379277D01*
X415229Y379354D01*
X415174Y379433D01*
X415112Y379506D01*
X415109Y379509D01*
X415103Y379515D01*
X415095Y379526D01*
X415082Y379539D01*
X415065Y379553D01*
X415049Y379572D01*
X415002Y379613D01*
X414953Y379659D01*
X414896Y379706D01*
X414836Y379747D01*
X414773Y379782D01*
Y379981D01*
X417301D01*
Y379673D01*
D02*
G37*
G36*
Y376970D02*
X414781D01*
Y377303D01*
X417004D01*
Y378545D01*
X417301D01*
Y376970D01*
D02*
G37*
G36*
X415568Y376558D02*
X415595Y376555D01*
X415625Y376550D01*
X415660Y376544D01*
X415701Y376536D01*
X415742Y376525D01*
X415786Y376512D01*
X415830Y376495D01*
X415876Y376473D01*
X415922Y376452D01*
X415969Y376424D01*
X416013Y376392D01*
X416056Y376356D01*
X416059Y376353D01*
X416065Y376345D01*
X416075Y376334D01*
X416092Y376315D01*
X416108Y376293D01*
X416127Y376263D01*
X416146Y376228D01*
X416165Y376187D01*
X416187Y376138D01*
X416206Y376086D01*
X416226Y376023D01*
X416242Y375957D01*
X416256Y375881D01*
X416266Y375799D01*
X416275Y375712D01*
X416277Y375613D01*
Y374969D01*
X417301D01*
Y374636D01*
X414781D01*
Y375674D01*
X414784Y375728D01*
X414787Y375791D01*
X414792Y375854D01*
X414798Y375914D01*
X414801Y375944D01*
X414806Y375968D01*
Y375971D01*
X414809Y375977D01*
Y375988D01*
X414811Y375998D01*
X414817Y376015D01*
X414820Y376034D01*
X414833Y376078D01*
X414850Y376127D01*
X414872Y376179D01*
X414896Y376231D01*
X414926Y376280D01*
Y376282D01*
X414929Y376285D01*
X414943Y376302D01*
X414962Y376323D01*
X414989Y376353D01*
X415022Y376383D01*
X415065Y376419D01*
X415112Y376452D01*
X415169Y376482D01*
X415172D01*
X415177Y376484D01*
X415185Y376490D01*
X415196Y376495D01*
X415210Y376501D01*
X415229Y376506D01*
X415270Y376523D01*
X415322Y376536D01*
X415379Y376550D01*
X415445Y376558D01*
X415513Y376561D01*
X415516D01*
X415527D01*
X415543D01*
X415568Y376558D01*
D02*
G37*
G36*
X416103Y374175D02*
X416133D01*
X416165Y374172D01*
X416201Y374169D01*
X416280Y374161D01*
X416365Y374148D01*
X416452Y374131D01*
X416539Y374109D01*
X416542D01*
X416550Y374107D01*
X416561Y374101D01*
X416575Y374098D01*
X416594Y374090D01*
X416616Y374082D01*
X416668Y374063D01*
X416725Y374038D01*
X416788Y374008D01*
X416848Y373975D01*
X416905Y373937D01*
X416908D01*
X416911Y373932D01*
X416919Y373926D01*
X416930Y373918D01*
X416955Y373899D01*
X416987Y373869D01*
X417025Y373836D01*
X417064Y373798D01*
X417099Y373754D01*
X417135Y373708D01*
Y373705D01*
X417137Y373703D01*
X417148Y373686D01*
X417162Y373659D01*
X417181Y373623D01*
X417200Y373580D01*
X417222Y373528D01*
X417241Y373468D01*
X417260Y373405D01*
Y373402D01*
X417263Y373397D01*
Y373389D01*
X417266Y373375D01*
X417268Y373358D01*
X417274Y373337D01*
X417277Y373315D01*
X417279Y373290D01*
X417287Y373230D01*
X417296Y373162D01*
X417298Y373085D01*
X417301Y373004D01*
Y372094D01*
X414781D01*
Y373034D01*
X414784Y373061D01*
Y373094D01*
X414787Y373127D01*
X414790Y373200D01*
X414798Y373274D01*
X414806Y373348D01*
X414814Y373380D01*
X414820Y373410D01*
Y373413D01*
X414822Y373421D01*
X414825Y373432D01*
X414830Y373446D01*
X414836Y373465D01*
X414841Y373487D01*
X414860Y373539D01*
X414885Y373596D01*
X414915Y373656D01*
X414953Y373719D01*
X415000Y373779D01*
X415002Y373782D01*
X415008Y373787D01*
X415016Y373798D01*
X415030Y373812D01*
X415046Y373828D01*
X415068Y373847D01*
X415090Y373869D01*
X415117Y373891D01*
X415147Y373916D01*
X415180Y373940D01*
X415215Y373965D01*
X415254Y373989D01*
X415338Y374036D01*
X415431Y374077D01*
X415434D01*
X415442Y374082D01*
X415458Y374085D01*
X415478Y374093D01*
X415502Y374101D01*
X415532Y374109D01*
X415565Y374117D01*
X415603Y374128D01*
X415647Y374137D01*
X415693Y374145D01*
X415742Y374153D01*
X415794Y374161D01*
X415849Y374169D01*
X415906Y374172D01*
X416029Y374178D01*
X416032D01*
X416043D01*
X416056D01*
X416078D01*
X416103Y374175D01*
D02*
G37*
G36*
X418000Y369812D02*
X417776D01*
Y371863D01*
X418000D01*
Y369812D01*
D02*
G37*
G36*
X416520Y369722D02*
X416539Y369717D01*
X416570Y369706D01*
X416602Y369695D01*
X416643Y369678D01*
X416687Y369662D01*
X416733Y369640D01*
X416785Y369616D01*
X416834Y369588D01*
X416889Y369558D01*
X416941Y369523D01*
X416990Y369485D01*
X417039Y369444D01*
X417086Y369397D01*
X417129Y369348D01*
X417132Y369345D01*
X417137Y369335D01*
X417148Y369321D01*
X417162Y369299D01*
X417178Y369274D01*
X417197Y369242D01*
X417216Y369206D01*
X417236Y369163D01*
X417255Y369116D01*
X417274Y369067D01*
X417293Y369012D01*
X417309Y368952D01*
X417323Y368889D01*
X417334Y368824D01*
X417339Y368756D01*
X417342Y368682D01*
Y368644D01*
X417339Y368614D01*
X417337Y368581D01*
X417334Y368540D01*
X417329Y368496D01*
X417320Y368447D01*
X417312Y368395D01*
X417301Y368341D01*
X417287Y368286D01*
X417274Y368232D01*
X417255Y368174D01*
X417233Y368120D01*
X417208Y368068D01*
X417178Y368019D01*
X417176Y368016D01*
X417170Y368008D01*
X417162Y367994D01*
X417148Y367978D01*
X417129Y367956D01*
X417110Y367931D01*
X417086Y367904D01*
X417056Y367874D01*
X417023Y367844D01*
X416987Y367811D01*
X416949Y367781D01*
X416905Y367748D01*
X416859Y367716D01*
X416810Y367686D01*
X416755Y367658D01*
X416698Y367631D01*
X416695Y367628D01*
X416684Y367625D01*
X416665Y367620D01*
X416643Y367612D01*
X416613Y367601D01*
X416580Y367590D01*
X416539Y367579D01*
X416496Y367565D01*
X416447Y367555D01*
X416395Y367541D01*
X416340Y367530D01*
X416280Y367522D01*
X416155Y367505D01*
X416089Y367503D01*
X416023Y367500D01*
X416018D01*
X416007D01*
X415985D01*
X415958Y367503D01*
X415922Y367505D01*
X415882Y367508D01*
X415838Y367514D01*
X415789Y367519D01*
X415737Y367527D01*
X415682Y367535D01*
X415565Y367563D01*
X415508Y367582D01*
X415450Y367601D01*
X415390Y367623D01*
X415336Y367650D01*
X415333Y367653D01*
X415322Y367658D01*
X415308Y367667D01*
X415286Y367677D01*
X415262Y367694D01*
X415235Y367713D01*
X415204Y367735D01*
X415169Y367759D01*
X415136Y367789D01*
X415098Y367819D01*
X415063Y367855D01*
X415024Y367893D01*
X414989Y367934D01*
X414953Y367978D01*
X414921Y368027D01*
X414891Y368076D01*
X414888Y368079D01*
X414885Y368090D01*
X414877Y368103D01*
X414866Y368125D01*
X414855Y368150D01*
X414841Y368182D01*
X414828Y368218D01*
X414814Y368256D01*
X414801Y368300D01*
X414787Y368349D01*
X414773Y368398D01*
X414762Y368453D01*
X414743Y368565D01*
X414740Y368625D01*
X414738Y368688D01*
Y368723D01*
X414740Y368750D01*
X414743Y368783D01*
X414749Y368821D01*
X414754Y368862D01*
X414762Y368909D01*
X414773Y368958D01*
X414784Y369010D01*
X414801Y369061D01*
X414820Y369116D01*
X414841Y369171D01*
X414869Y369223D01*
X414896Y369274D01*
X414931Y369324D01*
X414934Y369326D01*
X414940Y369335D01*
X414951Y369348D01*
X414967Y369365D01*
X414986Y369386D01*
X415011Y369411D01*
X415038Y369436D01*
X415071Y369465D01*
X415106Y369496D01*
X415147Y369526D01*
X415191Y369556D01*
X415240Y369583D01*
X415292Y369613D01*
X415349Y369637D01*
X415409Y369662D01*
X415472Y369684D01*
X415549Y369356D01*
X415546D01*
X415538Y369351D01*
X415521Y369348D01*
X415502Y369340D01*
X415480Y369332D01*
X415456Y369318D01*
X415396Y369291D01*
X415330Y369255D01*
X415262Y369209D01*
X415199Y369160D01*
X415172Y369130D01*
X415147Y369100D01*
X415144Y369097D01*
X415142Y369092D01*
X415136Y369083D01*
X415128Y369070D01*
X415117Y369053D01*
X415106Y369034D01*
X415095Y369012D01*
X415084Y368985D01*
X415073Y368955D01*
X415063Y368925D01*
X415041Y368854D01*
X415027Y368772D01*
X415022Y368728D01*
Y368655D01*
X415024Y368633D01*
X415027Y368608D01*
X415030Y368578D01*
X415032Y368546D01*
X415038Y368513D01*
X415057Y368434D01*
X415082Y368352D01*
X415098Y368311D01*
X415117Y368270D01*
X415139Y368232D01*
X415164Y368193D01*
X415166Y368191D01*
X415169Y368185D01*
X415177Y368174D01*
X415188Y368161D01*
X415202Y368147D01*
X415221Y368128D01*
X415240Y368109D01*
X415262Y368087D01*
X415289Y368065D01*
X415316Y368040D01*
X415379Y367997D01*
X415453Y367956D01*
X415538Y367920D01*
X415540D01*
X415549Y367918D01*
X415562Y367912D01*
X415579Y367910D01*
X415600Y367904D01*
X415625Y367896D01*
X415655Y367890D01*
X415685Y367882D01*
X415721Y367874D01*
X415759Y367868D01*
X415841Y367855D01*
X415928Y367847D01*
X416021Y367844D01*
X416023D01*
X416035D01*
X416051D01*
X416075Y367847D01*
X416103D01*
X416136Y367849D01*
X416171Y367852D01*
X416212Y367855D01*
X416256Y367860D01*
X416299Y367866D01*
X416395Y367882D01*
X416490Y367907D01*
X416583Y367937D01*
X416586D01*
X416594Y367942D01*
X416605Y367948D01*
X416621Y367953D01*
X416643Y367964D01*
X416665Y367978D01*
X416717Y368008D01*
X416777Y368049D01*
X416834Y368098D01*
X416892Y368158D01*
X416916Y368191D01*
X416941Y368226D01*
Y368229D01*
X416946Y368234D01*
X416952Y368245D01*
X416960Y368262D01*
X416968Y368281D01*
X416979Y368303D01*
X416987Y368327D01*
X416998Y368354D01*
X417020Y368417D01*
X417039Y368491D01*
X417053Y368570D01*
X417056Y368611D01*
X417058Y368655D01*
Y368682D01*
X417056Y368701D01*
X417053Y368726D01*
X417050Y368753D01*
X417044Y368786D01*
X417039Y368818D01*
X417020Y368895D01*
X417006Y368933D01*
X416990Y368974D01*
X416971Y369015D01*
X416949Y369053D01*
X416924Y369092D01*
X416897Y369130D01*
X416894Y369132D01*
X416889Y369138D01*
X416881Y369149D01*
X416867Y369163D01*
X416851Y369176D01*
X416829Y369195D01*
X416804Y369214D01*
X416777Y369236D01*
X416744Y369258D01*
X416709Y369280D01*
X416671Y369302D01*
X416627Y369324D01*
X416580Y369343D01*
X416529Y369362D01*
X416474Y369381D01*
X416417Y369395D01*
X416501Y369728D01*
X416507D01*
X416520Y369722D01*
D02*
G37*
G36*
X404301Y362532D02*
X404296D01*
X404282D01*
X404260D01*
X404233Y362534D01*
X404200Y362537D01*
X404165Y362545D01*
X404127Y362554D01*
X404088Y362567D01*
X404085D01*
X404080Y362570D01*
X404072Y362573D01*
X404058Y362578D01*
X404044Y362586D01*
X404025Y362595D01*
X403982Y362616D01*
X403930Y362644D01*
X403873Y362679D01*
X403813Y362720D01*
X403752Y362769D01*
X403750Y362772D01*
X403744Y362775D01*
X403736Y362783D01*
X403722Y362796D01*
X403709Y362810D01*
X403690Y362829D01*
X403668Y362848D01*
X403643Y362873D01*
X403616Y362900D01*
X403589Y362930D01*
X403556Y362963D01*
X403523Y363001D01*
X403488Y363039D01*
X403452Y363083D01*
X403414Y363127D01*
X403373Y363176D01*
X403370Y363181D01*
X403357Y363195D01*
X403340Y363214D01*
X403316Y363242D01*
X403288Y363274D01*
X403256Y363312D01*
X403220Y363356D01*
X403179Y363400D01*
X403094Y363493D01*
X403004Y363583D01*
X402961Y363626D01*
X402917Y363667D01*
X402876Y363703D01*
X402838Y363733D01*
X402835Y363736D01*
X402830Y363738D01*
X402819Y363747D01*
X402805Y363755D01*
X402786Y363768D01*
X402767Y363779D01*
X402718Y363807D01*
X402660Y363834D01*
X402598Y363858D01*
X402532Y363875D01*
X402499Y363878D01*
X402467Y363880D01*
X402464D01*
X402458D01*
X402448D01*
X402437Y363878D01*
X402420D01*
X402401Y363872D01*
X402360Y363864D01*
X402311Y363847D01*
X402259Y363823D01*
X402232Y363809D01*
X402207Y363790D01*
X402183Y363771D01*
X402158Y363747D01*
X402155Y363744D01*
X402153Y363741D01*
X402147Y363733D01*
X402139Y363722D01*
X402128Y363708D01*
X402117Y363692D01*
X402093Y363654D01*
X402071Y363602D01*
X402049Y363545D01*
X402035Y363476D01*
X402030Y363438D01*
Y363378D01*
X402033Y363362D01*
Y363342D01*
X402038Y363321D01*
X402046Y363271D01*
X402063Y363214D01*
X402087Y363154D01*
X402104Y363124D01*
X402120Y363094D01*
X402142Y363067D01*
X402166Y363039D01*
X402169Y363037D01*
X402172Y363034D01*
X402180Y363029D01*
X402191Y363018D01*
X402205Y363009D01*
X402221Y362999D01*
X402240Y362985D01*
X402262Y362974D01*
X402286Y362960D01*
X402314Y362949D01*
X402379Y362928D01*
X402450Y362911D01*
X402491Y362908D01*
X402535Y362906D01*
X402502Y362589D01*
X402497D01*
X402486Y362592D01*
X402469Y362595D01*
X402445Y362597D01*
X402415Y362603D01*
X402379Y362611D01*
X402341Y362619D01*
X402300Y362633D01*
X402259Y362646D01*
X402213Y362663D01*
X402169Y362684D01*
X402125Y362706D01*
X402079Y362734D01*
X402038Y362764D01*
X401997Y362796D01*
X401962Y362835D01*
X401959Y362837D01*
X401953Y362846D01*
X401945Y362857D01*
X401931Y362873D01*
X401918Y362895D01*
X401901Y362922D01*
X401885Y362952D01*
X401866Y362988D01*
X401850Y363026D01*
X401833Y363070D01*
X401817Y363116D01*
X401803Y363168D01*
X401790Y363222D01*
X401781Y363280D01*
X401776Y363342D01*
X401773Y363408D01*
Y363443D01*
X401776Y363468D01*
X401779Y363498D01*
X401784Y363534D01*
X401790Y363575D01*
X401798Y363615D01*
X401809Y363662D01*
X401822Y363708D01*
X401839Y363757D01*
X401858Y363804D01*
X401882Y363853D01*
X401910Y363899D01*
X401940Y363943D01*
X401975Y363984D01*
X401978Y363987D01*
X401983Y363992D01*
X401997Y364003D01*
X402011Y364017D01*
X402030Y364033D01*
X402054Y364052D01*
X402082Y364071D01*
X402114Y364090D01*
X402147Y364110D01*
X402185Y364129D01*
X402226Y364148D01*
X402270Y364164D01*
X402319Y364178D01*
X402368Y364189D01*
X402420Y364194D01*
X402475Y364197D01*
X402478D01*
X402480D01*
X402489D01*
X402499D01*
X402529Y364194D01*
X402568Y364189D01*
X402614Y364181D01*
X402663Y364170D01*
X402718Y364156D01*
X402772Y364134D01*
X402775D01*
X402778Y364131D01*
X402786Y364129D01*
X402797Y364123D01*
X402827Y364107D01*
X402865Y364085D01*
X402912Y364055D01*
X402963Y364019D01*
X403018Y363979D01*
X403078Y363927D01*
X403081Y363924D01*
X403086Y363921D01*
X403094Y363910D01*
X403108Y363899D01*
X403125Y363883D01*
X403144Y363864D01*
X403168Y363842D01*
X403193Y363815D01*
X403223Y363782D01*
X403256Y363747D01*
X403294Y363708D01*
X403332Y363665D01*
X403376Y363618D01*
X403419Y363566D01*
X403469Y363509D01*
X403520Y363449D01*
X403523Y363446D01*
X403531Y363438D01*
X403542Y363422D01*
X403559Y363405D01*
X403578Y363381D01*
X403600Y363356D01*
X403649Y363299D01*
X403701Y363239D01*
X403755Y363181D01*
X403780Y363154D01*
X403802Y363129D01*
X403823Y363108D01*
X403840Y363091D01*
X403842Y363089D01*
X403854Y363078D01*
X403870Y363064D01*
X403892Y363045D01*
X403916Y363023D01*
X403943Y363001D01*
X404004Y362958D01*
Y364200D01*
X404301D01*
Y362532D01*
D02*
G37*
G36*
X402079Y361524D02*
X404301D01*
Y361191D01*
X402079D01*
Y360361D01*
X401781D01*
Y362354D01*
X402079D01*
Y361524D01*
D02*
G37*
G36*
X404301Y358210D02*
X401781D01*
Y360034D01*
X402079D01*
Y358543D01*
X402849D01*
Y359938D01*
X403146D01*
Y358543D01*
X404004D01*
Y360091D01*
X404301D01*
Y358210D01*
D02*
G37*
G36*
X403624Y357746D02*
X403643D01*
X403662Y357743D01*
X403714Y357735D01*
X403771Y357721D01*
X403834Y357700D01*
X403900Y357669D01*
X403935Y357653D01*
X403968Y357631D01*
X403971D01*
X403976Y357626D01*
X403984Y357620D01*
X403998Y357610D01*
X404028Y357585D01*
X404069Y357547D01*
X404113Y357500D01*
X404159Y357443D01*
X404203Y357377D01*
X404244Y357301D01*
Y357298D01*
X404249Y357290D01*
X404252Y357279D01*
X404260Y357263D01*
X404266Y357244D01*
X404274Y357219D01*
X404285Y357192D01*
X404293Y357159D01*
X404301Y357126D01*
X404312Y357088D01*
X404326Y357006D01*
X404337Y356916D01*
X404342Y356818D01*
Y356785D01*
X404339Y356760D01*
Y356730D01*
X404337Y356698D01*
X404334Y356659D01*
X404328Y356616D01*
X404318Y356526D01*
X404301Y356430D01*
X404277Y356335D01*
X404244Y356242D01*
Y356239D01*
X404238Y356231D01*
X404233Y356220D01*
X404225Y356204D01*
X404214Y356184D01*
X404203Y356163D01*
X404170Y356111D01*
X404129Y356053D01*
X404077Y355993D01*
X404017Y355933D01*
X403946Y355881D01*
X403943Y355879D01*
X403938Y355876D01*
X403927Y355871D01*
X403911Y355862D01*
X403892Y355851D01*
X403870Y355840D01*
X403842Y355827D01*
X403813Y355816D01*
X403783Y355802D01*
X403747Y355791D01*
X403668Y355769D01*
X403583Y355753D01*
X403537Y355748D01*
X403490Y355745D01*
X403463Y356059D01*
X403466D01*
X403471D01*
X403482Y356062D01*
X403496Y356064D01*
X403512Y356067D01*
X403529Y356070D01*
X403575Y356081D01*
X403624Y356094D01*
X403676Y356111D01*
X403728Y356133D01*
X403777Y356160D01*
X403783Y356163D01*
X403796Y356176D01*
X403818Y356195D01*
X403845Y356223D01*
X403878Y356258D01*
X403908Y356302D01*
X403941Y356354D01*
X403971Y356414D01*
Y356417D01*
X403974Y356422D01*
X403976Y356430D01*
X403982Y356444D01*
X403987Y356460D01*
X403995Y356479D01*
X404001Y356501D01*
X404006Y356526D01*
X404020Y356583D01*
X404034Y356651D01*
X404042Y356722D01*
X404044Y356801D01*
Y356834D01*
X404042Y356851D01*
Y356870D01*
X404036Y356913D01*
X404031Y356965D01*
X404023Y357023D01*
X404009Y357080D01*
X403990Y357135D01*
Y357137D01*
X403987Y357140D01*
X403984Y357148D01*
X403979Y357159D01*
X403965Y357184D01*
X403949Y357216D01*
X403927Y357252D01*
X403900Y357290D01*
X403870Y357323D01*
X403834Y357353D01*
X403829Y357356D01*
X403818Y357364D01*
X403796Y357377D01*
X403769Y357391D01*
X403736Y357402D01*
X403701Y357416D01*
X403660Y357424D01*
X403619Y357427D01*
X403616D01*
X403613D01*
X403600D01*
X403575Y357424D01*
X403548Y357418D01*
X403515Y357410D01*
X403479Y357397D01*
X403444Y357380D01*
X403411Y357356D01*
X403408Y357353D01*
X403398Y357342D01*
X403381Y357326D01*
X403359Y357301D01*
X403337Y357271D01*
X403313Y357230D01*
X403288Y357184D01*
X403264Y357129D01*
X403261Y357123D01*
X403258Y357118D01*
X403256Y357107D01*
X403253Y357096D01*
X403247Y357080D01*
X403239Y357058D01*
X403234Y357036D01*
X403226Y357006D01*
X403215Y356976D01*
X403206Y356938D01*
X403195Y356897D01*
X403182Y356851D01*
X403171Y356801D01*
X403155Y356744D01*
X403141Y356681D01*
Y356679D01*
X403138Y356668D01*
X403133Y356648D01*
X403127Y356627D01*
X403119Y356597D01*
X403111Y356564D01*
X403100Y356531D01*
X403089Y356493D01*
X403064Y356411D01*
X403037Y356332D01*
X403023Y356294D01*
X403010Y356258D01*
X402996Y356225D01*
X402983Y356198D01*
Y356195D01*
X402977Y356190D01*
X402972Y356182D01*
X402966Y356168D01*
X402947Y356135D01*
X402920Y356097D01*
X402884Y356051D01*
X402846Y356007D01*
X402800Y355963D01*
X402750Y355928D01*
X402748D01*
X402745Y355925D01*
X402737Y355920D01*
X402726Y355914D01*
X402696Y355901D01*
X402658Y355884D01*
X402611Y355868D01*
X402557Y355854D01*
X402497Y355843D01*
X402434Y355840D01*
X402431D01*
X402426D01*
X402415D01*
X402401Y355843D01*
X402385D01*
X402366Y355846D01*
X402317Y355854D01*
X402262Y355868D01*
X402205Y355884D01*
X402142Y355911D01*
X402079Y355947D01*
X402076D01*
X402071Y355952D01*
X402063Y355958D01*
X402052Y355966D01*
X402022Y355993D01*
X401983Y356029D01*
X401942Y356072D01*
X401901Y356127D01*
X401861Y356190D01*
X401825Y356264D01*
Y356266D01*
X401822Y356272D01*
X401817Y356285D01*
X401811Y356299D01*
X401806Y356318D01*
X401798Y356343D01*
X401790Y356370D01*
X401781Y356400D01*
X401773Y356433D01*
X401765Y356468D01*
X401751Y356545D01*
X401740Y356632D01*
X401738Y356725D01*
Y356771D01*
X401740Y356796D01*
X401743Y356826D01*
X401746Y356856D01*
X401749Y356891D01*
X401759Y356968D01*
X401776Y357053D01*
X401800Y357137D01*
X401830Y357219D01*
Y357222D01*
X401836Y357227D01*
X401839Y357241D01*
X401847Y357255D01*
X401858Y357271D01*
X401869Y357293D01*
X401896Y357339D01*
X401934Y357394D01*
X401981Y357448D01*
X402033Y357500D01*
X402095Y357547D01*
X402098Y357549D01*
X402104Y357552D01*
X402112Y357558D01*
X402125Y357566D01*
X402142Y357574D01*
X402161Y357585D01*
X402185Y357593D01*
X402210Y357607D01*
X402267Y357629D01*
X402336Y357648D01*
X402409Y357664D01*
X402491Y357672D01*
X402516Y357353D01*
X402513D01*
X402505Y357350D01*
X402494D01*
X402478Y357347D01*
X402456Y357342D01*
X402434Y357336D01*
X402382Y357320D01*
X402325Y357298D01*
X402265Y357265D01*
X402207Y357227D01*
X402183Y357203D01*
X402158Y357175D01*
X402155Y357173D01*
X402153Y357170D01*
X402147Y357159D01*
X402139Y357148D01*
X402131Y357132D01*
X402120Y357113D01*
X402109Y357091D01*
X402095Y357066D01*
X402084Y357036D01*
X402073Y357003D01*
X402063Y356968D01*
X402054Y356930D01*
X402046Y356886D01*
X402041Y356840D01*
X402035Y356790D01*
Y356711D01*
X402038Y356690D01*
Y356665D01*
X402041Y356638D01*
X402043Y356605D01*
X402049Y356572D01*
X402063Y356498D01*
X402082Y356427D01*
X402109Y356359D01*
X402128Y356326D01*
X402147Y356299D01*
Y356296D01*
X402153Y356294D01*
X402166Y356277D01*
X402191Y356255D01*
X402224Y356231D01*
X402262Y356206D01*
X402308Y356184D01*
X402357Y356168D01*
X402385Y356165D01*
X402415Y356163D01*
X402418D01*
X402420D01*
X402437Y356165D01*
X402461Y356168D01*
X402491Y356173D01*
X402527Y356187D01*
X402565Y356204D01*
X402600Y356225D01*
X402636Y356258D01*
X402639Y356264D01*
X402644Y356269D01*
X402652Y356280D01*
X402660Y356294D01*
X402669Y356310D01*
X402680Y356332D01*
X402693Y356356D01*
X402707Y356386D01*
X402720Y356422D01*
X402734Y356463D01*
X402750Y356509D01*
X402767Y356564D01*
X402783Y356621D01*
X402802Y356687D01*
X402819Y356760D01*
Y356766D01*
X402821Y356780D01*
X402827Y356799D01*
X402835Y356826D01*
X402841Y356859D01*
X402851Y356897D01*
X402860Y356938D01*
X402873Y356982D01*
X402898Y357074D01*
X402922Y357167D01*
X402936Y357211D01*
X402950Y357249D01*
X402963Y357287D01*
X402977Y357317D01*
Y357320D01*
X402983Y357328D01*
X402988Y357339D01*
X402996Y357353D01*
X403004Y357372D01*
X403018Y357394D01*
X403048Y357440D01*
X403084Y357495D01*
X403127Y357547D01*
X403179Y357599D01*
X403206Y357620D01*
X403234Y357642D01*
X403236D01*
X403242Y357648D01*
X403250Y357653D01*
X403261Y357659D01*
X403275Y357667D01*
X403294Y357675D01*
X403337Y357697D01*
X403389Y357716D01*
X403449Y357732D01*
X403518Y357743D01*
X403591Y357749D01*
X403594D01*
X403600D01*
X403611D01*
X403624Y357746D01*
D02*
G37*
G36*
X405000Y353572D02*
X404776D01*
Y355622D01*
X405000D01*
Y353572D01*
D02*
G37*
G36*
X404301Y353160D02*
X403777Y352826D01*
X403774Y352824D01*
X403766Y352821D01*
X403755Y352813D01*
X403739Y352802D01*
X403720Y352791D01*
X403698Y352775D01*
X403649Y352742D01*
X403591Y352704D01*
X403534Y352665D01*
X403479Y352625D01*
X403430Y352586D01*
X403428D01*
X403425Y352581D01*
X403411Y352570D01*
X403389Y352554D01*
X403365Y352529D01*
X403337Y352504D01*
X403310Y352474D01*
X403283Y352444D01*
X403264Y352417D01*
X403261Y352414D01*
X403256Y352403D01*
X403247Y352390D01*
X403236Y352371D01*
X403226Y352346D01*
X403215Y352322D01*
X403204Y352294D01*
X403195Y352264D01*
Y352261D01*
X403193Y352253D01*
X403190Y352240D01*
X403187Y352221D01*
Y352193D01*
X403185Y352160D01*
X403182Y352122D01*
Y351694D01*
X404301D01*
Y351361D01*
X401781D01*
Y352532D01*
X401784Y352562D01*
Y352592D01*
X401787Y352627D01*
X401790Y352668D01*
X401798Y352750D01*
X401811Y352835D01*
X401828Y352917D01*
X401839Y352952D01*
X401850Y352988D01*
Y352990D01*
X401852Y352996D01*
X401858Y353004D01*
X401863Y353018D01*
X401880Y353050D01*
X401904Y353089D01*
X401937Y353135D01*
X401981Y353181D01*
X402030Y353228D01*
X402090Y353269D01*
X402093D01*
X402098Y353274D01*
X402106Y353280D01*
X402120Y353285D01*
X402136Y353293D01*
X402155Y353302D01*
X402177Y353312D01*
X402202Y353323D01*
X402259Y353343D01*
X402322Y353359D01*
X402393Y353370D01*
X402469Y353375D01*
X402472D01*
X402480D01*
X402497D01*
X402513Y353373D01*
X402538Y353370D01*
X402565Y353367D01*
X402595Y353362D01*
X402628Y353353D01*
X402699Y353332D01*
X402737Y353318D01*
X402775Y353302D01*
X402813Y353282D01*
X402851Y353258D01*
X402887Y353231D01*
X402922Y353201D01*
X402925Y353198D01*
X402931Y353192D01*
X402939Y353181D01*
X402953Y353168D01*
X402966Y353149D01*
X402983Y353127D01*
X403002Y353099D01*
X403021Y353067D01*
X403040Y353031D01*
X403059Y352993D01*
X403078Y352949D01*
X403097Y352900D01*
X403114Y352848D01*
X403130Y352791D01*
X403144Y352728D01*
X403155Y352663D01*
Y352665D01*
X403157Y352668D01*
X403165Y352685D01*
X403179Y352709D01*
X403195Y352739D01*
X403215Y352772D01*
X403234Y352805D01*
X403258Y352837D01*
X403280Y352865D01*
X403283Y352868D01*
X403286Y352870D01*
X403294Y352878D01*
X403305Y352889D01*
X403318Y352903D01*
X403335Y352919D01*
X403373Y352955D01*
X403422Y352996D01*
X403479Y353042D01*
X403545Y353091D01*
X403616Y353140D01*
X404301Y353577D01*
Y353160D01*
D02*
G37*
G36*
X385556Y383260D02*
X385589Y383257D01*
X385627Y383251D01*
X385668Y383246D01*
X385714Y383238D01*
X385763Y383227D01*
X385815Y383216D01*
X385867Y383200D01*
X385922Y383180D01*
X385976Y383159D01*
X386028Y383131D01*
X386080Y383104D01*
X386129Y383068D01*
X386132Y383066D01*
X386140Y383060D01*
X386154Y383049D01*
X386170Y383033D01*
X386192Y383014D01*
X386217Y382989D01*
X386241Y382962D01*
X386271Y382929D01*
X386301Y382894D01*
X386331Y382853D01*
X386361Y382809D01*
X386388Y382760D01*
X386419Y382708D01*
X386443Y382651D01*
X386468Y382591D01*
X386490Y382528D01*
X386162Y382452D01*
Y382454D01*
X386157Y382462D01*
X386154Y382479D01*
X386146Y382498D01*
X386137Y382520D01*
X386124Y382544D01*
X386096Y382604D01*
X386061Y382670D01*
X386015Y382738D01*
X385965Y382801D01*
X385935Y382828D01*
X385905Y382853D01*
X385903Y382856D01*
X385897Y382858D01*
X385889Y382864D01*
X385875Y382872D01*
X385859Y382883D01*
X385840Y382894D01*
X385818Y382905D01*
X385791Y382916D01*
X385761Y382927D01*
X385731Y382937D01*
X385660Y382959D01*
X385578Y382973D01*
X385534Y382978D01*
X385460D01*
X385438Y382976D01*
X385414Y382973D01*
X385384Y382970D01*
X385351Y382967D01*
X385318Y382962D01*
X385239Y382943D01*
X385157Y382918D01*
X385116Y382902D01*
X385075Y382883D01*
X385037Y382861D01*
X384999Y382836D01*
X384996Y382834D01*
X384991Y382831D01*
X384980Y382823D01*
X384966Y382812D01*
X384953Y382798D01*
X384933Y382779D01*
X384914Y382760D01*
X384893Y382738D01*
X384871Y382711D01*
X384846Y382683D01*
X384802Y382621D01*
X384762Y382547D01*
X384726Y382462D01*
Y382460D01*
X384723Y382452D01*
X384718Y382438D01*
X384715Y382421D01*
X384710Y382400D01*
X384701Y382375D01*
X384696Y382345D01*
X384688Y382315D01*
X384680Y382279D01*
X384674Y382241D01*
X384660Y382159D01*
X384652Y382072D01*
X384649Y381979D01*
Y381977D01*
Y381965D01*
Y381949D01*
X384652Y381925D01*
Y381897D01*
X384655Y381865D01*
X384658Y381829D01*
X384660Y381788D01*
X384666Y381744D01*
X384671Y381701D01*
X384688Y381605D01*
X384712Y381510D01*
X384742Y381417D01*
Y381414D01*
X384748Y381406D01*
X384753Y381395D01*
X384759Y381379D01*
X384770Y381357D01*
X384783Y381335D01*
X384813Y381283D01*
X384854Y381223D01*
X384903Y381166D01*
X384963Y381108D01*
X384996Y381084D01*
X385032Y381059D01*
X385034D01*
X385040Y381054D01*
X385051Y381048D01*
X385067Y381040D01*
X385086Y381032D01*
X385108Y381021D01*
X385133Y381013D01*
X385160Y381002D01*
X385223Y380980D01*
X385297Y380961D01*
X385376Y380947D01*
X385417Y380944D01*
X385460Y380942D01*
X385488D01*
X385507Y380944D01*
X385531Y380947D01*
X385559Y380950D01*
X385591Y380956D01*
X385624Y380961D01*
X385701Y380980D01*
X385739Y380994D01*
X385780Y381010D01*
X385821Y381029D01*
X385859Y381051D01*
X385897Y381076D01*
X385935Y381103D01*
X385938Y381106D01*
X385944Y381111D01*
X385954Y381119D01*
X385968Y381133D01*
X385982Y381149D01*
X386001Y381171D01*
X386020Y381196D01*
X386042Y381223D01*
X386064Y381256D01*
X386086Y381291D01*
X386107Y381329D01*
X386129Y381373D01*
X386148Y381419D01*
X386167Y381471D01*
X386187Y381526D01*
X386200Y381583D01*
X386533Y381499D01*
Y381493D01*
X386528Y381480D01*
X386522Y381460D01*
X386511Y381431D01*
X386501Y381398D01*
X386484Y381357D01*
X386468Y381313D01*
X386446Y381267D01*
X386421Y381215D01*
X386394Y381166D01*
X386364Y381111D01*
X386329Y381059D01*
X386290Y381010D01*
X386249Y380961D01*
X386203Y380914D01*
X386154Y380871D01*
X386151Y380868D01*
X386140Y380863D01*
X386126Y380852D01*
X386105Y380838D01*
X386080Y380822D01*
X386047Y380803D01*
X386012Y380784D01*
X385968Y380764D01*
X385922Y380745D01*
X385873Y380726D01*
X385818Y380707D01*
X385758Y380691D01*
X385695Y380677D01*
X385630Y380666D01*
X385561Y380661D01*
X385488Y380658D01*
X385449D01*
X385419Y380661D01*
X385387Y380663D01*
X385346Y380666D01*
X385302Y380672D01*
X385253Y380680D01*
X385201Y380688D01*
X385146Y380699D01*
X385092Y380713D01*
X385037Y380726D01*
X384980Y380745D01*
X384925Y380767D01*
X384873Y380792D01*
X384824Y380822D01*
X384822Y380824D01*
X384813Y380830D01*
X384800Y380838D01*
X384783Y380852D01*
X384762Y380871D01*
X384737Y380890D01*
X384710Y380914D01*
X384680Y380944D01*
X384649Y380977D01*
X384617Y381013D01*
X384587Y381051D01*
X384554Y381095D01*
X384521Y381141D01*
X384491Y381190D01*
X384464Y381245D01*
X384437Y381302D01*
X384434Y381305D01*
X384431Y381316D01*
X384426Y381335D01*
X384418Y381357D01*
X384407Y381387D01*
X384396Y381419D01*
X384385Y381460D01*
X384371Y381504D01*
X384360Y381553D01*
X384347Y381605D01*
X384336Y381660D01*
X384327Y381720D01*
X384311Y381845D01*
X384308Y381911D01*
X384306Y381977D01*
Y381982D01*
Y381993D01*
Y382015D01*
X384308Y382042D01*
X384311Y382078D01*
X384314Y382118D01*
X384319Y382162D01*
X384325Y382211D01*
X384333Y382263D01*
X384341Y382318D01*
X384368Y382435D01*
X384387Y382492D01*
X384407Y382550D01*
X384428Y382610D01*
X384456Y382664D01*
X384458Y382667D01*
X384464Y382678D01*
X384472Y382692D01*
X384483Y382714D01*
X384499Y382738D01*
X384519Y382765D01*
X384540Y382796D01*
X384565Y382831D01*
X384595Y382864D01*
X384625Y382902D01*
X384660Y382937D01*
X384699Y382976D01*
X384740Y383011D01*
X384783Y383047D01*
X384832Y383079D01*
X384882Y383109D01*
X384884Y383112D01*
X384895Y383115D01*
X384909Y383123D01*
X384931Y383134D01*
X384955Y383145D01*
X384988Y383159D01*
X385023Y383172D01*
X385062Y383186D01*
X385105Y383200D01*
X385155Y383213D01*
X385204Y383227D01*
X385258Y383238D01*
X385370Y383257D01*
X385430Y383260D01*
X385493Y383262D01*
X385529D01*
X385556Y383260D01*
D02*
G37*
G36*
X393626Y381764D02*
Y381758D01*
Y381747D01*
Y381728D01*
Y381701D01*
X393623Y381668D01*
X393620Y381632D01*
X393618Y381592D01*
X393615Y381545D01*
X393604Y381450D01*
X393590Y381349D01*
X393568Y381250D01*
X393555Y381204D01*
X393538Y381160D01*
Y381157D01*
X393536Y381149D01*
X393530Y381138D01*
X393522Y381122D01*
X393511Y381103D01*
X393500Y381081D01*
X393467Y381032D01*
X393448Y381002D01*
X393426Y380975D01*
X393399Y380942D01*
X393372Y380912D01*
X393339Y380882D01*
X393306Y380852D01*
X393268Y380824D01*
X393227Y380797D01*
X393225Y380794D01*
X393216Y380792D01*
X393205Y380784D01*
X393186Y380775D01*
X393164Y380764D01*
X393137Y380753D01*
X393107Y380740D01*
X393069Y380729D01*
X393031Y380715D01*
X392987Y380702D01*
X392938Y380691D01*
X392886Y380680D01*
X392829Y380672D01*
X392769Y380663D01*
X392706Y380661D01*
X392640Y380658D01*
X392605D01*
X392580Y380661D01*
X392550D01*
X392517Y380663D01*
X392476Y380669D01*
X392436Y380674D01*
X392343Y380688D01*
X392244Y380710D01*
X392149Y380740D01*
X392102Y380756D01*
X392059Y380778D01*
X392056Y380781D01*
X392048Y380784D01*
X392037Y380792D01*
X392023Y380800D01*
X392004Y380814D01*
X391982Y380830D01*
X391961Y380846D01*
X391936Y380868D01*
X391881Y380917D01*
X391829Y380977D01*
X391780Y381048D01*
X391758Y381089D01*
X391739Y381130D01*
Y381133D01*
X391737Y381141D01*
X391731Y381155D01*
X391726Y381174D01*
X391718Y381196D01*
X391709Y381226D01*
X391701Y381259D01*
X391693Y381297D01*
X391682Y381340D01*
X391674Y381387D01*
X391666Y381439D01*
X391660Y381496D01*
X391652Y381556D01*
X391649Y381622D01*
X391644Y381690D01*
Y381764D01*
Y383219D01*
X391977D01*
Y381764D01*
Y381761D01*
Y381750D01*
Y381733D01*
Y381709D01*
X391980Y381682D01*
Y381652D01*
X391982Y381616D01*
X391985Y381581D01*
X391990Y381502D01*
X392001Y381422D01*
X392018Y381346D01*
X392026Y381310D01*
X392037Y381280D01*
Y381278D01*
X392040Y381275D01*
X392042Y381267D01*
X392048Y381256D01*
X392064Y381226D01*
X392086Y381193D01*
X392113Y381152D01*
X392149Y381114D01*
X392193Y381076D01*
X392244Y381040D01*
X392247D01*
X392253Y381037D01*
X392261Y381032D01*
X392272Y381026D01*
X392285Y381021D01*
X392304Y381015D01*
X392324Y381007D01*
X392345Y380999D01*
X392400Y380985D01*
X392463Y380972D01*
X392534Y380961D01*
X392610Y380958D01*
X392646D01*
X392670Y380961D01*
X392700Y380964D01*
X392736Y380966D01*
X392774Y380972D01*
X392815Y380980D01*
X392900Y380999D01*
X392943Y381013D01*
X392987Y381029D01*
X393028Y381048D01*
X393066Y381070D01*
X393102Y381095D01*
X393134Y381125D01*
X393137Y381127D01*
X393143Y381133D01*
X393148Y381144D01*
X393159Y381157D01*
X393170Y381177D01*
X393183Y381201D01*
X393200Y381231D01*
X393214Y381267D01*
X393227Y381308D01*
X393244Y381354D01*
X393257Y381406D01*
X393268Y381463D01*
X393279Y381529D01*
X393287Y381600D01*
X393290Y381679D01*
X393293Y381764D01*
Y383219D01*
X393626D01*
Y381764D01*
D02*
G37*
G36*
X395985Y382921D02*
X395155D01*
Y380699D01*
X394822D01*
Y382921D01*
X393992D01*
Y383219D01*
X395985D01*
Y382921D01*
D02*
G37*
G36*
X390063Y383260D02*
X390096Y383257D01*
X390131Y383254D01*
X390170Y383249D01*
X390213Y383241D01*
X390262Y383232D01*
X390312Y383221D01*
X390363Y383208D01*
X390418Y383191D01*
X390473Y383172D01*
X390527Y383150D01*
X390579Y383126D01*
X390634Y383096D01*
X390636Y383093D01*
X390647Y383088D01*
X390661Y383079D01*
X390680Y383066D01*
X390705Y383049D01*
X390729Y383028D01*
X390759Y383003D01*
X390792Y382976D01*
X390827Y382943D01*
X390863Y382907D01*
X390898Y382869D01*
X390934Y382828D01*
X390967Y382785D01*
X391002Y382735D01*
X391032Y382683D01*
X391062Y382629D01*
X391065Y382626D01*
X391068Y382615D01*
X391076Y382599D01*
X391084Y382577D01*
X391098Y382550D01*
X391109Y382514D01*
X391122Y382476D01*
X391136Y382432D01*
X391150Y382386D01*
X391163Y382334D01*
X391177Y382277D01*
X391188Y382219D01*
X391196Y382157D01*
X391204Y382091D01*
X391207Y382026D01*
X391210Y381955D01*
Y381949D01*
Y381938D01*
Y381916D01*
X391207Y381889D01*
X391204Y381856D01*
X391201Y381818D01*
X391196Y381774D01*
X391191Y381725D01*
X391182Y381673D01*
X391172Y381619D01*
X391161Y381561D01*
X391144Y381504D01*
X391125Y381444D01*
X391106Y381387D01*
X391081Y381327D01*
X391054Y381269D01*
X391051Y381267D01*
X391046Y381256D01*
X391038Y381239D01*
X391027Y381220D01*
X391010Y381196D01*
X390991Y381166D01*
X390967Y381133D01*
X390942Y381097D01*
X390912Y381062D01*
X390879Y381024D01*
X390841Y380985D01*
X390803Y380947D01*
X390762Y380912D01*
X390716Y380876D01*
X390666Y380841D01*
X390615Y380811D01*
X390612Y380808D01*
X390601Y380805D01*
X390587Y380797D01*
X390565Y380786D01*
X390538Y380775D01*
X390508Y380762D01*
X390473Y380748D01*
X390432Y380734D01*
X390388Y380721D01*
X390342Y380707D01*
X390290Y380693D01*
X390238Y380682D01*
X390123Y380663D01*
X390063Y380661D01*
X390003Y380658D01*
X389968D01*
X389943Y380661D01*
X389913Y380663D01*
X389875Y380666D01*
X389837Y380672D01*
X389790Y380680D01*
X389744Y380688D01*
X389692Y380699D01*
X389640Y380713D01*
X389585Y380729D01*
X389531Y380748D01*
X389476Y380772D01*
X389422Y380797D01*
X389367Y380827D01*
X389364Y380830D01*
X389356Y380835D01*
X389340Y380846D01*
X389321Y380860D01*
X389299Y380876D01*
X389271Y380898D01*
X389241Y380923D01*
X389209Y380950D01*
X389173Y380983D01*
X389140Y381018D01*
X389105Y381056D01*
X389069Y381097D01*
X389034Y381144D01*
X389001Y381190D01*
X388971Y381242D01*
X388941Y381297D01*
X388938Y381299D01*
X388936Y381310D01*
X388927Y381327D01*
X388919Y381349D01*
X388908Y381376D01*
X388897Y381409D01*
X388884Y381444D01*
X388870Y381488D01*
X388857Y381532D01*
X388843Y381581D01*
X388832Y381632D01*
X388821Y381687D01*
X388805Y381802D01*
X388802Y381865D01*
X388799Y381925D01*
Y381927D01*
Y381933D01*
Y381941D01*
Y381952D01*
X388802Y381968D01*
Y381985D01*
X388805Y382028D01*
X388810Y382080D01*
X388818Y382143D01*
X388826Y382208D01*
X388840Y382282D01*
X388859Y382361D01*
X388881Y382441D01*
X388908Y382523D01*
X388941Y382604D01*
X388979Y382686D01*
X389023Y382763D01*
X389075Y382839D01*
X389135Y382907D01*
X389138Y382910D01*
X389151Y382924D01*
X389170Y382940D01*
X389195Y382962D01*
X389230Y382989D01*
X389269Y383019D01*
X389315Y383052D01*
X389370Y383085D01*
X389430Y383118D01*
X389495Y383150D01*
X389566Y383180D01*
X389645Y383208D01*
X389727Y383229D01*
X389815Y383246D01*
X389908Y383260D01*
X390006Y383262D01*
X390038D01*
X390063Y383260D01*
D02*
G37*
G36*
X388668Y380000D02*
X386618D01*
Y380224D01*
X388668D01*
Y380000D01*
D02*
G37*
G36*
X395023Y371306D02*
X395053Y371303D01*
X395083Y371301D01*
X395119Y371298D01*
X395195Y371287D01*
X395280Y371270D01*
X395365Y371246D01*
X395446Y371216D01*
X395449D01*
X395455Y371210D01*
X395468Y371208D01*
X395482Y371199D01*
X395498Y371188D01*
X395520Y371178D01*
X395567Y371150D01*
X395621Y371112D01*
X395676Y371066D01*
X395728Y371014D01*
X395774Y370951D01*
X395777Y370948D01*
X395780Y370943D01*
X395785Y370935D01*
X395793Y370921D01*
X395801Y370905D01*
X395812Y370885D01*
X395820Y370861D01*
X395834Y370836D01*
X395856Y370779D01*
X395875Y370711D01*
X395891Y370637D01*
X395900Y370555D01*
X395580Y370531D01*
Y370533D01*
X395578Y370542D01*
Y370552D01*
X395575Y370569D01*
X395569Y370591D01*
X395564Y370613D01*
X395548Y370664D01*
X395526Y370722D01*
X395493Y370782D01*
X395455Y370839D01*
X395430Y370864D01*
X395403Y370888D01*
X395400Y370891D01*
X395397Y370894D01*
X395386Y370899D01*
X395375Y370907D01*
X395359Y370916D01*
X395340Y370926D01*
X395318Y370937D01*
X395294Y370951D01*
X395264Y370962D01*
X395231Y370973D01*
X395195Y370984D01*
X395157Y370992D01*
X395113Y371000D01*
X395067Y371006D01*
X395018Y371011D01*
X394939D01*
X394917Y371008D01*
X394892D01*
X394865Y371006D01*
X394832Y371003D01*
X394799Y370997D01*
X394726Y370984D01*
X394655Y370965D01*
X394586Y370937D01*
X394554Y370918D01*
X394527Y370899D01*
X394524D01*
X394521Y370894D01*
X394505Y370880D01*
X394483Y370855D01*
X394458Y370823D01*
X394434Y370784D01*
X394412Y370738D01*
X394395Y370689D01*
X394393Y370662D01*
X394390Y370632D01*
Y370629D01*
Y370626D01*
X394393Y370610D01*
X394395Y370585D01*
X394401Y370555D01*
X394415Y370520D01*
X394431Y370481D01*
X394453Y370446D01*
X394485Y370410D01*
X394491Y370408D01*
X394496Y370402D01*
X394507Y370394D01*
X394521Y370386D01*
X394537Y370378D01*
X394559Y370367D01*
X394584Y370353D01*
X394614Y370339D01*
X394649Y370326D01*
X394690Y370312D01*
X394737Y370296D01*
X394791Y370279D01*
X394849Y370263D01*
X394914Y370244D01*
X394988Y370228D01*
X394993D01*
X395007Y370225D01*
X395026Y370219D01*
X395053Y370211D01*
X395086Y370206D01*
X395124Y370195D01*
X395165Y370187D01*
X395209Y370173D01*
X395302Y370148D01*
X395395Y370124D01*
X395438Y370110D01*
X395477Y370096D01*
X395515Y370083D01*
X395545Y370069D01*
X395548D01*
X395556Y370064D01*
X395567Y370058D01*
X395580Y370050D01*
X395599Y370042D01*
X395621Y370028D01*
X395668Y369998D01*
X395722Y369963D01*
X395774Y369919D01*
X395826Y369867D01*
X395848Y369840D01*
X395870Y369813D01*
Y369810D01*
X395875Y369804D01*
X395881Y369796D01*
X395886Y369785D01*
X395894Y369772D01*
X395902Y369753D01*
X395924Y369709D01*
X395943Y369657D01*
X395960Y369597D01*
X395971Y369529D01*
X395976Y369455D01*
Y369452D01*
Y369447D01*
Y369436D01*
X395973Y369422D01*
Y369403D01*
X395971Y369384D01*
X395963Y369332D01*
X395949Y369275D01*
X395927Y369212D01*
X395897Y369146D01*
X395881Y369111D01*
X395859Y369078D01*
Y369075D01*
X395853Y369070D01*
X395848Y369062D01*
X395837Y369048D01*
X395812Y369018D01*
X395774Y368977D01*
X395728Y368934D01*
X395670Y368887D01*
X395605Y368844D01*
X395528Y368802D01*
X395526D01*
X395517Y368797D01*
X395507Y368794D01*
X395490Y368786D01*
X395471Y368781D01*
X395446Y368773D01*
X395419Y368762D01*
X395386Y368753D01*
X395354Y368745D01*
X395316Y368734D01*
X395234Y368721D01*
X395144Y368710D01*
X395045Y368704D01*
X395012D01*
X394988Y368707D01*
X394958D01*
X394925Y368710D01*
X394887Y368712D01*
X394843Y368718D01*
X394753Y368729D01*
X394657Y368745D01*
X394562Y368770D01*
X394469Y368802D01*
X394466D01*
X394458Y368808D01*
X394447Y368813D01*
X394431Y368822D01*
X394412Y368832D01*
X394390Y368844D01*
X394338Y368876D01*
X394281Y368917D01*
X394221Y368969D01*
X394161Y369029D01*
X394109Y369100D01*
X394106Y369103D01*
X394103Y369108D01*
X394098Y369119D01*
X394090Y369136D01*
X394079Y369155D01*
X394068Y369177D01*
X394054Y369204D01*
X394043Y369234D01*
X394030Y369264D01*
X394019Y369299D01*
X393997Y369378D01*
X393981Y369463D01*
X393975Y369510D01*
X393972Y369556D01*
X394286Y369583D01*
Y369581D01*
Y369575D01*
X394289Y369564D01*
X394292Y369550D01*
X394294Y369534D01*
X394297Y369518D01*
X394308Y369471D01*
X394322Y369422D01*
X394338Y369370D01*
X394360Y369319D01*
X394387Y369269D01*
X394390Y369264D01*
X394404Y369250D01*
X394423Y369228D01*
X394450Y369201D01*
X394485Y369168D01*
X394529Y369138D01*
X394581Y369106D01*
X394641Y369075D01*
X394644D01*
X394649Y369073D01*
X394657Y369070D01*
X394671Y369065D01*
X394688Y369059D01*
X394707Y369051D01*
X394728Y369045D01*
X394753Y369040D01*
X394810Y369026D01*
X394879Y369013D01*
X394950Y369005D01*
X395029Y369002D01*
X395062D01*
X395078Y369005D01*
X395097D01*
X395141Y369010D01*
X395193Y369016D01*
X395250Y369024D01*
X395307Y369037D01*
X395362Y369056D01*
X395365D01*
X395367Y369059D01*
X395375Y369062D01*
X395386Y369067D01*
X395411Y369081D01*
X395444Y369097D01*
X395479Y369119D01*
X395517Y369146D01*
X395550Y369177D01*
X395580Y369212D01*
X395583Y369217D01*
X395591Y369228D01*
X395605Y369250D01*
X395619Y369278D01*
X395629Y369310D01*
X395643Y369346D01*
X395651Y369387D01*
X395654Y369428D01*
Y369430D01*
Y369433D01*
Y369447D01*
X395651Y369471D01*
X395646Y369499D01*
X395638Y369531D01*
X395624Y369567D01*
X395608Y369602D01*
X395583Y369635D01*
X395580Y369638D01*
X395569Y369649D01*
X395553Y369665D01*
X395528Y369687D01*
X395498Y369709D01*
X395457Y369733D01*
X395411Y369758D01*
X395356Y369783D01*
X395351Y369785D01*
X395345Y369788D01*
X395335Y369791D01*
X395324Y369794D01*
X395307Y369799D01*
X395285Y369807D01*
X395264Y369813D01*
X395234Y369821D01*
X395203Y369832D01*
X395165Y369840D01*
X395124Y369851D01*
X395078Y369865D01*
X395029Y369875D01*
X394971Y369892D01*
X394909Y369905D01*
X394906D01*
X394895Y369908D01*
X394876Y369914D01*
X394854Y369919D01*
X394824Y369927D01*
X394791Y369935D01*
X394759Y369946D01*
X394720Y369957D01*
X394638Y369982D01*
X394559Y370009D01*
X394521Y370023D01*
X394485Y370037D01*
X394453Y370050D01*
X394426Y370064D01*
X394423D01*
X394417Y370069D01*
X394409Y370075D01*
X394395Y370080D01*
X394363Y370099D01*
X394324Y370127D01*
X394278Y370162D01*
X394234Y370200D01*
X394191Y370247D01*
X394155Y370296D01*
Y370299D01*
X394152Y370301D01*
X394147Y370309D01*
X394142Y370320D01*
X394128Y370350D01*
X394111Y370389D01*
X394095Y370435D01*
X394081Y370490D01*
X394071Y370550D01*
X394068Y370613D01*
Y370615D01*
Y370621D01*
Y370632D01*
X394071Y370645D01*
Y370662D01*
X394073Y370681D01*
X394081Y370730D01*
X394095Y370784D01*
X394111Y370842D01*
X394139Y370905D01*
X394174Y370967D01*
Y370970D01*
X394180Y370976D01*
X394185Y370984D01*
X394193Y370995D01*
X394221Y371025D01*
X394256Y371063D01*
X394300Y371104D01*
X394355Y371145D01*
X394417Y371186D01*
X394491Y371221D01*
X394494D01*
X394499Y371224D01*
X394513Y371230D01*
X394527Y371235D01*
X394546Y371240D01*
X394570Y371249D01*
X394598Y371257D01*
X394627Y371265D01*
X394660Y371273D01*
X394696Y371281D01*
X394772Y371295D01*
X394860Y371306D01*
X394952Y371309D01*
X394999D01*
X395023Y371306D01*
D02*
G37*
G36*
X393817Y368745D02*
X393437D01*
X393145Y369507D01*
X392086D01*
X391813Y368745D01*
X391461D01*
X392424Y371265D01*
X392785D01*
X393817Y368745D01*
D02*
G37*
G36*
X391147D02*
X390814D01*
Y371265D01*
X391147D01*
Y368745D01*
D02*
G37*
G36*
X389410Y371262D02*
X389440D01*
X389471Y371259D01*
X389506Y371254D01*
X389577Y371246D01*
X389656Y371232D01*
X389730Y371213D01*
X389801Y371186D01*
X389804D01*
X389809Y371183D01*
X389817Y371178D01*
X389831Y371172D01*
X389861Y371153D01*
X389902Y371129D01*
X389946Y371096D01*
X389989Y371055D01*
X390033Y371006D01*
X390074Y370951D01*
Y370948D01*
X390079Y370943D01*
X390082Y370935D01*
X390090Y370924D01*
X390098Y370910D01*
X390107Y370891D01*
X390126Y370850D01*
X390142Y370801D01*
X390159Y370744D01*
X390169Y370684D01*
X390175Y370618D01*
Y370615D01*
Y370610D01*
Y370602D01*
Y370591D01*
X390169Y370561D01*
X390164Y370520D01*
X390153Y370473D01*
X390137Y370421D01*
X390115Y370370D01*
X390085Y370315D01*
Y370312D01*
X390082Y370309D01*
X390077Y370301D01*
X390068Y370290D01*
X390049Y370266D01*
X390019Y370233D01*
X389984Y370198D01*
X389937Y370159D01*
X389885Y370121D01*
X389823Y370086D01*
X389825D01*
X389834Y370083D01*
X389844Y370077D01*
X389861Y370072D01*
X389880Y370064D01*
X389902Y370056D01*
X389951Y370031D01*
X390008Y370001D01*
X390066Y369960D01*
X390123Y369914D01*
X390172Y369856D01*
X390175Y369854D01*
X390178Y369848D01*
X390183Y369840D01*
X390191Y369829D01*
X390202Y369813D01*
X390213Y369794D01*
X390224Y369772D01*
X390235Y369747D01*
X390257Y369692D01*
X390279Y369627D01*
X390292Y369553D01*
X390298Y369515D01*
Y369474D01*
Y369471D01*
Y369466D01*
Y369458D01*
Y369444D01*
X390295Y369428D01*
Y369411D01*
X390289Y369368D01*
X390279Y369316D01*
X390265Y369261D01*
X390246Y369201D01*
X390221Y369144D01*
Y369141D01*
X390218Y369138D01*
X390213Y369130D01*
X390208Y369119D01*
X390191Y369092D01*
X390169Y369059D01*
X390145Y369021D01*
X390112Y368983D01*
X390077Y368945D01*
X390036Y368909D01*
X390030Y368906D01*
X390017Y368895D01*
X389992Y368882D01*
X389959Y368863D01*
X389921Y368844D01*
X389875Y368822D01*
X389820Y368802D01*
X389760Y368786D01*
X389757D01*
X389752Y368783D01*
X389743D01*
X389730Y368781D01*
X389714Y368778D01*
X389694Y368773D01*
X389672Y368770D01*
X389648Y368767D01*
X389621Y368762D01*
X389588Y368759D01*
X389520Y368751D01*
X389440Y368748D01*
X389353Y368745D01*
X388395D01*
Y371265D01*
X389386D01*
X389410Y371262D01*
D02*
G37*
G36*
X385116D02*
X385146D01*
X385182Y371259D01*
X385223Y371257D01*
X385304Y371249D01*
X385389Y371235D01*
X385471Y371219D01*
X385507Y371208D01*
X385542Y371197D01*
X385545D01*
X385550Y371194D01*
X385558Y371188D01*
X385572Y371183D01*
X385605Y371167D01*
X385643Y371142D01*
X385689Y371109D01*
X385736Y371066D01*
X385782Y371017D01*
X385823Y370956D01*
Y370954D01*
X385829Y370948D01*
X385834Y370940D01*
X385840Y370926D01*
X385848Y370910D01*
X385856Y370891D01*
X385867Y370869D01*
X385878Y370845D01*
X385897Y370787D01*
X385913Y370724D01*
X385924Y370654D01*
X385930Y370577D01*
Y370574D01*
Y370566D01*
Y370550D01*
X385927Y370533D01*
X385924Y370509D01*
X385922Y370481D01*
X385916Y370451D01*
X385908Y370419D01*
X385886Y370348D01*
X385872Y370309D01*
X385856Y370271D01*
X385837Y370233D01*
X385812Y370195D01*
X385785Y370159D01*
X385755Y370124D01*
X385752Y370121D01*
X385747Y370116D01*
X385736Y370108D01*
X385722Y370094D01*
X385703Y370080D01*
X385681Y370064D01*
X385654Y370045D01*
X385621Y370026D01*
X385586Y370006D01*
X385547Y369987D01*
X385504Y369968D01*
X385455Y369949D01*
X385403Y369933D01*
X385346Y369916D01*
X385283Y369903D01*
X385217Y369892D01*
X385220D01*
X385223Y369889D01*
X385239Y369881D01*
X385264Y369867D01*
X385294Y369851D01*
X385326Y369832D01*
X385359Y369813D01*
X385392Y369788D01*
X385419Y369766D01*
X385422Y369763D01*
X385425Y369761D01*
X385433Y369753D01*
X385444Y369742D01*
X385457Y369728D01*
X385474Y369712D01*
X385509Y369673D01*
X385550Y369624D01*
X385597Y369567D01*
X385646Y369501D01*
X385695Y369430D01*
X386132Y368745D01*
X385714D01*
X385381Y369269D01*
X385378Y369272D01*
X385375Y369280D01*
X385367Y369291D01*
X385356Y369308D01*
X385346Y369327D01*
X385329Y369349D01*
X385296Y369398D01*
X385258Y369455D01*
X385220Y369512D01*
X385179Y369567D01*
X385141Y369616D01*
Y369619D01*
X385135Y369621D01*
X385124Y369635D01*
X385108Y369657D01*
X385083Y369682D01*
X385059Y369709D01*
X385029Y369736D01*
X384999Y369763D01*
X384971Y369783D01*
X384969Y369785D01*
X384958Y369791D01*
X384944Y369799D01*
X384925Y369810D01*
X384900Y369821D01*
X384876Y369832D01*
X384849Y369843D01*
X384819Y369851D01*
X384816D01*
X384808Y369854D01*
X384794Y369856D01*
X384775Y369859D01*
X384748D01*
X384715Y369862D01*
X384677Y369865D01*
X384248D01*
Y368745D01*
X383915D01*
Y371265D01*
X385086D01*
X385116Y371262D01*
D02*
G37*
G36*
X388176Y368046D02*
X386126D01*
Y368270D01*
X388176D01*
Y368046D01*
D02*
G37*
G36*
X427020Y349108D02*
X427017Y349078D01*
Y349048D01*
X427014Y349012D01*
X427011Y348972D01*
X427003Y348890D01*
X426990Y348805D01*
X426973Y348723D01*
X426962Y348688D01*
X426952Y348652D01*
Y348649D01*
X426949Y348644D01*
X426943Y348636D01*
X426938Y348622D01*
X426922Y348589D01*
X426897Y348551D01*
X426864Y348505D01*
X426820Y348458D01*
X426771Y348412D01*
X426711Y348371D01*
X426709D01*
X426703Y348365D01*
X426695Y348360D01*
X426681Y348355D01*
X426665Y348346D01*
X426646Y348338D01*
X426624Y348327D01*
X426599Y348316D01*
X426542Y348297D01*
X426479Y348281D01*
X426408Y348270D01*
X426332Y348264D01*
X426329D01*
X426321D01*
X426304D01*
X426288Y348267D01*
X426264Y348270D01*
X426236Y348273D01*
X426206Y348278D01*
X426173Y348286D01*
X426102Y348308D01*
X426064Y348322D01*
X426026Y348338D01*
X425988Y348357D01*
X425950Y348382D01*
X425914Y348409D01*
X425879Y348439D01*
X425876Y348442D01*
X425870Y348447D01*
X425862Y348458D01*
X425849Y348472D01*
X425835Y348491D01*
X425818Y348513D01*
X425799Y348540D01*
X425780Y348573D01*
X425761Y348608D01*
X425742Y348647D01*
X425723Y348690D01*
X425704Y348739D01*
X425688Y348791D01*
X425671Y348849D01*
X425658Y348911D01*
X425647Y348977D01*
Y348974D01*
X425644Y348972D01*
X425636Y348955D01*
X425622Y348931D01*
X425606Y348901D01*
X425587Y348868D01*
X425567Y348835D01*
X425543Y348802D01*
X425521Y348775D01*
X425518Y348772D01*
X425516Y348769D01*
X425507Y348761D01*
X425496Y348750D01*
X425483Y348737D01*
X425466Y348720D01*
X425428Y348685D01*
X425379Y348644D01*
X425322Y348598D01*
X425256Y348548D01*
X425185Y348499D01*
X424500Y348062D01*
Y348480D01*
X425024Y348813D01*
X425027Y348816D01*
X425035Y348819D01*
X425046Y348827D01*
X425062Y348838D01*
X425081Y348849D01*
X425103Y348865D01*
X425152Y348898D01*
X425210Y348936D01*
X425267Y348974D01*
X425322Y349015D01*
X425371Y349053D01*
X425374D01*
X425376Y349059D01*
X425390Y349070D01*
X425412Y349086D01*
X425436Y349111D01*
X425464Y349135D01*
X425491Y349165D01*
X425518Y349195D01*
X425537Y349223D01*
X425540Y349225D01*
X425546Y349236D01*
X425554Y349250D01*
X425565Y349269D01*
X425576Y349294D01*
X425587Y349318D01*
X425597Y349345D01*
X425606Y349376D01*
Y349378D01*
X425608Y349386D01*
X425611Y349400D01*
X425614Y349419D01*
Y349447D01*
X425617Y349479D01*
X425619Y349517D01*
Y349946D01*
X424500D01*
Y350279D01*
X427020D01*
Y349108D01*
D02*
G37*
G36*
X426397Y347628D02*
X426400Y347620D01*
X426408Y347606D01*
X426416Y347587D01*
X426427Y347566D01*
X426444Y347538D01*
X426460Y347508D01*
X426476Y347478D01*
X426520Y347407D01*
X426572Y347331D01*
X426627Y347252D01*
X426689Y347178D01*
X426692Y347175D01*
X426698Y347170D01*
X426706Y347159D01*
X426719Y347145D01*
X426736Y347131D01*
X426752Y347112D01*
X426799Y347071D01*
X426848Y347025D01*
X426905Y346979D01*
X426965Y346938D01*
X427028Y346902D01*
Y346703D01*
X424500D01*
Y347011D01*
X426468D01*
X426463Y347017D01*
X426449Y347030D01*
X426430Y347055D01*
X426403Y347091D01*
X426370Y347131D01*
X426334Y347183D01*
X426296Y347241D01*
X426255Y347306D01*
Y347309D01*
X426250Y347314D01*
X426244Y347323D01*
X426239Y347336D01*
X426228Y347353D01*
X426220Y347372D01*
X426195Y347415D01*
X426171Y347464D01*
X426143Y347519D01*
X426119Y347576D01*
X426097Y347631D01*
X426395D01*
X426397Y347628D01*
D02*
G37*
G36*
X400219Y350189D02*
X400216Y350159D01*
Y350129D01*
X400213Y350094D01*
X400210Y350053D01*
X400202Y349971D01*
X400189Y349886D01*
X400172Y349804D01*
X400161Y349769D01*
X400150Y349733D01*
Y349731D01*
X400148Y349725D01*
X400142Y349717D01*
X400137Y349704D01*
X400120Y349671D01*
X400096Y349633D01*
X400063Y349586D01*
X400019Y349540D01*
X399970Y349493D01*
X399910Y349452D01*
X399907D01*
X399902Y349447D01*
X399894Y349441D01*
X399880Y349436D01*
X399864Y349428D01*
X399845Y349419D01*
X399823Y349409D01*
X399798Y349398D01*
X399741Y349379D01*
X399678Y349362D01*
X399607Y349351D01*
X399531Y349346D01*
X399528D01*
X399520D01*
X399503D01*
X399487Y349349D01*
X399462Y349351D01*
X399435Y349354D01*
X399405Y349359D01*
X399372Y349368D01*
X399301Y349390D01*
X399263Y349403D01*
X399225Y349419D01*
X399187Y349439D01*
X399149Y349463D01*
X399113Y349490D01*
X399078Y349521D01*
X399075Y349523D01*
X399069Y349529D01*
X399061Y349540D01*
X399047Y349553D01*
X399034Y349572D01*
X399017Y349594D01*
X398998Y349622D01*
X398979Y349654D01*
X398960Y349690D01*
X398941Y349728D01*
X398922Y349772D01*
X398903Y349821D01*
X398886Y349873D01*
X398870Y349930D01*
X398856Y349993D01*
X398845Y350058D01*
Y350056D01*
X398843Y350053D01*
X398834Y350037D01*
X398821Y350012D01*
X398804Y349982D01*
X398785Y349949D01*
X398766Y349916D01*
X398742Y349884D01*
X398720Y349856D01*
X398717Y349854D01*
X398714Y349851D01*
X398706Y349843D01*
X398695Y349832D01*
X398682Y349818D01*
X398665Y349802D01*
X398627Y349766D01*
X398578Y349725D01*
X398521Y349679D01*
X398455Y349630D01*
X398384Y349581D01*
X397699Y349144D01*
Y349562D01*
X398223Y349895D01*
X398226Y349897D01*
X398234Y349900D01*
X398245Y349908D01*
X398261Y349919D01*
X398280Y349930D01*
X398302Y349946D01*
X398351Y349979D01*
X398409Y350017D01*
X398466Y350056D01*
X398521Y350097D01*
X398570Y350135D01*
X398572D01*
X398575Y350140D01*
X398589Y350151D01*
X398611Y350168D01*
X398635Y350192D01*
X398662Y350217D01*
X398690Y350247D01*
X398717Y350277D01*
X398736Y350304D01*
X398739Y350307D01*
X398744Y350318D01*
X398753Y350331D01*
X398763Y350350D01*
X398774Y350375D01*
X398785Y350400D01*
X398796Y350427D01*
X398804Y350457D01*
Y350460D01*
X398807Y350468D01*
X398810Y350482D01*
X398813Y350501D01*
Y350528D01*
X398815Y350561D01*
X398818Y350599D01*
Y351027D01*
X397699D01*
Y351361D01*
X400219D01*
Y350189D01*
D02*
G37*
G36*
X397224Y347099D02*
X397000D01*
Y349149D01*
X397224D01*
Y347099D01*
D02*
G37*
G36*
X398537Y346662D02*
X398534D01*
X398529D01*
X398518Y346659D01*
X398504Y346657D01*
X398488Y346654D01*
X398471Y346651D01*
X398425Y346640D01*
X398376Y346627D01*
X398324Y346610D01*
X398272Y346588D01*
X398223Y346561D01*
X398218Y346558D01*
X398204Y346545D01*
X398182Y346526D01*
X398155Y346498D01*
X398122Y346463D01*
X398092Y346419D01*
X398059Y346367D01*
X398029Y346307D01*
Y346305D01*
X398026Y346299D01*
X398024Y346291D01*
X398018Y346277D01*
X398013Y346261D01*
X398005Y346242D01*
X397999Y346220D01*
X397994Y346195D01*
X397980Y346138D01*
X397966Y346070D01*
X397958Y345999D01*
X397955Y345920D01*
Y345887D01*
X397958Y345870D01*
Y345851D01*
X397964Y345808D01*
X397969Y345756D01*
X397977Y345698D01*
X397991Y345641D01*
X398010Y345587D01*
Y345584D01*
X398013Y345581D01*
X398015Y345573D01*
X398021Y345562D01*
X398035Y345537D01*
X398051Y345505D01*
X398073Y345469D01*
X398100Y345431D01*
X398130Y345398D01*
X398166Y345368D01*
X398171Y345366D01*
X398182Y345357D01*
X398204Y345344D01*
X398231Y345330D01*
X398264Y345319D01*
X398299Y345305D01*
X398340Y345297D01*
X398381Y345294D01*
X398384D01*
X398387D01*
X398400D01*
X398425Y345297D01*
X398452Y345303D01*
X398485Y345311D01*
X398521Y345324D01*
X398556Y345341D01*
X398589Y345366D01*
X398591Y345368D01*
X398603Y345379D01*
X398619Y345395D01*
X398641Y345420D01*
X398662Y345450D01*
X398687Y345491D01*
X398712Y345537D01*
X398736Y345592D01*
X398739Y345598D01*
X398742Y345603D01*
X398744Y345614D01*
X398747Y345625D01*
X398753Y345641D01*
X398761Y345663D01*
X398766Y345685D01*
X398774Y345715D01*
X398785Y345745D01*
X398794Y345783D01*
X398804Y345824D01*
X398818Y345870D01*
X398829Y345920D01*
X398845Y345977D01*
X398859Y346040D01*
Y346042D01*
X398862Y346054D01*
X398867Y346073D01*
X398873Y346094D01*
X398881Y346124D01*
X398889Y346157D01*
X398900Y346190D01*
X398911Y346228D01*
X398936Y346310D01*
X398963Y346389D01*
X398976Y346427D01*
X398990Y346463D01*
X399004Y346496D01*
X399017Y346523D01*
Y346526D01*
X399023Y346531D01*
X399028Y346539D01*
X399034Y346553D01*
X399053Y346586D01*
X399080Y346624D01*
X399116Y346670D01*
X399154Y346714D01*
X399200Y346758D01*
X399250Y346793D01*
X399252D01*
X399255Y346796D01*
X399263Y346801D01*
X399274Y346807D01*
X399304Y346821D01*
X399342Y346837D01*
X399389Y346853D01*
X399443Y346867D01*
X399503Y346878D01*
X399566Y346881D01*
X399569D01*
X399574D01*
X399585D01*
X399599Y346878D01*
X399615D01*
X399634Y346875D01*
X399683Y346867D01*
X399738Y346853D01*
X399796Y346837D01*
X399858Y346810D01*
X399921Y346774D01*
X399924D01*
X399929Y346769D01*
X399937Y346763D01*
X399948Y346755D01*
X399978Y346728D01*
X400017Y346692D01*
X400058Y346649D01*
X400099Y346594D01*
X400139Y346531D01*
X400175Y346458D01*
Y346455D01*
X400178Y346449D01*
X400183Y346436D01*
X400189Y346422D01*
X400194Y346403D01*
X400202Y346378D01*
X400210Y346351D01*
X400219Y346321D01*
X400227Y346288D01*
X400235Y346253D01*
X400249Y346176D01*
X400260Y346089D01*
X400262Y345996D01*
Y345950D01*
X400260Y345925D01*
X400257Y345895D01*
X400254Y345865D01*
X400251Y345830D01*
X400241Y345753D01*
X400224Y345669D01*
X400200Y345584D01*
X400170Y345502D01*
Y345499D01*
X400164Y345494D01*
X400161Y345480D01*
X400153Y345466D01*
X400142Y345450D01*
X400131Y345428D01*
X400104Y345382D01*
X400066Y345327D01*
X400019Y345273D01*
X399968Y345221D01*
X399905Y345174D01*
X399902Y345172D01*
X399897Y345169D01*
X399888Y345163D01*
X399875Y345155D01*
X399858Y345147D01*
X399839Y345136D01*
X399815Y345128D01*
X399790Y345114D01*
X399733Y345093D01*
X399664Y345073D01*
X399591Y345057D01*
X399509Y345049D01*
X399484Y345368D01*
X399487D01*
X399495Y345371D01*
X399506D01*
X399522Y345374D01*
X399544Y345379D01*
X399566Y345385D01*
X399618Y345401D01*
X399675Y345423D01*
X399735Y345456D01*
X399793Y345494D01*
X399817Y345518D01*
X399842Y345546D01*
X399845Y345548D01*
X399847Y345551D01*
X399853Y345562D01*
X399861Y345573D01*
X399869Y345589D01*
X399880Y345608D01*
X399891Y345630D01*
X399905Y345655D01*
X399916Y345685D01*
X399926Y345718D01*
X399937Y345753D01*
X399946Y345791D01*
X399954Y345835D01*
X399959Y345882D01*
X399965Y345931D01*
Y346010D01*
X399962Y346032D01*
Y346056D01*
X399959Y346083D01*
X399956Y346116D01*
X399951Y346149D01*
X399937Y346223D01*
X399918Y346294D01*
X399891Y346362D01*
X399872Y346395D01*
X399853Y346422D01*
Y346425D01*
X399847Y346427D01*
X399834Y346444D01*
X399809Y346466D01*
X399776Y346490D01*
X399738Y346515D01*
X399692Y346537D01*
X399643Y346553D01*
X399615Y346556D01*
X399585Y346558D01*
X399583D01*
X399580D01*
X399563Y346556D01*
X399539Y346553D01*
X399509Y346548D01*
X399473Y346534D01*
X399435Y346517D01*
X399400Y346496D01*
X399364Y346463D01*
X399361Y346458D01*
X399356Y346452D01*
X399348Y346441D01*
X399340Y346427D01*
X399331Y346411D01*
X399320Y346389D01*
X399307Y346365D01*
X399293Y346335D01*
X399279Y346299D01*
X399266Y346258D01*
X399250Y346212D01*
X399233Y346157D01*
X399217Y346100D01*
X399198Y346034D01*
X399181Y345961D01*
Y345955D01*
X399179Y345941D01*
X399173Y345922D01*
X399165Y345895D01*
X399159Y345862D01*
X399149Y345824D01*
X399140Y345783D01*
X399127Y345740D01*
X399102Y345647D01*
X399078Y345554D01*
X399064Y345510D01*
X399050Y345472D01*
X399037Y345434D01*
X399023Y345404D01*
Y345401D01*
X399017Y345393D01*
X399012Y345382D01*
X399004Y345368D01*
X398996Y345349D01*
X398982Y345327D01*
X398952Y345281D01*
X398916Y345226D01*
X398873Y345174D01*
X398821Y345123D01*
X398794Y345101D01*
X398766Y345079D01*
X398763D01*
X398758Y345073D01*
X398750Y345068D01*
X398739Y345062D01*
X398725Y345054D01*
X398706Y345046D01*
X398662Y345024D01*
X398611Y345005D01*
X398551Y344989D01*
X398482Y344978D01*
X398409Y344972D01*
X398406D01*
X398400D01*
X398390D01*
X398376Y344975D01*
X398357D01*
X398338Y344978D01*
X398286Y344986D01*
X398229Y345000D01*
X398166Y345022D01*
X398100Y345052D01*
X398065Y345068D01*
X398032Y345090D01*
X398029D01*
X398024Y345095D01*
X398015Y345101D01*
X398002Y345112D01*
X397972Y345136D01*
X397931Y345174D01*
X397887Y345221D01*
X397841Y345278D01*
X397797Y345344D01*
X397756Y345420D01*
Y345423D01*
X397751Y345431D01*
X397748Y345442D01*
X397740Y345458D01*
X397734Y345477D01*
X397726Y345502D01*
X397715Y345529D01*
X397707Y345562D01*
X397699Y345595D01*
X397688Y345633D01*
X397674Y345715D01*
X397663Y345805D01*
X397658Y345903D01*
Y345936D01*
X397661Y345961D01*
Y345991D01*
X397663Y346023D01*
X397666Y346062D01*
X397672Y346105D01*
X397682Y346195D01*
X397699Y346291D01*
X397723Y346387D01*
X397756Y346479D01*
Y346482D01*
X397762Y346490D01*
X397767Y346501D01*
X397775Y346517D01*
X397786Y346537D01*
X397797Y346558D01*
X397830Y346610D01*
X397871Y346668D01*
X397923Y346728D01*
X397983Y346788D01*
X398054Y346840D01*
X398057Y346842D01*
X398062Y346845D01*
X398073Y346851D01*
X398089Y346859D01*
X398108Y346870D01*
X398130Y346881D01*
X398158Y346894D01*
X398187Y346905D01*
X398218Y346919D01*
X398253Y346930D01*
X398332Y346952D01*
X398417Y346968D01*
X398463Y346973D01*
X398510Y346976D01*
X398537Y346662D01*
D02*
G37*
G36*
X400219Y342687D02*
X399921D01*
Y344178D01*
X399151D01*
Y342783D01*
X398854D01*
Y344178D01*
X397996D01*
Y342630D01*
X397699D01*
Y344511D01*
X400219D01*
Y342687D01*
D02*
G37*
G36*
Y340367D02*
X399921D01*
Y341197D01*
X397699D01*
Y341530D01*
X399921D01*
Y342360D01*
X400219D01*
Y340367D01*
D02*
G37*
G36*
X399596Y339908D02*
X399599Y339900D01*
X399607Y339886D01*
X399615Y339867D01*
X399626Y339845D01*
X399643Y339818D01*
X399659Y339788D01*
X399675Y339758D01*
X399719Y339687D01*
X399771Y339611D01*
X399826Y339531D01*
X399888Y339458D01*
X399891Y339455D01*
X399897Y339450D01*
X399905Y339439D01*
X399918Y339425D01*
X399935Y339411D01*
X399951Y339392D01*
X399997Y339351D01*
X400047Y339305D01*
X400104Y339259D01*
X400164Y339217D01*
X400227Y339182D01*
Y338983D01*
X397699D01*
Y339291D01*
X399667D01*
X399662Y339297D01*
X399648Y339310D01*
X399629Y339335D01*
X399602Y339370D01*
X399569Y339411D01*
X399533Y339463D01*
X399495Y339521D01*
X399454Y339586D01*
Y339589D01*
X399449Y339594D01*
X399443Y339602D01*
X399438Y339616D01*
X399427Y339633D01*
X399419Y339652D01*
X399394Y339695D01*
X399370Y339744D01*
X399342Y339799D01*
X399318Y339856D01*
X399296Y339911D01*
X399593D01*
X399596Y339908D01*
D02*
G37*
%LPC*%
G36*
X416516Y350043D02*
X415683D01*
Y349290D01*
X415686Y349271D01*
Y349249D01*
X415689Y349197D01*
X415694Y349140D01*
X415702Y349080D01*
X415713Y349022D01*
X415730Y348970D01*
Y348968D01*
X415732Y348965D01*
X415738Y348949D01*
X415749Y348927D01*
X415765Y348897D01*
X415787Y348867D01*
X415811Y348834D01*
X415844Y348801D01*
X415880Y348774D01*
X415885Y348771D01*
X415899Y348763D01*
X415918Y348752D01*
X415948Y348738D01*
X415981Y348727D01*
X416019Y348716D01*
X416063Y348708D01*
X416106Y348706D01*
X416109D01*
X416115D01*
X416123D01*
X416136Y348708D01*
X416150D01*
X416169Y348711D01*
X416210Y348722D01*
X416257Y348738D01*
X416306Y348760D01*
X416352Y348793D01*
X416377Y348815D01*
X416398Y348837D01*
X416401Y348839D01*
X416404Y348842D01*
X416409Y348850D01*
X416418Y348861D01*
X416426Y348875D01*
X416437Y348894D01*
X416448Y348913D01*
X416459Y348938D01*
X416469Y348965D01*
X416478Y348995D01*
X416489Y349028D01*
X416497Y349063D01*
X416505Y349104D01*
X416510Y349148D01*
X416516Y349194D01*
Y350043D01*
D02*
G37*
G36*
X368814Y361316D02*
X368090D01*
Y360416D01*
X368770D01*
X368792Y360418D01*
X368819D01*
X368849Y360421D01*
X368885Y360426D01*
X368920Y360432D01*
X368997Y360446D01*
X369073Y360467D01*
X369109Y360481D01*
X369141Y360497D01*
X369174Y360514D01*
X369201Y360536D01*
X369204Y360538D01*
X369207Y360541D01*
X369215Y360549D01*
X369223Y360558D01*
X369245Y360585D01*
X369270Y360623D01*
X369294Y360672D01*
X369316Y360730D01*
X369333Y360798D01*
X369335Y360833D01*
X369338Y360874D01*
Y360877D01*
Y360882D01*
Y360891D01*
Y360901D01*
X369333Y360931D01*
X369327Y360967D01*
X369319Y361011D01*
X369303Y361054D01*
X369283Y361101D01*
X369256Y361144D01*
X369253Y361150D01*
X369242Y361164D01*
X369223Y361183D01*
X369201Y361205D01*
X369169Y361229D01*
X369133Y361254D01*
X369092Y361276D01*
X369046Y361292D01*
X369043D01*
X369029Y361295D01*
X369008Y361300D01*
X368975Y361305D01*
X368956D01*
X368934Y361308D01*
X368907Y361311D01*
X368879Y361314D01*
X368847D01*
X368814Y361316D01*
D02*
G37*
G36*
X364446Y361336D02*
X363597D01*
Y360503D01*
X364350D01*
X364369Y360506D01*
X364391D01*
X364443Y360508D01*
X364500Y360514D01*
X364561Y360522D01*
X364618Y360533D01*
X364670Y360549D01*
X364672D01*
X364675Y360552D01*
X364691Y360558D01*
X364713Y360568D01*
X364743Y360585D01*
X364773Y360607D01*
X364806Y360631D01*
X364839Y360664D01*
X364866Y360700D01*
X364869Y360705D01*
X364877Y360719D01*
X364888Y360738D01*
X364902Y360768D01*
X364913Y360801D01*
X364924Y360839D01*
X364932Y360882D01*
X364934Y360926D01*
Y360929D01*
Y360934D01*
Y360943D01*
X364932Y360956D01*
Y360970D01*
X364929Y360989D01*
X364918Y361030D01*
X364902Y361076D01*
X364880Y361125D01*
X364847Y361172D01*
X364825Y361196D01*
X364804Y361218D01*
X364801Y361221D01*
X364798Y361224D01*
X364790Y361229D01*
X364779Y361237D01*
X364765Y361245D01*
X364746Y361256D01*
X364727Y361267D01*
X364702Y361278D01*
X364675Y361289D01*
X364645Y361297D01*
X364612Y361308D01*
X364577Y361316D01*
X364536Y361325D01*
X364492Y361330D01*
X364446Y361336D01*
D02*
G37*
G36*
X371257Y361371D02*
X371194D01*
X371178Y361368D01*
X371151D01*
X371121Y361363D01*
X371085Y361357D01*
X371047Y361349D01*
X371003Y361341D01*
X370957Y361327D01*
X370908Y361311D01*
X370856Y361292D01*
X370807Y361267D01*
X370755Y361240D01*
X370703Y361207D01*
X370651Y361169D01*
X370602Y361125D01*
X370599Y361123D01*
X370591Y361114D01*
X370577Y361098D01*
X370564Y361079D01*
X370542Y361052D01*
X370523Y361019D01*
X370498Y360978D01*
X370476Y360934D01*
X370452Y360880D01*
X370427Y360820D01*
X370408Y360754D01*
X370389Y360680D01*
X370373Y360601D01*
X370359Y360514D01*
X370351Y360418D01*
X370348Y360315D01*
Y360309D01*
Y360295D01*
X370351Y360271D01*
Y360238D01*
X370356Y360200D01*
X370362Y360156D01*
X370367Y360107D01*
X370378Y360055D01*
X370392Y359998D01*
X370408Y359938D01*
X370427Y359880D01*
X370452Y359820D01*
X370479Y359760D01*
X370512Y359703D01*
X370547Y359648D01*
X370591Y359597D01*
X370594Y359594D01*
X370602Y359586D01*
X370616Y359572D01*
X370635Y359556D01*
X370659Y359537D01*
X370689Y359515D01*
X370722Y359490D01*
X370760Y359468D01*
X370801Y359444D01*
X370850Y359419D01*
X370900Y359397D01*
X370954Y359378D01*
X371011Y359362D01*
X371074Y359348D01*
X371137Y359340D01*
X371205Y359337D01*
X371222D01*
X371241Y359340D01*
X371268Y359343D01*
X371301Y359345D01*
X371336Y359351D01*
X371380Y359359D01*
X371424Y359370D01*
X371473Y359384D01*
X371522Y359400D01*
X371574Y359422D01*
X371626Y359449D01*
X371678Y359479D01*
X371729Y359512D01*
X371779Y359553D01*
X371825Y359599D01*
X371828Y359602D01*
X371836Y359613D01*
X371847Y359627D01*
X371863Y359648D01*
X371882Y359676D01*
X371904Y359708D01*
X371926Y359747D01*
X371948Y359793D01*
X371970Y359842D01*
X371994Y359900D01*
X372013Y359960D01*
X372032Y360028D01*
X372049Y360102D01*
X372060Y360178D01*
X372068Y360263D01*
X372071Y360350D01*
Y360353D01*
Y360364D01*
Y360380D01*
X372068Y360402D01*
Y360429D01*
X372065Y360459D01*
X372062Y360495D01*
X372057Y360533D01*
X372046Y360618D01*
X372027Y360708D01*
X372000Y360798D01*
X371964Y360888D01*
Y360891D01*
X371959Y360899D01*
X371953Y360910D01*
X371945Y360926D01*
X371934Y360945D01*
X371921Y360967D01*
X371888Y361019D01*
X371844Y361076D01*
X371792Y361134D01*
X371732Y361191D01*
X371661Y361243D01*
X371658Y361245D01*
X371653Y361248D01*
X371642Y361254D01*
X371626Y361262D01*
X371607Y361273D01*
X371585Y361284D01*
X371560Y361295D01*
X371530Y361308D01*
X371497Y361319D01*
X371465Y361330D01*
X371388Y361352D01*
X371304Y361366D01*
X371257Y361371D01*
D02*
G37*
G36*
X415521Y376217D02*
X415519D01*
X415513D01*
X415505D01*
X415494D01*
X415464Y376211D01*
X415428Y376206D01*
X415385Y376198D01*
X415341Y376181D01*
X415295Y376162D01*
X415251Y376135D01*
X415245Y376132D01*
X415232Y376121D01*
X415213Y376102D01*
X415191Y376080D01*
X415166Y376048D01*
X415142Y376012D01*
X415120Y375971D01*
X415103Y375925D01*
Y375922D01*
X415101Y375908D01*
X415095Y375887D01*
X415090Y375854D01*
Y375835D01*
X415087Y375813D01*
X415084Y375785D01*
X415082Y375758D01*
Y375725D01*
X415079Y375693D01*
Y374969D01*
X415980D01*
Y375649D01*
X415977Y375671D01*
Y375698D01*
X415974Y375728D01*
X415969Y375764D01*
X415964Y375799D01*
X415950Y375876D01*
X415928Y375952D01*
X415914Y375988D01*
X415898Y376020D01*
X415882Y376053D01*
X415860Y376080D01*
X415857Y376083D01*
X415854Y376086D01*
X415846Y376094D01*
X415838Y376102D01*
X415811Y376124D01*
X415772Y376149D01*
X415723Y376173D01*
X415666Y376195D01*
X415598Y376211D01*
X415562Y376214D01*
X415521Y376217D01*
D02*
G37*
G36*
X416023Y373834D02*
X416018D01*
X416007D01*
X415985D01*
X415958Y373831D01*
X415925D01*
X415887Y373828D01*
X415846Y373823D01*
X415800Y373817D01*
X415701Y373801D01*
X415600Y373779D01*
X415505Y373746D01*
X415458Y373724D01*
X415417Y373703D01*
X415415Y373700D01*
X415409Y373697D01*
X415398Y373689D01*
X415382Y373678D01*
X415366Y373667D01*
X415346Y373651D01*
X415303Y373615D01*
X415254Y373569D01*
X415207Y373514D01*
X415164Y373454D01*
X415147Y373421D01*
X415131Y373386D01*
Y373383D01*
X415128Y373380D01*
X415125Y373372D01*
X415123Y373361D01*
X415120Y373345D01*
X415114Y373328D01*
X415109Y373307D01*
X415103Y373282D01*
X415101Y373255D01*
X415095Y373222D01*
X415090Y373186D01*
X415087Y373148D01*
X415084Y373105D01*
X415082Y373058D01*
X415079Y373009D01*
Y372428D01*
X417004D01*
Y373006D01*
X417001Y373028D01*
Y373053D01*
X416998Y373107D01*
X416993Y373170D01*
X416985Y373236D01*
X416974Y373299D01*
X416960Y373356D01*
Y373358D01*
X416957Y373361D01*
X416955Y373370D01*
X416952Y373380D01*
X416941Y373405D01*
X416927Y373438D01*
X416908Y373473D01*
X416886Y373511D01*
X416859Y373550D01*
X416829Y373582D01*
X416826Y373585D01*
X416823Y373588D01*
X416807Y373602D01*
X416780Y373623D01*
X416744Y373651D01*
X416698Y373678D01*
X416643Y373708D01*
X416580Y373738D01*
X416509Y373765D01*
X416507D01*
X416501Y373768D01*
X416490Y373771D01*
X416474Y373776D01*
X416455Y373782D01*
X416430Y373787D01*
X416403Y373793D01*
X416373Y373801D01*
X416340Y373806D01*
X416302Y373812D01*
X416264Y373817D01*
X416220Y373823D01*
X416127Y373831D01*
X416023Y373834D01*
D02*
G37*
G36*
X402469Y353031D02*
X402467D01*
X402461D01*
X402453D01*
X402439Y353028D01*
X402426D01*
X402407Y353026D01*
X402366Y353015D01*
X402319Y352998D01*
X402270Y352977D01*
X402224Y352944D01*
X402199Y352922D01*
X402177Y352900D01*
X402175Y352898D01*
X402172Y352895D01*
X402166Y352887D01*
X402158Y352876D01*
X402150Y352862D01*
X402139Y352843D01*
X402128Y352824D01*
X402117Y352799D01*
X402106Y352772D01*
X402098Y352742D01*
X402087Y352709D01*
X402079Y352674D01*
X402071Y352633D01*
X402065Y352589D01*
X402060Y352543D01*
Y351694D01*
X402892D01*
Y352447D01*
X402890Y352466D01*
Y352488D01*
X402887Y352540D01*
X402882Y352597D01*
X402873Y352657D01*
X402863Y352715D01*
X402846Y352766D01*
Y352769D01*
X402843Y352772D01*
X402838Y352788D01*
X402827Y352810D01*
X402811Y352840D01*
X402789Y352870D01*
X402764Y352903D01*
X402731Y352936D01*
X402696Y352963D01*
X402691Y352966D01*
X402677Y352974D01*
X402658Y352985D01*
X402628Y352998D01*
X402595Y353009D01*
X402557Y353020D01*
X402513Y353028D01*
X402469Y353031D01*
D02*
G37*
G36*
X390052Y382976D02*
X389989D01*
X389973Y382973D01*
X389946D01*
X389916Y382967D01*
X389880Y382962D01*
X389842Y382954D01*
X389798Y382946D01*
X389752Y382932D01*
X389703Y382916D01*
X389651Y382896D01*
X389602Y382872D01*
X389550Y382845D01*
X389498Y382812D01*
X389446Y382774D01*
X389397Y382730D01*
X389394Y382727D01*
X389386Y382719D01*
X389372Y382703D01*
X389359Y382683D01*
X389337Y382656D01*
X389318Y382624D01*
X389293Y382582D01*
X389271Y382539D01*
X389247Y382484D01*
X389222Y382424D01*
X389203Y382359D01*
X389184Y382285D01*
X389168Y382206D01*
X389154Y382118D01*
X389146Y382023D01*
X389143Y381919D01*
Y381914D01*
Y381900D01*
X389146Y381875D01*
Y381843D01*
X389151Y381804D01*
X389157Y381761D01*
X389162Y381712D01*
X389173Y381660D01*
X389187Y381603D01*
X389203Y381542D01*
X389222Y381485D01*
X389247Y381425D01*
X389274Y381365D01*
X389307Y381308D01*
X389342Y381253D01*
X389386Y381201D01*
X389389Y381198D01*
X389397Y381190D01*
X389411Y381177D01*
X389430Y381160D01*
X389454Y381141D01*
X389484Y381119D01*
X389517Y381095D01*
X389555Y381073D01*
X389596Y381048D01*
X389645Y381024D01*
X389695Y381002D01*
X389749Y380983D01*
X389807Y380966D01*
X389869Y380953D01*
X389932Y380944D01*
X390000Y380942D01*
X390017D01*
X390036Y380944D01*
X390063Y380947D01*
X390096Y380950D01*
X390131Y380956D01*
X390175Y380964D01*
X390219Y380975D01*
X390268Y380988D01*
X390317Y381005D01*
X390369Y381026D01*
X390421Y381054D01*
X390473Y381084D01*
X390525Y381117D01*
X390574Y381157D01*
X390620Y381204D01*
X390623Y381207D01*
X390631Y381218D01*
X390642Y381231D01*
X390658Y381253D01*
X390677Y381280D01*
X390699Y381313D01*
X390721Y381351D01*
X390743Y381398D01*
X390765Y381447D01*
X390789Y381504D01*
X390808Y381564D01*
X390827Y381632D01*
X390844Y381706D01*
X390855Y381783D01*
X390863Y381867D01*
X390866Y381955D01*
Y381957D01*
Y381968D01*
Y381985D01*
X390863Y382007D01*
Y382034D01*
X390860Y382064D01*
X390858Y382099D01*
X390852Y382137D01*
X390841Y382222D01*
X390822Y382312D01*
X390795Y382402D01*
X390759Y382492D01*
Y382495D01*
X390754Y382503D01*
X390748Y382514D01*
X390740Y382531D01*
X390729Y382550D01*
X390716Y382572D01*
X390683Y382624D01*
X390639Y382681D01*
X390587Y382738D01*
X390527Y382796D01*
X390456Y382847D01*
X390454Y382850D01*
X390448Y382853D01*
X390437Y382858D01*
X390421Y382866D01*
X390402Y382877D01*
X390380Y382888D01*
X390355Y382899D01*
X390325Y382913D01*
X390292Y382924D01*
X390260Y382935D01*
X390183Y382957D01*
X390099Y382970D01*
X390052Y382976D01*
D02*
G37*
G36*
X392596Y371003D02*
Y371000D01*
X392594Y370992D01*
X392591Y370978D01*
X392588Y370962D01*
X392583Y370937D01*
X392577Y370913D01*
X392569Y370883D01*
X392561Y370850D01*
X392553Y370814D01*
X392542Y370776D01*
X392517Y370694D01*
X392490Y370607D01*
X392460Y370517D01*
X392181Y369777D01*
X393041D01*
X392776Y370476D01*
Y370479D01*
X392771Y370490D01*
X392766Y370506D01*
X392757Y370531D01*
X392746Y370555D01*
X392736Y370588D01*
X392722Y370623D01*
X392708Y370662D01*
X392681Y370746D01*
X392651Y370834D01*
X392621Y370921D01*
X392596Y371003D01*
D02*
G37*
G36*
X389279Y370967D02*
X388728D01*
Y370206D01*
X389326D01*
X389348Y370209D01*
X389394D01*
X389446Y370211D01*
X389501Y370217D01*
X389550Y370225D01*
X389571Y370228D01*
X389591Y370233D01*
X389593D01*
X389596Y370236D01*
X389613Y370241D01*
X389634Y370249D01*
X389662Y370263D01*
X389692Y370279D01*
X389724Y370301D01*
X389754Y370329D01*
X389782Y370359D01*
X389785Y370364D01*
X389793Y370375D01*
X389804Y370394D01*
X389814Y370419D01*
X389825Y370451D01*
X389836Y370490D01*
X389844Y370531D01*
X389847Y370580D01*
Y370583D01*
Y370585D01*
Y370602D01*
X389844Y370623D01*
X389839Y370654D01*
X389831Y370689D01*
X389820Y370727D01*
X389806Y370765D01*
X389785Y370801D01*
X389782Y370806D01*
X389774Y370817D01*
X389760Y370834D01*
X389741Y370853D01*
X389716Y370875D01*
X389686Y370896D01*
X389653Y370916D01*
X389613Y370932D01*
X389607Y370935D01*
X389602D01*
X389591Y370937D01*
X389580Y370940D01*
X389563Y370943D01*
X389544Y370946D01*
X389525Y370951D01*
X389501Y370954D01*
X389471Y370956D01*
X389440Y370959D01*
X389405Y370962D01*
X389367Y370965D01*
X389326D01*
X389279Y370967D01*
D02*
G37*
G36*
X389310Y369908D02*
X388728D01*
Y369043D01*
X389410D01*
X389446Y369045D01*
X389481D01*
X389520Y369048D01*
X389555Y369051D01*
X389582Y369054D01*
X389588D01*
X389602Y369056D01*
X389623Y369062D01*
X389651Y369070D01*
X389681Y369078D01*
X389711Y369092D01*
X389743Y369106D01*
X389774Y369122D01*
X389776Y369125D01*
X389787Y369130D01*
X389801Y369141D01*
X389820Y369157D01*
X389839Y369177D01*
X389861Y369201D01*
X389883Y369228D01*
X389902Y369261D01*
X389905Y369267D01*
X389910Y369278D01*
X389918Y369297D01*
X389929Y369324D01*
X389937Y369354D01*
X389946Y369390D01*
X389951Y369430D01*
X389954Y369474D01*
Y369477D01*
Y369480D01*
Y369488D01*
Y369499D01*
X389951Y369523D01*
X389946Y369559D01*
X389935Y369597D01*
X389924Y369638D01*
X389905Y369679D01*
X389880Y369720D01*
X389877Y369725D01*
X389866Y369736D01*
X389850Y369755D01*
X389828Y369777D01*
X389798Y369802D01*
X389763Y369824D01*
X389724Y369845D01*
X389678Y369865D01*
X389675D01*
X389672Y369867D01*
X389664Y369870D01*
X389653Y369873D01*
X389640Y369875D01*
X389626Y369878D01*
X389607Y369884D01*
X389585Y369886D01*
X389558Y369892D01*
X389531Y369895D01*
X389501Y369897D01*
X389468Y369903D01*
X389394Y369905D01*
X389310Y369908D01*
D02*
G37*
G36*
X385097Y370987D02*
X384248D01*
Y370154D01*
X385001D01*
X385021Y370157D01*
X385043D01*
X385094Y370159D01*
X385152Y370165D01*
X385212Y370173D01*
X385269Y370184D01*
X385321Y370200D01*
X385324D01*
X385326Y370203D01*
X385343Y370209D01*
X385365Y370219D01*
X385395Y370236D01*
X385425Y370258D01*
X385457Y370282D01*
X385490Y370315D01*
X385518Y370350D01*
X385520Y370356D01*
X385528Y370370D01*
X385539Y370389D01*
X385553Y370419D01*
X385564Y370451D01*
X385575Y370490D01*
X385583Y370533D01*
X385586Y370577D01*
Y370580D01*
Y370585D01*
Y370593D01*
X385583Y370607D01*
Y370621D01*
X385580Y370640D01*
X385569Y370681D01*
X385553Y370727D01*
X385531Y370776D01*
X385498Y370823D01*
X385476Y370847D01*
X385455Y370869D01*
X385452Y370872D01*
X385449Y370875D01*
X385441Y370880D01*
X385430Y370888D01*
X385417Y370896D01*
X385397Y370907D01*
X385378Y370918D01*
X385354Y370929D01*
X385326Y370940D01*
X385296Y370948D01*
X385264Y370959D01*
X385228Y370967D01*
X385187Y370976D01*
X385143Y370981D01*
X385097Y370987D01*
D02*
G37*
G36*
X426741Y349946D02*
X425909D01*
Y349193D01*
X425911Y349173D01*
Y349152D01*
X425914Y349100D01*
X425919Y349043D01*
X425928Y348982D01*
X425939Y348925D01*
X425955Y348873D01*
Y348870D01*
X425958Y348868D01*
X425963Y348851D01*
X425974Y348830D01*
X425990Y348799D01*
X426012Y348769D01*
X426037Y348737D01*
X426070Y348704D01*
X426105Y348677D01*
X426111Y348674D01*
X426124Y348666D01*
X426143Y348655D01*
X426173Y348641D01*
X426206Y348630D01*
X426244Y348619D01*
X426288Y348611D01*
X426332Y348608D01*
X426334D01*
X426340D01*
X426348D01*
X426362Y348611D01*
X426375D01*
X426395Y348614D01*
X426436Y348625D01*
X426482Y348641D01*
X426531Y348663D01*
X426578Y348696D01*
X426602Y348718D01*
X426624Y348739D01*
X426627Y348742D01*
X426629Y348745D01*
X426635Y348753D01*
X426643Y348764D01*
X426651Y348778D01*
X426662Y348797D01*
X426673Y348816D01*
X426684Y348840D01*
X426695Y348868D01*
X426703Y348898D01*
X426714Y348931D01*
X426722Y348966D01*
X426730Y349007D01*
X426736Y349051D01*
X426741Y349097D01*
Y349946D01*
D02*
G37*
G36*
X399940Y351027D02*
X399108D01*
Y350274D01*
X399110Y350255D01*
Y350233D01*
X399113Y350181D01*
X399118Y350124D01*
X399127Y350064D01*
X399137Y350007D01*
X399154Y349955D01*
Y349952D01*
X399157Y349949D01*
X399162Y349933D01*
X399173Y349911D01*
X399189Y349881D01*
X399211Y349851D01*
X399236Y349818D01*
X399269Y349785D01*
X399304Y349758D01*
X399309Y349755D01*
X399323Y349747D01*
X399342Y349736D01*
X399372Y349723D01*
X399405Y349712D01*
X399443Y349701D01*
X399487Y349693D01*
X399531Y349690D01*
X399533D01*
X399539D01*
X399547D01*
X399561Y349693D01*
X399574D01*
X399593Y349695D01*
X399634Y349706D01*
X399681Y349723D01*
X399730Y349744D01*
X399776Y349777D01*
X399801Y349799D01*
X399823Y349821D01*
X399826Y349824D01*
X399828Y349826D01*
X399834Y349834D01*
X399842Y349845D01*
X399850Y349859D01*
X399861Y349878D01*
X399872Y349897D01*
X399883Y349922D01*
X399894Y349949D01*
X399902Y349979D01*
X399913Y350012D01*
X399921Y350047D01*
X399929Y350088D01*
X399935Y350132D01*
X399940Y350179D01*
Y351027D01*
D02*
G37*
%LPD*%
D11*
X385396Y405252D02*
X391695D01*
X385396Y394228D02*
Y405252D01*
Y394228D02*
X391695D01*
Y405252D01*
X417916Y342109D02*
Y358644D01*
X410633Y342109D02*
X417916D01*
X410633D02*
Y358644D01*
X417916D01*
X353106Y339491D02*
Y378782D01*
Y339491D02*
X373421D01*
Y378782D01*
X353106D02*
X373421D01*
X396987Y375267D02*
X413013D01*
Y361881D02*
Y375267D01*
X396987Y361881D02*
X413013D01*
X396987D02*
Y375267D01*
X414850Y361988D02*
Y373012D01*
X421150D01*
Y361988D02*
Y373012D01*
X414850Y361988D02*
X421150D01*
X401949Y344077D02*
X408051D01*
Y358644D01*
X401949D02*
X408051D01*
X401949Y344077D02*
Y358644D01*
X378794Y376850D02*
Y383150D01*
Y376850D02*
X389817D01*
Y383150D01*
X378794D02*
X389817D01*
X377210Y364381D02*
Y371712D01*
Y364381D02*
X390620D01*
Y371712D01*
X377210D02*
X390620D01*
X420858Y358547D02*
X428142D01*
X420858Y342011D02*
Y358547D01*
Y342011D02*
X428142D01*
Y358547D01*
X393949Y358644D02*
X400051D01*
X393949Y344077D02*
Y358644D01*
Y344077D02*
X400051D01*
Y358644D01*
M02*
