G04*
G04 #@! TF.GenerationSoftware,Altium Limited,Altium Designer,25.8.1 (18)*
G04*
G04 Layer_Color=8388736*
%FSLAX25Y25*%
%MOIN*%
G70*
G04*
G04 #@! TF.SameCoordinates,A2030EB1-7BB1-480F-B386-6677E5CB5BAE*
G04*
G04*
G04 #@! TF.FilePolarity,Negative*
G04*
G01*
G75*
%ADD13R,0.05118X0.02756*%
%ADD17R,0.02756X0.05118*%
%ADD18R,0.06496X0.05512*%
%ADD19R,0.04528X0.04528*%
G04:AMPARAMS|DCode=20|XSize=48.81mil|YSize=20.7mil|CornerRadius=10.35mil|HoleSize=0mil|Usage=FLASHONLY|Rotation=0.000|XOffset=0mil|YOffset=0mil|HoleType=Round|Shape=RoundedRectangle|*
%AMROUNDEDRECTD20*
21,1,0.04881,0.00000,0,0,0.0*
21,1,0.02811,0.02070,0,0,0.0*
1,1,0.02070,0.01405,0.00000*
1,1,0.02070,-0.01405,0.00000*
1,1,0.02070,-0.01405,0.00000*
1,1,0.02070,0.01405,0.00000*
%
%ADD20ROUNDEDRECTD20*%
%ADD25R,0.04881X0.02070*%
%ADD26R,0.04743X0.05363*%
%ADD27R,0.06312X0.03162*%
%ADD28R,0.10800X0.11312*%
%ADD29R,0.04737X0.06115*%
%ADD30R,0.07887X0.03162*%
G04:AMPARAMS|DCode=31|XSize=82.8mil|YSize=133.98mil|CornerRadius=0mil|HoleSize=0mil|Usage=FLASHONLY|Rotation=270.000|XOffset=0mil|YOffset=0mil|HoleType=Round|Shape=Octagon|*
%AMOCTAGOND31*
4,1,8,0.06699,0.02070,0.06699,-0.02070,0.04629,-0.04140,-0.04629,-0.04140,-0.06699,-0.02070,-0.06699,0.02070,-0.04629,0.04140,0.04629,0.04140,0.06699,0.02070,0.0*
%
%ADD31OCTAGOND31*%

%ADD32R,0.05800X0.03800*%
%ADD33R,0.06312X0.06902*%
%ADD34C,0.35446*%
%ADD35C,0.06312*%
%ADD36C,0.07887*%
%ADD37R,0.07887X0.07887*%
%ADD38R,0.06312X0.06312*%
%ADD39C,0.04724*%
%ADD40R,0.04724X0.04724*%
D13*
X388546Y396000D02*
D03*
Y403480D02*
D03*
X418000Y371240D02*
D03*
Y363760D02*
D03*
D17*
X388046Y380000D02*
D03*
X380565D02*
D03*
D18*
X414275Y345258D02*
D03*
Y355494D02*
D03*
X424500Y345161D02*
D03*
Y355397D02*
D03*
D19*
X405000Y355987D02*
D03*
X397000Y355986D02*
D03*
X405000Y346735D02*
D03*
X397000Y346734D02*
D03*
D20*
X400411Y368574D02*
D03*
X409589Y372314D02*
D03*
X400411Y364834D02*
D03*
X409589D02*
D03*
Y368574D02*
D03*
D25*
X400411Y372314D02*
D03*
D26*
X387265Y368046D02*
D03*
X380566D02*
D03*
D27*
X380505Y401906D02*
D03*
Y390094D02*
D03*
D28*
X355900Y397270D02*
D03*
D29*
X346453Y402201D02*
D03*
X340547D02*
D03*
D30*
X379718Y396000D02*
D03*
D31*
X369875D02*
D03*
D32*
X356000Y388015D02*
D03*
D33*
X380565Y343811D02*
D03*
X388046D02*
D03*
X388046Y355397D02*
D03*
X380565D02*
D03*
D34*
X356012Y422604D02*
D03*
X312573Y337869D02*
D03*
X451523Y337899D02*
D03*
X451522Y422597D02*
D03*
D35*
X425500Y397343D02*
D03*
X339003Y363760D02*
D03*
D36*
X319500Y400000D02*
D03*
D37*
Y420000D02*
D03*
D38*
X425500Y387500D02*
D03*
X339003Y373602D02*
D03*
D39*
X363283Y369137D02*
D03*
Y359137D02*
D03*
D40*
Y349137D02*
D03*
M02*
