G04*
G04 #@! TF.GenerationSoftware,Altium Limited,Altium Designer,25.8.1 (18)*
G04*
G04 Layer_Color=8421504*
%FSLAX25Y25*%
%MOIN*%
G70*
G04*
G04 #@! TF.SameCoordinates,42E29172-AB17-4D01-AB3A-1E57205C25AC*
G04*
G04*
G04 #@! TF.FilePolarity,Positive*
G04*
G01*
G75*
%ADD13R,0.05118X0.02756*%
%ADD14R,0.05000X0.03000*%
%ADD15R,0.10000X0.10512*%
%ADD16R,0.04528X0.04528*%
%ADD17R,0.04743X0.05363*%
%ADD18R,0.05512X0.06102*%
%ADD19R,0.06496X0.05512*%
%ADD20R,0.02756X0.05118*%
%ADD21R,0.05512X0.02362*%
G04:AMPARAMS|DCode=22|XSize=74.8mil|YSize=125.98mil|CornerRadius=0mil|HoleSize=0mil|Usage=FLASHONLY|Rotation=270.000|XOffset=0mil|YOffset=0mil|HoleType=Round|Shape=Octagon|*
%AMOCTAGOND22*
4,1,8,0.06299,0.01870,0.06299,-0.01870,0.04429,-0.03740,-0.04429,-0.03740,-0.06299,-0.01870,-0.06299,0.01870,-0.04429,0.03740,0.04429,0.03740,0.06299,0.01870,0.0*
%
%ADD22OCTAGOND22*%

%ADD23R,0.07087X0.02362*%
%ADD24R,0.03937X0.05315*%
G04:AMPARAMS|DCode=25|XSize=48.81mil|YSize=20.7mil|CornerRadius=10.35mil|HoleSize=0mil|Usage=FLASHONLY|Rotation=0.000|XOffset=0mil|YOffset=0mil|HoleType=Round|Shape=RoundedRectangle|*
%AMROUNDEDRECTD25*
21,1,0.04881,0.00000,0,0,0.0*
21,1,0.02811,0.02070,0,0,0.0*
1,1,0.02070,0.01405,0.00000*
1,1,0.02070,-0.01405,0.00000*
1,1,0.02070,-0.01405,0.00000*
1,1,0.02070,0.01405,0.00000*
%
%ADD25ROUNDEDRECTD25*%
%ADD26R,0.04881X0.02070*%
D13*
X117665Y38085D02*
D03*
Y45565D02*
D03*
X88211Y77805D02*
D03*
Y70325D02*
D03*
D14*
X55665Y62339D02*
D03*
D15*
X55565Y71595D02*
D03*
D16*
X96665Y21059D02*
D03*
Y30311D02*
D03*
X104665Y21059D02*
D03*
Y30311D02*
D03*
D17*
X80231Y42371D02*
D03*
X86930D02*
D03*
D18*
X80231Y29722D02*
D03*
X87711D02*
D03*
X87711Y18136D02*
D03*
X80231D02*
D03*
D19*
X124165Y29722D02*
D03*
Y19486D02*
D03*
X113940Y29819D02*
D03*
Y19583D02*
D03*
D20*
X80231Y54325D02*
D03*
X87711D02*
D03*
D21*
X80170Y64419D02*
D03*
Y76230D02*
D03*
D22*
X69540Y70325D02*
D03*
D23*
X79383D02*
D03*
D24*
X40213Y76526D02*
D03*
X46118D02*
D03*
D25*
X109254Y42899D02*
D03*
Y39159D02*
D03*
X100077D02*
D03*
X109254Y46639D02*
D03*
X100077Y42899D02*
D03*
D26*
Y46639D02*
D03*
M02*
