M48
;Layer_Color=9474304
;FILE_FORMAT=2:4
INCH,TZ
;TYPE=PLATED
T01F00S00C0.0120
T02F00S00C0.0276
T03F00S00C0.0354
T04F00S00C0.0512
T05F00S00C0.1260
%
T01
X607Y4401
Y6369
Y8338
Y10306
X2575
X3745Y8432
X3152Y6260
X5567Y6234
X6985Y3849
X8023Y1814
X7204Y532
X9172
X11141
X11394Y1958
X10467Y3031
X10008Y4290
X9917Y5432
Y6369
X8821Y7032
X9039Y8338
X7548Y8564
X9039Y10306
X11008
Y8338
X12976
Y10306
X14945Y7354
Y5385
Y3543
X13296Y2667
X12414Y3803
X11767Y4557
X12411Y5218
X8771Y5432
X2701Y3075
X3405Y532
X5235
X12937
T02
X6295Y2346
Y3346
Y4346
T03
X3867Y3808
Y4793
X12517Y6182
Y7167
T04
X1917Y7432
Y9432
T05
X1224Y1219
X5568Y9693
X15119Y9692
X15119Y1222
M30
